%TF.GenerationSoftware,KiCad,Pcbnew,8.0.8*%
%TF.CreationDate,2025-08-06T16:05:48-04:00*%
%TF.ProjectId,pcie,70636965-2e6b-4696-9361-645f70636258,rev?*%
%TF.SameCoordinates,Original*%
%TF.FileFunction,Paste,Top*%
%TF.FilePolarity,Positive*%
%FSLAX46Y46*%
G04 Gerber Fmt 4.6, Leading zero omitted, Abs format (unit mm)*
G04 Created by KiCad (PCBNEW 8.0.8) date 2025-08-06 16:05:48*
%MOMM*%
%LPD*%
G01*
G04 APERTURE LIST*
G04 Aperture macros list*
%AMRoundRect*
0 Rectangle with rounded corners*
0 $1 Rounding radius*
0 $2 $3 $4 $5 $6 $7 $8 $9 X,Y pos of 4 corners*
0 Add a 4 corners polygon primitive as box body*
4,1,4,$2,$3,$4,$5,$6,$7,$8,$9,$2,$3,0*
0 Add four circle primitives for the rounded corners*
1,1,$1+$1,$2,$3*
1,1,$1+$1,$4,$5*
1,1,$1+$1,$6,$7*
1,1,$1+$1,$8,$9*
0 Add four rect primitives between the rounded corners*
20,1,$1+$1,$2,$3,$4,$5,0*
20,1,$1+$1,$4,$5,$6,$7,0*
20,1,$1+$1,$6,$7,$8,$9,0*
20,1,$1+$1,$8,$9,$2,$3,0*%
G04 Aperture macros list end*
%ADD10R,0.550000X2.000000*%
%ADD11R,4.200000X4.000000*%
%ADD12RoundRect,0.200000X-0.350000X0.200000X-0.350000X-0.200000X0.350000X-0.200000X0.350000X0.200000X0*%
%ADD13RoundRect,0.200000X-0.200000X-0.350000X0.200000X-0.350000X0.200000X0.350000X-0.200000X0.350000X0*%
%ADD14R,0.700000X0.400000*%
G04 APERTURE END LIST*
D10*
%TO.C,J2*%
X143800000Y-35600000D03*
X144800000Y-35600000D03*
X145800000Y-35600000D03*
X146800000Y-35600000D03*
X147800000Y-35600000D03*
X148800000Y-35600000D03*
X149800000Y-35600000D03*
X150800000Y-35600000D03*
X151800000Y-35600000D03*
X152800000Y-35600000D03*
X153800000Y-35600000D03*
X156800000Y-35600000D03*
X157800000Y-35600000D03*
X158800000Y-35600000D03*
X159800000Y-35600000D03*
X160800000Y-35600000D03*
X161800000Y-35600000D03*
X162800000Y-35600000D03*
X163800000Y-35600000D03*
X164800000Y-35600000D03*
X165800000Y-35600000D03*
X166800000Y-35600000D03*
X167800000Y-35600000D03*
X168800000Y-35600000D03*
X169800000Y-35600000D03*
X170800000Y-35600000D03*
X171800000Y-35600000D03*
X172800000Y-35600000D03*
X173800000Y-35600000D03*
X174800000Y-35600000D03*
X175800000Y-35600000D03*
X176800000Y-35600000D03*
X177800000Y-35600000D03*
X178800000Y-35600000D03*
X179800000Y-35600000D03*
X180800000Y-35600000D03*
X181800000Y-35600000D03*
X182800000Y-35600000D03*
X183800000Y-35600000D03*
X184800000Y-35600000D03*
X185800000Y-35600000D03*
X186800000Y-35600000D03*
X187800000Y-35600000D03*
X188800000Y-35600000D03*
X189800000Y-35600000D03*
X190800000Y-35600000D03*
X191800000Y-35600000D03*
X192800000Y-35600000D03*
X193800000Y-35600000D03*
X194800000Y-35600000D03*
X195800000Y-35600000D03*
X196800000Y-35600000D03*
X197800000Y-35600000D03*
X198800000Y-35600000D03*
X199800000Y-35600000D03*
X200800000Y-35600000D03*
X201800000Y-35600000D03*
X202800000Y-35600000D03*
X203800000Y-35600000D03*
X204800000Y-35600000D03*
X205800000Y-35600000D03*
X206800000Y-35600000D03*
X207800000Y-35600000D03*
X208800000Y-35600000D03*
X209800000Y-35600000D03*
X210800000Y-35600000D03*
X211800000Y-35600000D03*
X212800000Y-35600000D03*
X213800000Y-35600000D03*
X214800000Y-35600000D03*
X215800000Y-35600000D03*
X216800000Y-35600000D03*
X217800000Y-35600000D03*
X218800000Y-35600000D03*
X219800000Y-35600000D03*
X220800000Y-35600000D03*
X221800000Y-35600000D03*
X222800000Y-35600000D03*
X223800000Y-35600000D03*
X224800000Y-35600000D03*
X225800000Y-35600000D03*
X226800000Y-35600000D03*
X143800000Y-42100000D03*
X144800000Y-42100000D03*
X145800000Y-42100000D03*
X146800000Y-42100000D03*
X147800000Y-42100000D03*
X148800000Y-42100000D03*
X149800000Y-42100000D03*
X150800000Y-42100000D03*
X151800000Y-42100000D03*
X152800000Y-42100000D03*
X153800000Y-42100000D03*
X156800000Y-42100000D03*
X157800000Y-42100000D03*
X158800000Y-42100000D03*
X159800000Y-42100000D03*
X160800000Y-42100000D03*
X161800000Y-42100000D03*
X162800000Y-42100000D03*
X163800000Y-42100000D03*
X164800000Y-42100000D03*
X165800000Y-42100000D03*
X166800000Y-42100000D03*
X167800000Y-42100000D03*
X168800000Y-42100000D03*
X169800000Y-42100000D03*
X170800000Y-42100000D03*
X171800000Y-42100000D03*
X172800000Y-42100000D03*
X173800000Y-42100000D03*
X174800000Y-42100000D03*
X175800000Y-42100000D03*
X176800000Y-42100000D03*
X177800000Y-42100000D03*
X178800000Y-42100000D03*
X179800000Y-42100000D03*
X180800000Y-42100000D03*
X181800000Y-42100000D03*
X182800000Y-42100000D03*
X183800000Y-42100000D03*
X184800000Y-42100000D03*
X185800000Y-42100000D03*
X186800000Y-42100000D03*
X187800000Y-42100000D03*
X188800000Y-42100000D03*
X189800000Y-42100000D03*
X190800000Y-42100000D03*
X191800000Y-42100000D03*
X192800000Y-42100000D03*
X193800000Y-42100000D03*
X194800000Y-42100000D03*
X195800000Y-42100000D03*
X196800000Y-42100000D03*
X197800000Y-42100000D03*
X198800000Y-42100000D03*
X199800000Y-42100000D03*
X200800000Y-42100000D03*
X201800000Y-42100000D03*
X202800000Y-42100000D03*
X203800000Y-42100000D03*
X204800000Y-42100000D03*
X205800000Y-42100000D03*
X206800000Y-42100000D03*
X207800000Y-42100000D03*
X208800000Y-42100000D03*
X209800000Y-42100000D03*
X210800000Y-42100000D03*
X211800000Y-42100000D03*
X212800000Y-42100000D03*
X213800000Y-42100000D03*
X214800000Y-42100000D03*
X215800000Y-42100000D03*
X216800000Y-42100000D03*
X217800000Y-42100000D03*
X218800000Y-42100000D03*
X219800000Y-42100000D03*
X220800000Y-42100000D03*
X221800000Y-42100000D03*
X222800000Y-42100000D03*
X223800000Y-42100000D03*
X224800000Y-42100000D03*
X225800000Y-42100000D03*
X226800000Y-42100000D03*
D11*
X231400000Y-29600000D03*
X139200000Y-29600000D03*
%TD*%
D12*
%TO.C,R3*%
X142100000Y-45450000D03*
X142100000Y-46850000D03*
%TD*%
D13*
%TO.C,R7*%
X199000000Y-87500000D03*
X200400000Y-87500000D03*
%TD*%
%TO.C,R2*%
X152800000Y-45500000D03*
X154200000Y-45500000D03*
%TD*%
D12*
%TO.C,R5*%
X140350000Y-45450000D03*
X140350000Y-46850000D03*
%TD*%
D14*
%TO.C,J1*%
X193920000Y-95870000D03*
X194780000Y-95870000D03*
X197220000Y-95870000D03*
X198080000Y-95870000D03*
X200520000Y-95870000D03*
X201380000Y-95870000D03*
X203820000Y-95870000D03*
X204680000Y-95870000D03*
X193920000Y-95270000D03*
X194780000Y-95270000D03*
X197220000Y-95270000D03*
X198080000Y-95270000D03*
X200520000Y-95270000D03*
X201380000Y-95270000D03*
X203820000Y-95270000D03*
X204680000Y-95270000D03*
X193920000Y-94670000D03*
X194780000Y-94670000D03*
X197220000Y-94670000D03*
X201380000Y-94670000D03*
X203820000Y-94670000D03*
X204680000Y-94670000D03*
X193920000Y-94070000D03*
X194780000Y-94070000D03*
X197220000Y-94070000D03*
X201380000Y-94070000D03*
X203820000Y-94070000D03*
X204680000Y-94070000D03*
X193920000Y-93470000D03*
X194780000Y-93470000D03*
X197220000Y-93470000D03*
X201380000Y-93470000D03*
X203820000Y-93470000D03*
X204680000Y-93470000D03*
X193920000Y-92870000D03*
X194780000Y-92870000D03*
X197220000Y-92870000D03*
X201380000Y-92870000D03*
X203820000Y-92870000D03*
X204680000Y-92870000D03*
X193920000Y-92270000D03*
X194780000Y-92270000D03*
X197220000Y-92270000D03*
X201380000Y-92270000D03*
X203820000Y-92270000D03*
X204680000Y-92270000D03*
X193920000Y-91670000D03*
X194780000Y-91670000D03*
X197220000Y-91670000D03*
X201380000Y-91670000D03*
X203820000Y-91670000D03*
X204680000Y-91670000D03*
X193920000Y-91070000D03*
X194780000Y-91070000D03*
X197220000Y-91070000D03*
X201380000Y-91070000D03*
X203820000Y-91070000D03*
X204680000Y-91070000D03*
X193920000Y-90470000D03*
X194780000Y-90470000D03*
X197220000Y-90470000D03*
X198080000Y-90470000D03*
X200520000Y-90470000D03*
X201380000Y-90470000D03*
X203820000Y-90470000D03*
X204680000Y-90470000D03*
X193920000Y-89870000D03*
X194780000Y-89870000D03*
X197220000Y-89870000D03*
X198080000Y-89870000D03*
X200520000Y-89870000D03*
X201380000Y-89870000D03*
X203820000Y-89870000D03*
X204680000Y-89870000D03*
X177260000Y-95880000D03*
X178120000Y-95880000D03*
X180560000Y-95880000D03*
X181420000Y-95880000D03*
X183860000Y-95880000D03*
X184720000Y-95880000D03*
X187160000Y-95880000D03*
X188020000Y-95880000D03*
X177260000Y-95280000D03*
X178120000Y-95280000D03*
X180560000Y-95280000D03*
X181420000Y-95280000D03*
X183860000Y-95280000D03*
X184720000Y-95280000D03*
X187160000Y-95280000D03*
X188020000Y-95280000D03*
X177260000Y-94680000D03*
X178120000Y-94680000D03*
X180560000Y-94680000D03*
X184720000Y-94680000D03*
X187160000Y-94680000D03*
X188020000Y-94680000D03*
X177260000Y-94080000D03*
X178120000Y-94080000D03*
X180560000Y-94080000D03*
X184720000Y-94080000D03*
X187160000Y-94080000D03*
X188020000Y-94080000D03*
X177260000Y-93480000D03*
X178120000Y-93480000D03*
X180560000Y-93480000D03*
X184720000Y-93480000D03*
X187160000Y-93480000D03*
X188020000Y-93480000D03*
X177260000Y-92880000D03*
X178120000Y-92880000D03*
X180560000Y-92880000D03*
X184720000Y-92880000D03*
X187160000Y-92880000D03*
X188020000Y-92880000D03*
X177260000Y-92280000D03*
X178120000Y-92280000D03*
X180560000Y-92280000D03*
X184720000Y-92280000D03*
X187160000Y-92280000D03*
X188020000Y-92280000D03*
X177260000Y-91680000D03*
X178120000Y-91680000D03*
X180560000Y-91680000D03*
X184720000Y-91680000D03*
X187160000Y-91680000D03*
X188020000Y-91680000D03*
X177260000Y-91080000D03*
X178120000Y-91080000D03*
X180560000Y-91080000D03*
X184720000Y-91080000D03*
X187160000Y-91080000D03*
X188020000Y-91080000D03*
X177260000Y-90480000D03*
X178120000Y-90480000D03*
X180560000Y-90480000D03*
X181420000Y-90480000D03*
X183860000Y-90480000D03*
X184720000Y-90480000D03*
X187160000Y-90480000D03*
X188020000Y-90480000D03*
X177260000Y-89880000D03*
X178120000Y-89880000D03*
X180560000Y-89880000D03*
X181420000Y-89880000D03*
X183860000Y-89880000D03*
X184720000Y-89880000D03*
X187160000Y-89880000D03*
X188020000Y-89880000D03*
%TD*%
D13*
%TO.C,R1*%
X149800000Y-45500000D03*
X151200000Y-45500000D03*
%TD*%
D12*
%TO.C,R4*%
X155700000Y-45400000D03*
X155700000Y-46800000D03*
%TD*%
M02*
