%TF.GenerationSoftware,KiCad,Pcbnew,8.0.8*%
%TF.CreationDate,2025-08-06T16:05:48-04:00*%
%TF.ProjectId,pcie,70636965-2e6b-4696-9361-645f70636258,rev?*%
%TF.SameCoordinates,Original*%
%TF.FileFunction,Legend,Top*%
%TF.FilePolarity,Positive*%
%FSLAX46Y46*%
G04 Gerber Fmt 4.6, Leading zero omitted, Abs format (unit mm)*
G04 Created by KiCad (PCBNEW 8.0.8) date 2025-08-06 16:05:48*
%MOMM*%
%LPD*%
G01*
G04 APERTURE LIST*
%ADD10C,0.100000*%
%ADD11C,0.050000*%
%ADD12C,0.120000*%
%ADD13C,0.127000*%
%ADD14C,0.200000*%
G04 APERTURE END LIST*
D10*
X142834836Y-83708609D02*
X142834836Y-83208609D01*
X142834836Y-83208609D02*
X143025312Y-83208609D01*
X143025312Y-83208609D02*
X143072931Y-83232419D01*
X143072931Y-83232419D02*
X143096741Y-83256228D01*
X143096741Y-83256228D02*
X143120550Y-83303847D01*
X143120550Y-83303847D02*
X143120550Y-83375276D01*
X143120550Y-83375276D02*
X143096741Y-83422895D01*
X143096741Y-83422895D02*
X143072931Y-83446704D01*
X143072931Y-83446704D02*
X143025312Y-83470514D01*
X143025312Y-83470514D02*
X142834836Y-83470514D01*
X143334836Y-83446704D02*
X143501503Y-83446704D01*
X143572931Y-83708609D02*
X143334836Y-83708609D01*
X143334836Y-83708609D02*
X143334836Y-83208609D01*
X143334836Y-83208609D02*
X143572931Y-83208609D01*
X143787217Y-83708609D02*
X143787217Y-83208609D01*
X143787217Y-83208609D02*
X144072931Y-83708609D01*
X144072931Y-83708609D02*
X144072931Y-83208609D01*
X144287218Y-83565752D02*
X144525313Y-83565752D01*
X144239599Y-83708609D02*
X144406265Y-83208609D01*
X144406265Y-83208609D02*
X144572932Y-83708609D01*
X144906265Y-83446704D02*
X144977693Y-83470514D01*
X144977693Y-83470514D02*
X145001503Y-83494323D01*
X145001503Y-83494323D02*
X145025312Y-83541942D01*
X145025312Y-83541942D02*
X145025312Y-83613371D01*
X145025312Y-83613371D02*
X145001503Y-83660990D01*
X145001503Y-83660990D02*
X144977693Y-83684800D01*
X144977693Y-83684800D02*
X144930074Y-83708609D01*
X144930074Y-83708609D02*
X144739598Y-83708609D01*
X144739598Y-83708609D02*
X144739598Y-83208609D01*
X144739598Y-83208609D02*
X144906265Y-83208609D01*
X144906265Y-83208609D02*
X144953884Y-83232419D01*
X144953884Y-83232419D02*
X144977693Y-83256228D01*
X144977693Y-83256228D02*
X145001503Y-83303847D01*
X145001503Y-83303847D02*
X145001503Y-83351466D01*
X145001503Y-83351466D02*
X144977693Y-83399085D01*
X144977693Y-83399085D02*
X144953884Y-83422895D01*
X144953884Y-83422895D02*
X144906265Y-83446704D01*
X144906265Y-83446704D02*
X144739598Y-83446704D01*
X145477693Y-83708609D02*
X145239598Y-83708609D01*
X145239598Y-83708609D02*
X145239598Y-83208609D01*
X145644360Y-83446704D02*
X145811027Y-83446704D01*
X145882455Y-83708609D02*
X145644360Y-83708609D01*
X145644360Y-83708609D02*
X145644360Y-83208609D01*
X145644360Y-83208609D02*
X145882455Y-83208609D01*
X139884836Y-83683609D02*
X139884836Y-83183609D01*
X139884836Y-83183609D02*
X140075312Y-83183609D01*
X140075312Y-83183609D02*
X140122931Y-83207419D01*
X140122931Y-83207419D02*
X140146741Y-83231228D01*
X140146741Y-83231228D02*
X140170550Y-83278847D01*
X140170550Y-83278847D02*
X140170550Y-83350276D01*
X140170550Y-83350276D02*
X140146741Y-83397895D01*
X140146741Y-83397895D02*
X140122931Y-83421704D01*
X140122931Y-83421704D02*
X140075312Y-83445514D01*
X140075312Y-83445514D02*
X139884836Y-83445514D01*
X140646741Y-83207419D02*
X140599122Y-83183609D01*
X140599122Y-83183609D02*
X140527693Y-83183609D01*
X140527693Y-83183609D02*
X140456265Y-83207419D01*
X140456265Y-83207419D02*
X140408646Y-83255038D01*
X140408646Y-83255038D02*
X140384836Y-83302657D01*
X140384836Y-83302657D02*
X140361027Y-83397895D01*
X140361027Y-83397895D02*
X140361027Y-83469323D01*
X140361027Y-83469323D02*
X140384836Y-83564561D01*
X140384836Y-83564561D02*
X140408646Y-83612180D01*
X140408646Y-83612180D02*
X140456265Y-83659800D01*
X140456265Y-83659800D02*
X140527693Y-83683609D01*
X140527693Y-83683609D02*
X140575312Y-83683609D01*
X140575312Y-83683609D02*
X140646741Y-83659800D01*
X140646741Y-83659800D02*
X140670550Y-83635990D01*
X140670550Y-83635990D02*
X140670550Y-83469323D01*
X140670550Y-83469323D02*
X140575312Y-83469323D01*
X140980074Y-83183609D02*
X141075312Y-83183609D01*
X141075312Y-83183609D02*
X141122931Y-83207419D01*
X141122931Y-83207419D02*
X141170550Y-83255038D01*
X141170550Y-83255038D02*
X141194360Y-83350276D01*
X141194360Y-83350276D02*
X141194360Y-83516942D01*
X141194360Y-83516942D02*
X141170550Y-83612180D01*
X141170550Y-83612180D02*
X141122931Y-83659800D01*
X141122931Y-83659800D02*
X141075312Y-83683609D01*
X141075312Y-83683609D02*
X140980074Y-83683609D01*
X140980074Y-83683609D02*
X140932455Y-83659800D01*
X140932455Y-83659800D02*
X140884836Y-83612180D01*
X140884836Y-83612180D02*
X140861027Y-83516942D01*
X140861027Y-83516942D02*
X140861027Y-83350276D01*
X140861027Y-83350276D02*
X140884836Y-83255038D01*
X140884836Y-83255038D02*
X140932455Y-83207419D01*
X140932455Y-83207419D02*
X140980074Y-83183609D01*
X141503884Y-83183609D02*
X141599122Y-83183609D01*
X141599122Y-83183609D02*
X141646741Y-83207419D01*
X141646741Y-83207419D02*
X141694360Y-83255038D01*
X141694360Y-83255038D02*
X141718170Y-83350276D01*
X141718170Y-83350276D02*
X141718170Y-83516942D01*
X141718170Y-83516942D02*
X141694360Y-83612180D01*
X141694360Y-83612180D02*
X141646741Y-83659800D01*
X141646741Y-83659800D02*
X141599122Y-83683609D01*
X141599122Y-83683609D02*
X141503884Y-83683609D01*
X141503884Y-83683609D02*
X141456265Y-83659800D01*
X141456265Y-83659800D02*
X141408646Y-83612180D01*
X141408646Y-83612180D02*
X141384837Y-83516942D01*
X141384837Y-83516942D02*
X141384837Y-83350276D01*
X141384837Y-83350276D02*
X141408646Y-83255038D01*
X141408646Y-83255038D02*
X141456265Y-83207419D01*
X141456265Y-83207419D02*
X141503884Y-83183609D01*
X141932456Y-83683609D02*
X141932456Y-83183609D01*
X141932456Y-83183609D02*
X142051504Y-83183609D01*
X142051504Y-83183609D02*
X142122932Y-83207419D01*
X142122932Y-83207419D02*
X142170551Y-83255038D01*
X142170551Y-83255038D02*
X142194361Y-83302657D01*
X142194361Y-83302657D02*
X142218170Y-83397895D01*
X142218170Y-83397895D02*
X142218170Y-83469323D01*
X142218170Y-83469323D02*
X142194361Y-83564561D01*
X142194361Y-83564561D02*
X142170551Y-83612180D01*
X142170551Y-83612180D02*
X142122932Y-83659800D01*
X142122932Y-83659800D02*
X142051504Y-83683609D01*
X142051504Y-83683609D02*
X141932456Y-83683609D01*
X149676503Y-60671704D02*
X149509836Y-60671704D01*
X149509836Y-60933609D02*
X149509836Y-60433609D01*
X149509836Y-60433609D02*
X149747931Y-60433609D01*
X149914598Y-60790752D02*
X150152693Y-60790752D01*
X149866979Y-60933609D02*
X150033645Y-60433609D01*
X150033645Y-60433609D02*
X150200312Y-60933609D01*
X150366978Y-60933609D02*
X150366978Y-60433609D01*
X150366978Y-60433609D02*
X150652692Y-60933609D01*
X150652692Y-60933609D02*
X150652692Y-60433609D01*
X151533645Y-60933609D02*
X151247931Y-60933609D01*
X151390788Y-60933609D02*
X151390788Y-60433609D01*
X151390788Y-60433609D02*
X151343169Y-60505038D01*
X151343169Y-60505038D02*
X151295550Y-60552657D01*
X151295550Y-60552657D02*
X151247931Y-60576466D01*
X144826503Y-60746704D02*
X144659836Y-60746704D01*
X144659836Y-61008609D02*
X144659836Y-60508609D01*
X144659836Y-60508609D02*
X144897931Y-60508609D01*
X145064598Y-60865752D02*
X145302693Y-60865752D01*
X145016979Y-61008609D02*
X145183645Y-60508609D01*
X145183645Y-60508609D02*
X145350312Y-61008609D01*
X145516978Y-61008609D02*
X145516978Y-60508609D01*
X145516978Y-60508609D02*
X145802692Y-61008609D01*
X145802692Y-61008609D02*
X145802692Y-60508609D01*
X146516978Y-60508609D02*
X146564597Y-60508609D01*
X146564597Y-60508609D02*
X146612216Y-60532419D01*
X146612216Y-60532419D02*
X146636026Y-60556228D01*
X146636026Y-60556228D02*
X146659835Y-60603847D01*
X146659835Y-60603847D02*
X146683645Y-60699085D01*
X146683645Y-60699085D02*
X146683645Y-60818133D01*
X146683645Y-60818133D02*
X146659835Y-60913371D01*
X146659835Y-60913371D02*
X146636026Y-60960990D01*
X146636026Y-60960990D02*
X146612216Y-60984800D01*
X146612216Y-60984800D02*
X146564597Y-61008609D01*
X146564597Y-61008609D02*
X146516978Y-61008609D01*
X146516978Y-61008609D02*
X146469359Y-60984800D01*
X146469359Y-60984800D02*
X146445550Y-60960990D01*
X146445550Y-60960990D02*
X146421740Y-60913371D01*
X146421740Y-60913371D02*
X146397931Y-60818133D01*
X146397931Y-60818133D02*
X146397931Y-60699085D01*
X146397931Y-60699085D02*
X146421740Y-60603847D01*
X146421740Y-60603847D02*
X146445550Y-60556228D01*
X146445550Y-60556228D02*
X146469359Y-60532419D01*
X146469359Y-60532419D02*
X146516978Y-60508609D01*
D11*
X148708790Y-51698846D02*
X148708790Y-51413132D01*
X148708790Y-51555989D02*
X149208790Y-51555989D01*
X149208790Y-51555989D02*
X149137361Y-51508370D01*
X149137361Y-51508370D02*
X149089742Y-51460751D01*
X149089742Y-51460751D02*
X149065933Y-51413132D01*
X149161171Y-51889322D02*
X149184980Y-51913131D01*
X149184980Y-51913131D02*
X149208790Y-51960750D01*
X149208790Y-51960750D02*
X149208790Y-52079798D01*
X149208790Y-52079798D02*
X149184980Y-52127417D01*
X149184980Y-52127417D02*
X149161171Y-52151226D01*
X149161171Y-52151226D02*
X149113552Y-52175036D01*
X149113552Y-52175036D02*
X149065933Y-52175036D01*
X149065933Y-52175036D02*
X148994504Y-52151226D01*
X148994504Y-52151226D02*
X148708790Y-51865512D01*
X148708790Y-51865512D02*
X148708790Y-52175036D01*
X149208790Y-52317893D02*
X148708790Y-52484559D01*
X148708790Y-52484559D02*
X149208790Y-52651226D01*
X148708790Y-53579796D02*
X149208790Y-53579796D01*
X149208790Y-53579796D02*
X149208790Y-53770272D01*
X149208790Y-53770272D02*
X149184980Y-53817891D01*
X149184980Y-53817891D02*
X149161171Y-53841701D01*
X149161171Y-53841701D02*
X149113552Y-53865510D01*
X149113552Y-53865510D02*
X149042123Y-53865510D01*
X149042123Y-53865510D02*
X148994504Y-53841701D01*
X148994504Y-53841701D02*
X148970695Y-53817891D01*
X148970695Y-53817891D02*
X148946885Y-53770272D01*
X148946885Y-53770272D02*
X148946885Y-53579796D01*
X149208790Y-54032177D02*
X148708790Y-54151225D01*
X148708790Y-54151225D02*
X149065933Y-54246463D01*
X149065933Y-54246463D02*
X148708790Y-54341701D01*
X148708790Y-54341701D02*
X149208790Y-54460749D01*
X148708790Y-54651225D02*
X149208790Y-54651225D01*
X149208790Y-54651225D02*
X148851647Y-54817892D01*
X148851647Y-54817892D02*
X149208790Y-54984558D01*
X149208790Y-54984558D02*
X148708790Y-54984558D01*
X148732600Y-55960749D02*
X148708790Y-56032177D01*
X148708790Y-56032177D02*
X148708790Y-56151225D01*
X148708790Y-56151225D02*
X148732600Y-56198844D01*
X148732600Y-56198844D02*
X148756409Y-56222653D01*
X148756409Y-56222653D02*
X148804028Y-56246463D01*
X148804028Y-56246463D02*
X148851647Y-56246463D01*
X148851647Y-56246463D02*
X148899266Y-56222653D01*
X148899266Y-56222653D02*
X148923076Y-56198844D01*
X148923076Y-56198844D02*
X148946885Y-56151225D01*
X148946885Y-56151225D02*
X148970695Y-56055987D01*
X148970695Y-56055987D02*
X148994504Y-56008368D01*
X148994504Y-56008368D02*
X149018314Y-55984558D01*
X149018314Y-55984558D02*
X149065933Y-55960749D01*
X149065933Y-55960749D02*
X149113552Y-55960749D01*
X149113552Y-55960749D02*
X149161171Y-55984558D01*
X149161171Y-55984558D02*
X149184980Y-56008368D01*
X149184980Y-56008368D02*
X149208790Y-56055987D01*
X149208790Y-56055987D02*
X149208790Y-56175034D01*
X149208790Y-56175034D02*
X149184980Y-56246463D01*
X148708790Y-56460748D02*
X149208790Y-56460748D01*
X149208790Y-56460748D02*
X149208790Y-56651224D01*
X149208790Y-56651224D02*
X149184980Y-56698843D01*
X149184980Y-56698843D02*
X149161171Y-56722653D01*
X149161171Y-56722653D02*
X149113552Y-56746462D01*
X149113552Y-56746462D02*
X149042123Y-56746462D01*
X149042123Y-56746462D02*
X148994504Y-56722653D01*
X148994504Y-56722653D02*
X148970695Y-56698843D01*
X148970695Y-56698843D02*
X148946885Y-56651224D01*
X148946885Y-56651224D02*
X148946885Y-56460748D01*
X148708790Y-56960748D02*
X149208790Y-56960748D01*
X149208790Y-56960748D02*
X149208790Y-57079796D01*
X149208790Y-57079796D02*
X149184980Y-57151224D01*
X149184980Y-57151224D02*
X149137361Y-57198843D01*
X149137361Y-57198843D02*
X149089742Y-57222653D01*
X149089742Y-57222653D02*
X148994504Y-57246462D01*
X148994504Y-57246462D02*
X148923076Y-57246462D01*
X148923076Y-57246462D02*
X148827838Y-57222653D01*
X148827838Y-57222653D02*
X148780219Y-57198843D01*
X148780219Y-57198843D02*
X148732600Y-57151224D01*
X148732600Y-57151224D02*
X148708790Y-57079796D01*
X148708790Y-57079796D02*
X148708790Y-56960748D01*
X149184980Y-58484557D02*
X149208790Y-58436938D01*
X149208790Y-58436938D02*
X149208790Y-58365509D01*
X149208790Y-58365509D02*
X149184980Y-58294081D01*
X149184980Y-58294081D02*
X149137361Y-58246462D01*
X149137361Y-58246462D02*
X149089742Y-58222652D01*
X149089742Y-58222652D02*
X148994504Y-58198843D01*
X148994504Y-58198843D02*
X148923076Y-58198843D01*
X148923076Y-58198843D02*
X148827838Y-58222652D01*
X148827838Y-58222652D02*
X148780219Y-58246462D01*
X148780219Y-58246462D02*
X148732600Y-58294081D01*
X148732600Y-58294081D02*
X148708790Y-58365509D01*
X148708790Y-58365509D02*
X148708790Y-58413128D01*
X148708790Y-58413128D02*
X148732600Y-58484557D01*
X148732600Y-58484557D02*
X148756409Y-58508366D01*
X148756409Y-58508366D02*
X148923076Y-58508366D01*
X148923076Y-58508366D02*
X148923076Y-58413128D01*
X148708790Y-58722652D02*
X149208790Y-58722652D01*
X149208790Y-58722652D02*
X148708790Y-59008366D01*
X148708790Y-59008366D02*
X149208790Y-59008366D01*
X148708790Y-59246462D02*
X149208790Y-59246462D01*
X149208790Y-59246462D02*
X149208790Y-59365510D01*
X149208790Y-59365510D02*
X149184980Y-59436938D01*
X149184980Y-59436938D02*
X149137361Y-59484557D01*
X149137361Y-59484557D02*
X149089742Y-59508367D01*
X149089742Y-59508367D02*
X148994504Y-59532176D01*
X148994504Y-59532176D02*
X148923076Y-59532176D01*
X148923076Y-59532176D02*
X148827838Y-59508367D01*
X148827838Y-59508367D02*
X148780219Y-59484557D01*
X148780219Y-59484557D02*
X148732600Y-59436938D01*
X148732600Y-59436938D02*
X148708790Y-59365510D01*
X148708790Y-59365510D02*
X148708790Y-59246462D01*
X143908790Y-51593846D02*
X143908790Y-51308132D01*
X143908790Y-51450989D02*
X144408790Y-51450989D01*
X144408790Y-51450989D02*
X144337361Y-51403370D01*
X144337361Y-51403370D02*
X144289742Y-51355751D01*
X144289742Y-51355751D02*
X144265933Y-51308132D01*
X144361171Y-51784322D02*
X144384980Y-51808131D01*
X144384980Y-51808131D02*
X144408790Y-51855750D01*
X144408790Y-51855750D02*
X144408790Y-51974798D01*
X144408790Y-51974798D02*
X144384980Y-52022417D01*
X144384980Y-52022417D02*
X144361171Y-52046226D01*
X144361171Y-52046226D02*
X144313552Y-52070036D01*
X144313552Y-52070036D02*
X144265933Y-52070036D01*
X144265933Y-52070036D02*
X144194504Y-52046226D01*
X144194504Y-52046226D02*
X143908790Y-51760512D01*
X143908790Y-51760512D02*
X143908790Y-52070036D01*
X144408790Y-52212893D02*
X143908790Y-52379559D01*
X143908790Y-52379559D02*
X144408790Y-52546226D01*
X143908790Y-53474796D02*
X144408790Y-53474796D01*
X144408790Y-53474796D02*
X144408790Y-53665272D01*
X144408790Y-53665272D02*
X144384980Y-53712891D01*
X144384980Y-53712891D02*
X144361171Y-53736701D01*
X144361171Y-53736701D02*
X144313552Y-53760510D01*
X144313552Y-53760510D02*
X144242123Y-53760510D01*
X144242123Y-53760510D02*
X144194504Y-53736701D01*
X144194504Y-53736701D02*
X144170695Y-53712891D01*
X144170695Y-53712891D02*
X144146885Y-53665272D01*
X144146885Y-53665272D02*
X144146885Y-53474796D01*
X144408790Y-53927177D02*
X143908790Y-54046225D01*
X143908790Y-54046225D02*
X144265933Y-54141463D01*
X144265933Y-54141463D02*
X143908790Y-54236701D01*
X143908790Y-54236701D02*
X144408790Y-54355749D01*
X143908790Y-54546225D02*
X144408790Y-54546225D01*
X144408790Y-54546225D02*
X144051647Y-54712892D01*
X144051647Y-54712892D02*
X144408790Y-54879558D01*
X144408790Y-54879558D02*
X143908790Y-54879558D01*
X143932600Y-55855749D02*
X143908790Y-55927177D01*
X143908790Y-55927177D02*
X143908790Y-56046225D01*
X143908790Y-56046225D02*
X143932600Y-56093844D01*
X143932600Y-56093844D02*
X143956409Y-56117653D01*
X143956409Y-56117653D02*
X144004028Y-56141463D01*
X144004028Y-56141463D02*
X144051647Y-56141463D01*
X144051647Y-56141463D02*
X144099266Y-56117653D01*
X144099266Y-56117653D02*
X144123076Y-56093844D01*
X144123076Y-56093844D02*
X144146885Y-56046225D01*
X144146885Y-56046225D02*
X144170695Y-55950987D01*
X144170695Y-55950987D02*
X144194504Y-55903368D01*
X144194504Y-55903368D02*
X144218314Y-55879558D01*
X144218314Y-55879558D02*
X144265933Y-55855749D01*
X144265933Y-55855749D02*
X144313552Y-55855749D01*
X144313552Y-55855749D02*
X144361171Y-55879558D01*
X144361171Y-55879558D02*
X144384980Y-55903368D01*
X144384980Y-55903368D02*
X144408790Y-55950987D01*
X144408790Y-55950987D02*
X144408790Y-56070034D01*
X144408790Y-56070034D02*
X144384980Y-56141463D01*
X143908790Y-56355748D02*
X144408790Y-56355748D01*
X144408790Y-56355748D02*
X144408790Y-56546224D01*
X144408790Y-56546224D02*
X144384980Y-56593843D01*
X144384980Y-56593843D02*
X144361171Y-56617653D01*
X144361171Y-56617653D02*
X144313552Y-56641462D01*
X144313552Y-56641462D02*
X144242123Y-56641462D01*
X144242123Y-56641462D02*
X144194504Y-56617653D01*
X144194504Y-56617653D02*
X144170695Y-56593843D01*
X144170695Y-56593843D02*
X144146885Y-56546224D01*
X144146885Y-56546224D02*
X144146885Y-56355748D01*
X143908790Y-56855748D02*
X144408790Y-56855748D01*
X144408790Y-56855748D02*
X144408790Y-56974796D01*
X144408790Y-56974796D02*
X144384980Y-57046224D01*
X144384980Y-57046224D02*
X144337361Y-57093843D01*
X144337361Y-57093843D02*
X144289742Y-57117653D01*
X144289742Y-57117653D02*
X144194504Y-57141462D01*
X144194504Y-57141462D02*
X144123076Y-57141462D01*
X144123076Y-57141462D02*
X144027838Y-57117653D01*
X144027838Y-57117653D02*
X143980219Y-57093843D01*
X143980219Y-57093843D02*
X143932600Y-57046224D01*
X143932600Y-57046224D02*
X143908790Y-56974796D01*
X143908790Y-56974796D02*
X143908790Y-56855748D01*
X144384980Y-58379557D02*
X144408790Y-58331938D01*
X144408790Y-58331938D02*
X144408790Y-58260509D01*
X144408790Y-58260509D02*
X144384980Y-58189081D01*
X144384980Y-58189081D02*
X144337361Y-58141462D01*
X144337361Y-58141462D02*
X144289742Y-58117652D01*
X144289742Y-58117652D02*
X144194504Y-58093843D01*
X144194504Y-58093843D02*
X144123076Y-58093843D01*
X144123076Y-58093843D02*
X144027838Y-58117652D01*
X144027838Y-58117652D02*
X143980219Y-58141462D01*
X143980219Y-58141462D02*
X143932600Y-58189081D01*
X143932600Y-58189081D02*
X143908790Y-58260509D01*
X143908790Y-58260509D02*
X143908790Y-58308128D01*
X143908790Y-58308128D02*
X143932600Y-58379557D01*
X143932600Y-58379557D02*
X143956409Y-58403366D01*
X143956409Y-58403366D02*
X144123076Y-58403366D01*
X144123076Y-58403366D02*
X144123076Y-58308128D01*
X143908790Y-58617652D02*
X144408790Y-58617652D01*
X144408790Y-58617652D02*
X143908790Y-58903366D01*
X143908790Y-58903366D02*
X144408790Y-58903366D01*
X143908790Y-59141462D02*
X144408790Y-59141462D01*
X144408790Y-59141462D02*
X144408790Y-59260510D01*
X144408790Y-59260510D02*
X144384980Y-59331938D01*
X144384980Y-59331938D02*
X144337361Y-59379557D01*
X144337361Y-59379557D02*
X144289742Y-59403367D01*
X144289742Y-59403367D02*
X144194504Y-59427176D01*
X144194504Y-59427176D02*
X144123076Y-59427176D01*
X144123076Y-59427176D02*
X144027838Y-59403367D01*
X144027838Y-59403367D02*
X143980219Y-59379557D01*
X143980219Y-59379557D02*
X143932600Y-59331938D01*
X143932600Y-59331938D02*
X143908790Y-59260510D01*
X143908790Y-59260510D02*
X143908790Y-59141462D01*
D10*
X135286027Y-66512475D02*
X135619360Y-67512475D01*
X135619360Y-67512475D02*
X135952693Y-66512475D01*
X136238408Y-67226760D02*
X136714598Y-67226760D01*
X136143170Y-67512475D02*
X136476503Y-66512475D01*
X136476503Y-66512475D02*
X136809836Y-67512475D01*
X137143170Y-67512475D02*
X137143170Y-66512475D01*
X137143170Y-66512475D02*
X137381265Y-66512475D01*
X137381265Y-66512475D02*
X137524122Y-66560094D01*
X137524122Y-66560094D02*
X137619360Y-66655332D01*
X137619360Y-66655332D02*
X137666979Y-66750570D01*
X137666979Y-66750570D02*
X137714598Y-66941046D01*
X137714598Y-66941046D02*
X137714598Y-67083903D01*
X137714598Y-67083903D02*
X137666979Y-67274379D01*
X137666979Y-67274379D02*
X137619360Y-67369617D01*
X137619360Y-67369617D02*
X137524122Y-67464856D01*
X137524122Y-67464856D02*
X137381265Y-67512475D01*
X137381265Y-67512475D02*
X137143170Y-67512475D01*
X138095551Y-67226760D02*
X138571741Y-67226760D01*
X138000313Y-67512475D02*
X138333646Y-66512475D01*
X138333646Y-66512475D02*
X138666979Y-67512475D01*
X139000313Y-67512475D02*
X139000313Y-66512475D01*
X139000313Y-66512475D02*
X139381265Y-66512475D01*
X139381265Y-66512475D02*
X139476503Y-66560094D01*
X139476503Y-66560094D02*
X139524122Y-66607713D01*
X139524122Y-66607713D02*
X139571741Y-66702951D01*
X139571741Y-66702951D02*
X139571741Y-66845808D01*
X139571741Y-66845808D02*
X139524122Y-66941046D01*
X139524122Y-66941046D02*
X139476503Y-66988665D01*
X139476503Y-66988665D02*
X139381265Y-67036284D01*
X139381265Y-67036284D02*
X139000313Y-67036284D01*
X135333646Y-70172419D02*
X135952693Y-70172419D01*
X135952693Y-70172419D02*
X135619360Y-70553371D01*
X135619360Y-70553371D02*
X135762217Y-70553371D01*
X135762217Y-70553371D02*
X135857455Y-70600990D01*
X135857455Y-70600990D02*
X135905074Y-70648609D01*
X135905074Y-70648609D02*
X135952693Y-70743847D01*
X135952693Y-70743847D02*
X135952693Y-70981942D01*
X135952693Y-70981942D02*
X135905074Y-71077180D01*
X135905074Y-71077180D02*
X135857455Y-71124800D01*
X135857455Y-71124800D02*
X135762217Y-71172419D01*
X135762217Y-71172419D02*
X135476503Y-71172419D01*
X135476503Y-71172419D02*
X135381265Y-71124800D01*
X135381265Y-71124800D02*
X135333646Y-71077180D01*
X136381265Y-71077180D02*
X136428884Y-71124800D01*
X136428884Y-71124800D02*
X136381265Y-71172419D01*
X136381265Y-71172419D02*
X136333646Y-71124800D01*
X136333646Y-71124800D02*
X136381265Y-71077180D01*
X136381265Y-71077180D02*
X136381265Y-71172419D01*
X136762217Y-70172419D02*
X137381264Y-70172419D01*
X137381264Y-70172419D02*
X137047931Y-70553371D01*
X137047931Y-70553371D02*
X137190788Y-70553371D01*
X137190788Y-70553371D02*
X137286026Y-70600990D01*
X137286026Y-70600990D02*
X137333645Y-70648609D01*
X137333645Y-70648609D02*
X137381264Y-70743847D01*
X137381264Y-70743847D02*
X137381264Y-70981942D01*
X137381264Y-70981942D02*
X137333645Y-71077180D01*
X137333645Y-71077180D02*
X137286026Y-71124800D01*
X137286026Y-71124800D02*
X137190788Y-71172419D01*
X137190788Y-71172419D02*
X136905074Y-71172419D01*
X136905074Y-71172419D02*
X136809836Y-71124800D01*
X136809836Y-71124800D02*
X136762217Y-71077180D01*
X137714598Y-70505752D02*
X137952693Y-71172419D01*
X137952693Y-71172419D02*
X138190788Y-70505752D01*
X139286027Y-70886704D02*
X139762217Y-70886704D01*
X139190789Y-71172419D02*
X139524122Y-70172419D01*
X139524122Y-70172419D02*
X139857455Y-71172419D01*
X140666979Y-71172419D02*
X140190789Y-71172419D01*
X140190789Y-71172419D02*
X140190789Y-70172419D01*
X140905075Y-70172419D02*
X141143170Y-71172419D01*
X141143170Y-71172419D02*
X141333646Y-70458133D01*
X141333646Y-70458133D02*
X141524122Y-71172419D01*
X141524122Y-71172419D02*
X141762218Y-70172419D01*
X135886027Y-74372419D02*
X136219360Y-75372419D01*
X136219360Y-75372419D02*
X136552693Y-74372419D01*
X136886027Y-75372419D02*
X136886027Y-74372419D01*
X137362217Y-75372419D02*
X137362217Y-74372419D01*
X137362217Y-74372419D02*
X137933645Y-75372419D01*
X137933645Y-75372419D02*
X137933645Y-74372419D01*
X136155074Y-78072419D02*
X135678884Y-78072419D01*
X135678884Y-78072419D02*
X135631265Y-78548609D01*
X135631265Y-78548609D02*
X135678884Y-78500990D01*
X135678884Y-78500990D02*
X135774122Y-78453371D01*
X135774122Y-78453371D02*
X136012217Y-78453371D01*
X136012217Y-78453371D02*
X136107455Y-78500990D01*
X136107455Y-78500990D02*
X136155074Y-78548609D01*
X136155074Y-78548609D02*
X136202693Y-78643847D01*
X136202693Y-78643847D02*
X136202693Y-78881942D01*
X136202693Y-78881942D02*
X136155074Y-78977180D01*
X136155074Y-78977180D02*
X136107455Y-79024800D01*
X136107455Y-79024800D02*
X136012217Y-79072419D01*
X136012217Y-79072419D02*
X135774122Y-79072419D01*
X135774122Y-79072419D02*
X135678884Y-79024800D01*
X135678884Y-79024800D02*
X135631265Y-78977180D01*
X136488408Y-78072419D02*
X136821741Y-79072419D01*
X136821741Y-79072419D02*
X137155074Y-78072419D01*
X128777693Y-56920038D02*
X128682455Y-56872419D01*
X128682455Y-56872419D02*
X128539598Y-56872419D01*
X128539598Y-56872419D02*
X128396741Y-56920038D01*
X128396741Y-56920038D02*
X128301503Y-57015276D01*
X128301503Y-57015276D02*
X128253884Y-57110514D01*
X128253884Y-57110514D02*
X128206265Y-57300990D01*
X128206265Y-57300990D02*
X128206265Y-57443847D01*
X128206265Y-57443847D02*
X128253884Y-57634323D01*
X128253884Y-57634323D02*
X128301503Y-57729561D01*
X128301503Y-57729561D02*
X128396741Y-57824800D01*
X128396741Y-57824800D02*
X128539598Y-57872419D01*
X128539598Y-57872419D02*
X128634836Y-57872419D01*
X128634836Y-57872419D02*
X128777693Y-57824800D01*
X128777693Y-57824800D02*
X128825312Y-57777180D01*
X128825312Y-57777180D02*
X128825312Y-57443847D01*
X128825312Y-57443847D02*
X128634836Y-57443847D01*
X129253884Y-57872419D02*
X129253884Y-56872419D01*
X129253884Y-56872419D02*
X129825312Y-57872419D01*
X129825312Y-57872419D02*
X129825312Y-56872419D01*
X130301503Y-57872419D02*
X130301503Y-56872419D01*
X130301503Y-56872419D02*
X130539598Y-56872419D01*
X130539598Y-56872419D02*
X130682455Y-56920038D01*
X130682455Y-56920038D02*
X130777693Y-57015276D01*
X130777693Y-57015276D02*
X130825312Y-57110514D01*
X130825312Y-57110514D02*
X130872931Y-57300990D01*
X130872931Y-57300990D02*
X130872931Y-57443847D01*
X130872931Y-57443847D02*
X130825312Y-57634323D01*
X130825312Y-57634323D02*
X130777693Y-57729561D01*
X130777693Y-57729561D02*
X130682455Y-57824800D01*
X130682455Y-57824800D02*
X130539598Y-57872419D01*
X130539598Y-57872419D02*
X130301503Y-57872419D01*
X140458646Y-48872419D02*
X141077693Y-48872419D01*
X141077693Y-48872419D02*
X140744360Y-49253371D01*
X140744360Y-49253371D02*
X140887217Y-49253371D01*
X140887217Y-49253371D02*
X140982455Y-49300990D01*
X140982455Y-49300990D02*
X141030074Y-49348609D01*
X141030074Y-49348609D02*
X141077693Y-49443847D01*
X141077693Y-49443847D02*
X141077693Y-49681942D01*
X141077693Y-49681942D02*
X141030074Y-49777180D01*
X141030074Y-49777180D02*
X140982455Y-49824800D01*
X140982455Y-49824800D02*
X140887217Y-49872419D01*
X140887217Y-49872419D02*
X140601503Y-49872419D01*
X140601503Y-49872419D02*
X140506265Y-49824800D01*
X140506265Y-49824800D02*
X140458646Y-49777180D01*
X141506265Y-49777180D02*
X141553884Y-49824800D01*
X141553884Y-49824800D02*
X141506265Y-49872419D01*
X141506265Y-49872419D02*
X141458646Y-49824800D01*
X141458646Y-49824800D02*
X141506265Y-49777180D01*
X141506265Y-49777180D02*
X141506265Y-49872419D01*
X141887217Y-48872419D02*
X142506264Y-48872419D01*
X142506264Y-48872419D02*
X142172931Y-49253371D01*
X142172931Y-49253371D02*
X142315788Y-49253371D01*
X142315788Y-49253371D02*
X142411026Y-49300990D01*
X142411026Y-49300990D02*
X142458645Y-49348609D01*
X142458645Y-49348609D02*
X142506264Y-49443847D01*
X142506264Y-49443847D02*
X142506264Y-49681942D01*
X142506264Y-49681942D02*
X142458645Y-49777180D01*
X142458645Y-49777180D02*
X142411026Y-49824800D01*
X142411026Y-49824800D02*
X142315788Y-49872419D01*
X142315788Y-49872419D02*
X142030074Y-49872419D01*
X142030074Y-49872419D02*
X141934836Y-49824800D01*
X141934836Y-49824800D02*
X141887217Y-49777180D01*
X142791979Y-48872419D02*
X143125312Y-49872419D01*
X143125312Y-49872419D02*
X143458645Y-48872419D01*
X128977693Y-49872419D02*
X128406265Y-49872419D01*
X128691979Y-49872419D02*
X128691979Y-48872419D01*
X128691979Y-48872419D02*
X128596741Y-49015276D01*
X128596741Y-49015276D02*
X128501503Y-49110514D01*
X128501503Y-49110514D02*
X128406265Y-49158133D01*
X129358646Y-48967657D02*
X129406265Y-48920038D01*
X129406265Y-48920038D02*
X129501503Y-48872419D01*
X129501503Y-48872419D02*
X129739598Y-48872419D01*
X129739598Y-48872419D02*
X129834836Y-48920038D01*
X129834836Y-48920038D02*
X129882455Y-48967657D01*
X129882455Y-48967657D02*
X129930074Y-49062895D01*
X129930074Y-49062895D02*
X129930074Y-49158133D01*
X129930074Y-49158133D02*
X129882455Y-49300990D01*
X129882455Y-49300990D02*
X129311027Y-49872419D01*
X129311027Y-49872419D02*
X129930074Y-49872419D01*
X130215789Y-48872419D02*
X130549122Y-49872419D01*
X130549122Y-49872419D02*
X130882455Y-48872419D01*
X240640000Y-30000000D02*
X240640000Y-22700000D01*
X191186666Y-98257419D02*
X191186666Y-98971704D01*
X191186666Y-98971704D02*
X191139047Y-99114561D01*
X191139047Y-99114561D02*
X191043809Y-99209800D01*
X191043809Y-99209800D02*
X190900952Y-99257419D01*
X190900952Y-99257419D02*
X190805714Y-99257419D01*
X192186666Y-99257419D02*
X191615238Y-99257419D01*
X191900952Y-99257419D02*
X191900952Y-98257419D01*
X191900952Y-98257419D02*
X191805714Y-98400276D01*
X191805714Y-98400276D02*
X191710476Y-98495514D01*
X191710476Y-98495514D02*
X191615238Y-98543133D01*
D11*
X176166227Y-90640685D02*
X176166227Y-90340685D01*
X176166227Y-90340685D02*
X176299560Y-90340685D01*
X176299560Y-90340685D02*
X176332894Y-90354971D01*
X176332894Y-90354971D02*
X176349560Y-90369257D01*
X176349560Y-90369257D02*
X176366227Y-90397828D01*
X176366227Y-90397828D02*
X176366227Y-90440685D01*
X176366227Y-90440685D02*
X176349560Y-90469257D01*
X176349560Y-90469257D02*
X176332894Y-90483542D01*
X176332894Y-90483542D02*
X176299560Y-90497828D01*
X176299560Y-90497828D02*
X176166227Y-90497828D01*
X176632894Y-90483542D02*
X176682894Y-90497828D01*
X176682894Y-90497828D02*
X176699560Y-90512114D01*
X176699560Y-90512114D02*
X176716227Y-90540685D01*
X176716227Y-90540685D02*
X176716227Y-90583542D01*
X176716227Y-90583542D02*
X176699560Y-90612114D01*
X176699560Y-90612114D02*
X176682894Y-90626400D01*
X176682894Y-90626400D02*
X176649560Y-90640685D01*
X176649560Y-90640685D02*
X176516227Y-90640685D01*
X176516227Y-90640685D02*
X176516227Y-90340685D01*
X176516227Y-90340685D02*
X176632894Y-90340685D01*
X176632894Y-90340685D02*
X176666227Y-90354971D01*
X176666227Y-90354971D02*
X176682894Y-90369257D01*
X176682894Y-90369257D02*
X176699560Y-90397828D01*
X176699560Y-90397828D02*
X176699560Y-90426400D01*
X176699560Y-90426400D02*
X176682894Y-90454971D01*
X176682894Y-90454971D02*
X176666227Y-90469257D01*
X176666227Y-90469257D02*
X176632894Y-90483542D01*
X176632894Y-90483542D02*
X176516227Y-90483542D01*
X176166227Y-95440685D02*
X176166227Y-95140685D01*
X176166227Y-95140685D02*
X176299560Y-95140685D01*
X176299560Y-95140685D02*
X176332894Y-95154971D01*
X176332894Y-95154971D02*
X176349560Y-95169257D01*
X176349560Y-95169257D02*
X176366227Y-95197828D01*
X176366227Y-95197828D02*
X176366227Y-95240685D01*
X176366227Y-95240685D02*
X176349560Y-95269257D01*
X176349560Y-95269257D02*
X176332894Y-95283542D01*
X176332894Y-95283542D02*
X176299560Y-95297828D01*
X176299560Y-95297828D02*
X176166227Y-95297828D01*
X176516227Y-95440685D02*
X176516227Y-95140685D01*
X176716227Y-95440685D02*
X176566227Y-95269257D01*
X176716227Y-95140685D02*
X176516227Y-95312114D01*
X188120000Y-89440685D02*
X187920000Y-89440685D01*
X188020000Y-89440685D02*
X188020000Y-89140685D01*
X188020000Y-89140685D02*
X187986667Y-89183542D01*
X187986667Y-89183542D02*
X187953334Y-89212114D01*
X187953334Y-89212114D02*
X187920000Y-89226400D01*
X183926667Y-89240685D02*
X183926667Y-89440685D01*
X183843334Y-89126400D02*
X183760000Y-89340685D01*
X183760000Y-89340685D02*
X183976667Y-89340685D01*
X192809560Y-94816400D02*
X192859560Y-94830685D01*
X192859560Y-94830685D02*
X192942894Y-94830685D01*
X192942894Y-94830685D02*
X192976227Y-94816400D01*
X192976227Y-94816400D02*
X192992894Y-94802114D01*
X192992894Y-94802114D02*
X193009560Y-94773542D01*
X193009560Y-94773542D02*
X193009560Y-94744971D01*
X193009560Y-94744971D02*
X192992894Y-94716400D01*
X192992894Y-94716400D02*
X192976227Y-94702114D01*
X192976227Y-94702114D02*
X192942894Y-94687828D01*
X192942894Y-94687828D02*
X192876227Y-94673542D01*
X192876227Y-94673542D02*
X192842894Y-94659257D01*
X192842894Y-94659257D02*
X192826227Y-94644971D01*
X192826227Y-94644971D02*
X192809560Y-94616400D01*
X192809560Y-94616400D02*
X192809560Y-94587828D01*
X192809560Y-94587828D02*
X192826227Y-94559257D01*
X192826227Y-94559257D02*
X192842894Y-94544971D01*
X192842894Y-94544971D02*
X192876227Y-94530685D01*
X192876227Y-94530685D02*
X192959560Y-94530685D01*
X192959560Y-94530685D02*
X193009560Y-94544971D01*
X193259560Y-94530685D02*
X193259560Y-94744971D01*
X193259560Y-94744971D02*
X193242893Y-94787828D01*
X193242893Y-94787828D02*
X193209560Y-94816400D01*
X193209560Y-94816400D02*
X193159560Y-94830685D01*
X193159560Y-94830685D02*
X193126227Y-94830685D01*
X192809560Y-95416400D02*
X192859560Y-95430685D01*
X192859560Y-95430685D02*
X192942894Y-95430685D01*
X192942894Y-95430685D02*
X192976227Y-95416400D01*
X192976227Y-95416400D02*
X192992894Y-95402114D01*
X192992894Y-95402114D02*
X193009560Y-95373542D01*
X193009560Y-95373542D02*
X193009560Y-95344971D01*
X193009560Y-95344971D02*
X192992894Y-95316400D01*
X192992894Y-95316400D02*
X192976227Y-95302114D01*
X192976227Y-95302114D02*
X192942894Y-95287828D01*
X192942894Y-95287828D02*
X192876227Y-95273542D01*
X192876227Y-95273542D02*
X192842894Y-95259257D01*
X192842894Y-95259257D02*
X192826227Y-95244971D01*
X192826227Y-95244971D02*
X192809560Y-95216400D01*
X192809560Y-95216400D02*
X192809560Y-95187828D01*
X192809560Y-95187828D02*
X192826227Y-95159257D01*
X192826227Y-95159257D02*
X192842894Y-95144971D01*
X192842894Y-95144971D02*
X192876227Y-95130685D01*
X192876227Y-95130685D02*
X192959560Y-95130685D01*
X192959560Y-95130685D02*
X193009560Y-95144971D01*
X193159560Y-95430685D02*
X193159560Y-95130685D01*
X193359560Y-95430685D02*
X193209560Y-95259257D01*
X193359560Y-95130685D02*
X193159560Y-95302114D01*
X176166227Y-94240685D02*
X176166227Y-93940685D01*
X176166227Y-93940685D02*
X176299560Y-93940685D01*
X176299560Y-93940685D02*
X176332894Y-93954971D01*
X176332894Y-93954971D02*
X176349560Y-93969257D01*
X176349560Y-93969257D02*
X176366227Y-93997828D01*
X176366227Y-93997828D02*
X176366227Y-94040685D01*
X176366227Y-94040685D02*
X176349560Y-94069257D01*
X176349560Y-94069257D02*
X176332894Y-94083542D01*
X176332894Y-94083542D02*
X176299560Y-94097828D01*
X176299560Y-94097828D02*
X176166227Y-94097828D01*
X176516227Y-94240685D02*
X176516227Y-93940685D01*
X176516227Y-94083542D02*
X176716227Y-94083542D01*
X176716227Y-94240685D02*
X176716227Y-93940685D01*
X176166227Y-96040685D02*
X176166227Y-95740685D01*
X176166227Y-95740685D02*
X176299560Y-95740685D01*
X176299560Y-95740685D02*
X176332894Y-95754971D01*
X176332894Y-95754971D02*
X176349560Y-95769257D01*
X176349560Y-95769257D02*
X176366227Y-95797828D01*
X176366227Y-95797828D02*
X176366227Y-95840685D01*
X176366227Y-95840685D02*
X176349560Y-95869257D01*
X176349560Y-95869257D02*
X176332894Y-95883542D01*
X176332894Y-95883542D02*
X176299560Y-95897828D01*
X176299560Y-95897828D02*
X176166227Y-95897828D01*
X176682894Y-96040685D02*
X176516227Y-96040685D01*
X176516227Y-96040685D02*
X176516227Y-95740685D01*
X176166227Y-94840685D02*
X176166227Y-94540685D01*
X176166227Y-94540685D02*
X176299560Y-94540685D01*
X176299560Y-94540685D02*
X176332894Y-94554971D01*
X176332894Y-94554971D02*
X176349560Y-94569257D01*
X176349560Y-94569257D02*
X176366227Y-94597828D01*
X176366227Y-94597828D02*
X176366227Y-94640685D01*
X176366227Y-94640685D02*
X176349560Y-94669257D01*
X176349560Y-94669257D02*
X176332894Y-94683542D01*
X176332894Y-94683542D02*
X176299560Y-94697828D01*
X176299560Y-94697828D02*
X176166227Y-94697828D01*
X176616227Y-94540685D02*
X176616227Y-94754971D01*
X176616227Y-94754971D02*
X176599560Y-94797828D01*
X176599560Y-94797828D02*
X176566227Y-94826400D01*
X176566227Y-94826400D02*
X176516227Y-94840685D01*
X176516227Y-94840685D02*
X176482894Y-94840685D01*
X193886667Y-89259257D02*
X193853334Y-89244971D01*
X193853334Y-89244971D02*
X193836667Y-89230685D01*
X193836667Y-89230685D02*
X193820000Y-89202114D01*
X193820000Y-89202114D02*
X193820000Y-89187828D01*
X193820000Y-89187828D02*
X193836667Y-89159257D01*
X193836667Y-89159257D02*
X193853334Y-89144971D01*
X193853334Y-89144971D02*
X193886667Y-89130685D01*
X193886667Y-89130685D02*
X193953334Y-89130685D01*
X193953334Y-89130685D02*
X193986667Y-89144971D01*
X193986667Y-89144971D02*
X194003334Y-89159257D01*
X194003334Y-89159257D02*
X194020000Y-89187828D01*
X194020000Y-89187828D02*
X194020000Y-89202114D01*
X194020000Y-89202114D02*
X194003334Y-89230685D01*
X194003334Y-89230685D02*
X193986667Y-89244971D01*
X193986667Y-89244971D02*
X193953334Y-89259257D01*
X193953334Y-89259257D02*
X193886667Y-89259257D01*
X193886667Y-89259257D02*
X193853334Y-89273542D01*
X193853334Y-89273542D02*
X193836667Y-89287828D01*
X193836667Y-89287828D02*
X193820000Y-89316400D01*
X193820000Y-89316400D02*
X193820000Y-89373542D01*
X193820000Y-89373542D02*
X193836667Y-89402114D01*
X193836667Y-89402114D02*
X193853334Y-89416400D01*
X193853334Y-89416400D02*
X193886667Y-89430685D01*
X193886667Y-89430685D02*
X193953334Y-89430685D01*
X193953334Y-89430685D02*
X193986667Y-89416400D01*
X193986667Y-89416400D02*
X194003334Y-89402114D01*
X194003334Y-89402114D02*
X194020000Y-89373542D01*
X194020000Y-89373542D02*
X194020000Y-89316400D01*
X194020000Y-89316400D02*
X194003334Y-89287828D01*
X194003334Y-89287828D02*
X193986667Y-89273542D01*
X193986667Y-89273542D02*
X193953334Y-89259257D01*
X192809560Y-93016400D02*
X192859560Y-93030685D01*
X192859560Y-93030685D02*
X192942894Y-93030685D01*
X192942894Y-93030685D02*
X192976227Y-93016400D01*
X192976227Y-93016400D02*
X192992894Y-93002114D01*
X192992894Y-93002114D02*
X193009560Y-92973542D01*
X193009560Y-92973542D02*
X193009560Y-92944971D01*
X193009560Y-92944971D02*
X192992894Y-92916400D01*
X192992894Y-92916400D02*
X192976227Y-92902114D01*
X192976227Y-92902114D02*
X192942894Y-92887828D01*
X192942894Y-92887828D02*
X192876227Y-92873542D01*
X192876227Y-92873542D02*
X192842894Y-92859257D01*
X192842894Y-92859257D02*
X192826227Y-92844971D01*
X192826227Y-92844971D02*
X192809560Y-92816400D01*
X192809560Y-92816400D02*
X192809560Y-92787828D01*
X192809560Y-92787828D02*
X192826227Y-92759257D01*
X192826227Y-92759257D02*
X192842894Y-92744971D01*
X192842894Y-92744971D02*
X192876227Y-92730685D01*
X192876227Y-92730685D02*
X192959560Y-92730685D01*
X192959560Y-92730685D02*
X193009560Y-92744971D01*
X193276227Y-92873542D02*
X193159560Y-92873542D01*
X193159560Y-93030685D02*
X193159560Y-92730685D01*
X193159560Y-92730685D02*
X193326227Y-92730685D01*
X192809560Y-94216400D02*
X192859560Y-94230685D01*
X192859560Y-94230685D02*
X192942894Y-94230685D01*
X192942894Y-94230685D02*
X192976227Y-94216400D01*
X192976227Y-94216400D02*
X192992894Y-94202114D01*
X192992894Y-94202114D02*
X193009560Y-94173542D01*
X193009560Y-94173542D02*
X193009560Y-94144971D01*
X193009560Y-94144971D02*
X192992894Y-94116400D01*
X192992894Y-94116400D02*
X192976227Y-94102114D01*
X192976227Y-94102114D02*
X192942894Y-94087828D01*
X192942894Y-94087828D02*
X192876227Y-94073542D01*
X192876227Y-94073542D02*
X192842894Y-94059257D01*
X192842894Y-94059257D02*
X192826227Y-94044971D01*
X192826227Y-94044971D02*
X192809560Y-94016400D01*
X192809560Y-94016400D02*
X192809560Y-93987828D01*
X192809560Y-93987828D02*
X192826227Y-93959257D01*
X192826227Y-93959257D02*
X192842894Y-93944971D01*
X192842894Y-93944971D02*
X192876227Y-93930685D01*
X192876227Y-93930685D02*
X192959560Y-93930685D01*
X192959560Y-93930685D02*
X193009560Y-93944971D01*
X193159560Y-94230685D02*
X193159560Y-93930685D01*
X193159560Y-94073542D02*
X193359560Y-94073542D01*
X193359560Y-94230685D02*
X193359560Y-93930685D01*
X197286667Y-89130685D02*
X197220000Y-89130685D01*
X197220000Y-89130685D02*
X197186667Y-89144971D01*
X197186667Y-89144971D02*
X197170000Y-89159257D01*
X197170000Y-89159257D02*
X197136667Y-89202114D01*
X197136667Y-89202114D02*
X197120000Y-89259257D01*
X197120000Y-89259257D02*
X197120000Y-89373542D01*
X197120000Y-89373542D02*
X197136667Y-89402114D01*
X197136667Y-89402114D02*
X197153334Y-89416400D01*
X197153334Y-89416400D02*
X197186667Y-89430685D01*
X197186667Y-89430685D02*
X197253334Y-89430685D01*
X197253334Y-89430685D02*
X197286667Y-89416400D01*
X197286667Y-89416400D02*
X197303334Y-89402114D01*
X197303334Y-89402114D02*
X197320000Y-89373542D01*
X197320000Y-89373542D02*
X197320000Y-89302114D01*
X197320000Y-89302114D02*
X197303334Y-89273542D01*
X197303334Y-89273542D02*
X197286667Y-89259257D01*
X197286667Y-89259257D02*
X197253334Y-89244971D01*
X197253334Y-89244971D02*
X197186667Y-89244971D01*
X197186667Y-89244971D02*
X197153334Y-89259257D01*
X197153334Y-89259257D02*
X197136667Y-89273542D01*
X197136667Y-89273542D02*
X197120000Y-89302114D01*
X177226667Y-89269257D02*
X177193334Y-89254971D01*
X177193334Y-89254971D02*
X177176667Y-89240685D01*
X177176667Y-89240685D02*
X177160000Y-89212114D01*
X177160000Y-89212114D02*
X177160000Y-89197828D01*
X177160000Y-89197828D02*
X177176667Y-89169257D01*
X177176667Y-89169257D02*
X177193334Y-89154971D01*
X177193334Y-89154971D02*
X177226667Y-89140685D01*
X177226667Y-89140685D02*
X177293334Y-89140685D01*
X177293334Y-89140685D02*
X177326667Y-89154971D01*
X177326667Y-89154971D02*
X177343334Y-89169257D01*
X177343334Y-89169257D02*
X177360000Y-89197828D01*
X177360000Y-89197828D02*
X177360000Y-89212114D01*
X177360000Y-89212114D02*
X177343334Y-89240685D01*
X177343334Y-89240685D02*
X177326667Y-89254971D01*
X177326667Y-89254971D02*
X177293334Y-89269257D01*
X177293334Y-89269257D02*
X177226667Y-89269257D01*
X177226667Y-89269257D02*
X177193334Y-89283542D01*
X177193334Y-89283542D02*
X177176667Y-89297828D01*
X177176667Y-89297828D02*
X177160000Y-89326400D01*
X177160000Y-89326400D02*
X177160000Y-89383542D01*
X177160000Y-89383542D02*
X177176667Y-89412114D01*
X177176667Y-89412114D02*
X177193334Y-89426400D01*
X177193334Y-89426400D02*
X177226667Y-89440685D01*
X177226667Y-89440685D02*
X177293334Y-89440685D01*
X177293334Y-89440685D02*
X177326667Y-89426400D01*
X177326667Y-89426400D02*
X177343334Y-89412114D01*
X177343334Y-89412114D02*
X177360000Y-89383542D01*
X177360000Y-89383542D02*
X177360000Y-89326400D01*
X177360000Y-89326400D02*
X177343334Y-89297828D01*
X177343334Y-89297828D02*
X177326667Y-89283542D01*
X177326667Y-89283542D02*
X177293334Y-89269257D01*
X204780000Y-89430685D02*
X204580000Y-89430685D01*
X204680000Y-89430685D02*
X204680000Y-89130685D01*
X204680000Y-89130685D02*
X204646667Y-89173542D01*
X204646667Y-89173542D02*
X204613334Y-89202114D01*
X204613334Y-89202114D02*
X204580000Y-89216400D01*
X203720000Y-89159257D02*
X203736667Y-89144971D01*
X203736667Y-89144971D02*
X203770000Y-89130685D01*
X203770000Y-89130685D02*
X203853334Y-89130685D01*
X203853334Y-89130685D02*
X203886667Y-89144971D01*
X203886667Y-89144971D02*
X203903334Y-89159257D01*
X203903334Y-89159257D02*
X203920000Y-89187828D01*
X203920000Y-89187828D02*
X203920000Y-89216400D01*
X203920000Y-89216400D02*
X203903334Y-89259257D01*
X203903334Y-89259257D02*
X203703334Y-89430685D01*
X203703334Y-89430685D02*
X203920000Y-89430685D01*
X192809560Y-91216400D02*
X192859560Y-91230685D01*
X192859560Y-91230685D02*
X192942894Y-91230685D01*
X192942894Y-91230685D02*
X192976227Y-91216400D01*
X192976227Y-91216400D02*
X192992894Y-91202114D01*
X192992894Y-91202114D02*
X193009560Y-91173542D01*
X193009560Y-91173542D02*
X193009560Y-91144971D01*
X193009560Y-91144971D02*
X192992894Y-91116400D01*
X192992894Y-91116400D02*
X192976227Y-91102114D01*
X192976227Y-91102114D02*
X192942894Y-91087828D01*
X192942894Y-91087828D02*
X192876227Y-91073542D01*
X192876227Y-91073542D02*
X192842894Y-91059257D01*
X192842894Y-91059257D02*
X192826227Y-91044971D01*
X192826227Y-91044971D02*
X192809560Y-91016400D01*
X192809560Y-91016400D02*
X192809560Y-90987828D01*
X192809560Y-90987828D02*
X192826227Y-90959257D01*
X192826227Y-90959257D02*
X192842894Y-90944971D01*
X192842894Y-90944971D02*
X192876227Y-90930685D01*
X192876227Y-90930685D02*
X192959560Y-90930685D01*
X192959560Y-90930685D02*
X193009560Y-90944971D01*
X193359560Y-91202114D02*
X193342893Y-91216400D01*
X193342893Y-91216400D02*
X193292893Y-91230685D01*
X193292893Y-91230685D02*
X193259560Y-91230685D01*
X193259560Y-91230685D02*
X193209560Y-91216400D01*
X193209560Y-91216400D02*
X193176227Y-91187828D01*
X193176227Y-91187828D02*
X193159560Y-91159257D01*
X193159560Y-91159257D02*
X193142893Y-91102114D01*
X193142893Y-91102114D02*
X193142893Y-91059257D01*
X193142893Y-91059257D02*
X193159560Y-91002114D01*
X193159560Y-91002114D02*
X193176227Y-90973542D01*
X193176227Y-90973542D02*
X193209560Y-90944971D01*
X193209560Y-90944971D02*
X193259560Y-90930685D01*
X193259560Y-90930685D02*
X193292893Y-90930685D01*
X193292893Y-90930685D02*
X193342893Y-90944971D01*
X193342893Y-90944971D02*
X193359560Y-90959257D01*
X192809560Y-92416400D02*
X192859560Y-92430685D01*
X192859560Y-92430685D02*
X192942894Y-92430685D01*
X192942894Y-92430685D02*
X192976227Y-92416400D01*
X192976227Y-92416400D02*
X192992894Y-92402114D01*
X192992894Y-92402114D02*
X193009560Y-92373542D01*
X193009560Y-92373542D02*
X193009560Y-92344971D01*
X193009560Y-92344971D02*
X192992894Y-92316400D01*
X192992894Y-92316400D02*
X192976227Y-92302114D01*
X192976227Y-92302114D02*
X192942894Y-92287828D01*
X192942894Y-92287828D02*
X192876227Y-92273542D01*
X192876227Y-92273542D02*
X192842894Y-92259257D01*
X192842894Y-92259257D02*
X192826227Y-92244971D01*
X192826227Y-92244971D02*
X192809560Y-92216400D01*
X192809560Y-92216400D02*
X192809560Y-92187828D01*
X192809560Y-92187828D02*
X192826227Y-92159257D01*
X192826227Y-92159257D02*
X192842894Y-92144971D01*
X192842894Y-92144971D02*
X192876227Y-92130685D01*
X192876227Y-92130685D02*
X192959560Y-92130685D01*
X192959560Y-92130685D02*
X193009560Y-92144971D01*
X193159560Y-92273542D02*
X193276227Y-92273542D01*
X193326227Y-92430685D02*
X193159560Y-92430685D01*
X193159560Y-92430685D02*
X193159560Y-92130685D01*
X193159560Y-92130685D02*
X193326227Y-92130685D01*
X201263334Y-89130685D02*
X201480000Y-89130685D01*
X201480000Y-89130685D02*
X201363334Y-89244971D01*
X201363334Y-89244971D02*
X201413334Y-89244971D01*
X201413334Y-89244971D02*
X201446667Y-89259257D01*
X201446667Y-89259257D02*
X201463334Y-89273542D01*
X201463334Y-89273542D02*
X201480000Y-89302114D01*
X201480000Y-89302114D02*
X201480000Y-89373542D01*
X201480000Y-89373542D02*
X201463334Y-89402114D01*
X201463334Y-89402114D02*
X201446667Y-89416400D01*
X201446667Y-89416400D02*
X201413334Y-89430685D01*
X201413334Y-89430685D02*
X201313334Y-89430685D01*
X201313334Y-89430685D02*
X201280000Y-89416400D01*
X201280000Y-89416400D02*
X201263334Y-89402114D01*
X176166227Y-92440685D02*
X176166227Y-92140685D01*
X176166227Y-92140685D02*
X176299560Y-92140685D01*
X176299560Y-92140685D02*
X176332894Y-92154971D01*
X176332894Y-92154971D02*
X176349560Y-92169257D01*
X176349560Y-92169257D02*
X176366227Y-92197828D01*
X176366227Y-92197828D02*
X176366227Y-92240685D01*
X176366227Y-92240685D02*
X176349560Y-92269257D01*
X176349560Y-92269257D02*
X176332894Y-92283542D01*
X176332894Y-92283542D02*
X176299560Y-92297828D01*
X176299560Y-92297828D02*
X176166227Y-92297828D01*
X176516227Y-92283542D02*
X176632894Y-92283542D01*
X176682894Y-92440685D02*
X176516227Y-92440685D01*
X176516227Y-92440685D02*
X176516227Y-92140685D01*
X176516227Y-92140685D02*
X176682894Y-92140685D01*
X181503334Y-89140685D02*
X181336667Y-89140685D01*
X181336667Y-89140685D02*
X181320000Y-89283542D01*
X181320000Y-89283542D02*
X181336667Y-89269257D01*
X181336667Y-89269257D02*
X181370000Y-89254971D01*
X181370000Y-89254971D02*
X181453334Y-89254971D01*
X181453334Y-89254971D02*
X181486667Y-89269257D01*
X181486667Y-89269257D02*
X181503334Y-89283542D01*
X181503334Y-89283542D02*
X181520000Y-89312114D01*
X181520000Y-89312114D02*
X181520000Y-89383542D01*
X181520000Y-89383542D02*
X181503334Y-89412114D01*
X181503334Y-89412114D02*
X181486667Y-89426400D01*
X181486667Y-89426400D02*
X181453334Y-89440685D01*
X181453334Y-89440685D02*
X181370000Y-89440685D01*
X181370000Y-89440685D02*
X181336667Y-89426400D01*
X181336667Y-89426400D02*
X181320000Y-89412114D01*
X176166227Y-91240685D02*
X176166227Y-90940685D01*
X176166227Y-90940685D02*
X176299560Y-90940685D01*
X176299560Y-90940685D02*
X176332894Y-90954971D01*
X176332894Y-90954971D02*
X176349560Y-90969257D01*
X176349560Y-90969257D02*
X176366227Y-90997828D01*
X176366227Y-90997828D02*
X176366227Y-91040685D01*
X176366227Y-91040685D02*
X176349560Y-91069257D01*
X176349560Y-91069257D02*
X176332894Y-91083542D01*
X176332894Y-91083542D02*
X176299560Y-91097828D01*
X176299560Y-91097828D02*
X176166227Y-91097828D01*
X176716227Y-91212114D02*
X176699560Y-91226400D01*
X176699560Y-91226400D02*
X176649560Y-91240685D01*
X176649560Y-91240685D02*
X176616227Y-91240685D01*
X176616227Y-91240685D02*
X176566227Y-91226400D01*
X176566227Y-91226400D02*
X176532894Y-91197828D01*
X176532894Y-91197828D02*
X176516227Y-91169257D01*
X176516227Y-91169257D02*
X176499560Y-91112114D01*
X176499560Y-91112114D02*
X176499560Y-91069257D01*
X176499560Y-91069257D02*
X176516227Y-91012114D01*
X176516227Y-91012114D02*
X176532894Y-90983542D01*
X176532894Y-90983542D02*
X176566227Y-90954971D01*
X176566227Y-90954971D02*
X176616227Y-90940685D01*
X176616227Y-90940685D02*
X176649560Y-90940685D01*
X176649560Y-90940685D02*
X176699560Y-90954971D01*
X176699560Y-90954971D02*
X176716227Y-90969257D01*
X176166227Y-93040685D02*
X176166227Y-92740685D01*
X176166227Y-92740685D02*
X176299560Y-92740685D01*
X176299560Y-92740685D02*
X176332894Y-92754971D01*
X176332894Y-92754971D02*
X176349560Y-92769257D01*
X176349560Y-92769257D02*
X176366227Y-92797828D01*
X176366227Y-92797828D02*
X176366227Y-92840685D01*
X176366227Y-92840685D02*
X176349560Y-92869257D01*
X176349560Y-92869257D02*
X176332894Y-92883542D01*
X176332894Y-92883542D02*
X176299560Y-92897828D01*
X176299560Y-92897828D02*
X176166227Y-92897828D01*
X176632894Y-92883542D02*
X176516227Y-92883542D01*
X176516227Y-93040685D02*
X176516227Y-92740685D01*
X176516227Y-92740685D02*
X176682894Y-92740685D01*
X176166227Y-90040685D02*
X176166227Y-89740685D01*
X176166227Y-89740685D02*
X176299560Y-89740685D01*
X176299560Y-89740685D02*
X176332894Y-89754971D01*
X176332894Y-89754971D02*
X176349560Y-89769257D01*
X176349560Y-89769257D02*
X176366227Y-89797828D01*
X176366227Y-89797828D02*
X176366227Y-89840685D01*
X176366227Y-89840685D02*
X176349560Y-89869257D01*
X176349560Y-89869257D02*
X176332894Y-89883542D01*
X176332894Y-89883542D02*
X176299560Y-89897828D01*
X176299560Y-89897828D02*
X176166227Y-89897828D01*
X176499560Y-89954971D02*
X176666227Y-89954971D01*
X176466227Y-90040685D02*
X176582894Y-89740685D01*
X176582894Y-89740685D02*
X176699560Y-90040685D01*
X187060000Y-89169257D02*
X187076667Y-89154971D01*
X187076667Y-89154971D02*
X187110000Y-89140685D01*
X187110000Y-89140685D02*
X187193334Y-89140685D01*
X187193334Y-89140685D02*
X187226667Y-89154971D01*
X187226667Y-89154971D02*
X187243334Y-89169257D01*
X187243334Y-89169257D02*
X187260000Y-89197828D01*
X187260000Y-89197828D02*
X187260000Y-89226400D01*
X187260000Y-89226400D02*
X187243334Y-89269257D01*
X187243334Y-89269257D02*
X187043334Y-89440685D01*
X187043334Y-89440685D02*
X187260000Y-89440685D01*
X192809560Y-90016400D02*
X192859560Y-90030685D01*
X192859560Y-90030685D02*
X192942894Y-90030685D01*
X192942894Y-90030685D02*
X192976227Y-90016400D01*
X192976227Y-90016400D02*
X192992894Y-90002114D01*
X192992894Y-90002114D02*
X193009560Y-89973542D01*
X193009560Y-89973542D02*
X193009560Y-89944971D01*
X193009560Y-89944971D02*
X192992894Y-89916400D01*
X192992894Y-89916400D02*
X192976227Y-89902114D01*
X192976227Y-89902114D02*
X192942894Y-89887828D01*
X192942894Y-89887828D02*
X192876227Y-89873542D01*
X192876227Y-89873542D02*
X192842894Y-89859257D01*
X192842894Y-89859257D02*
X192826227Y-89844971D01*
X192826227Y-89844971D02*
X192809560Y-89816400D01*
X192809560Y-89816400D02*
X192809560Y-89787828D01*
X192809560Y-89787828D02*
X192826227Y-89759257D01*
X192826227Y-89759257D02*
X192842894Y-89744971D01*
X192842894Y-89744971D02*
X192876227Y-89730685D01*
X192876227Y-89730685D02*
X192959560Y-89730685D01*
X192959560Y-89730685D02*
X193009560Y-89744971D01*
X193142893Y-89944971D02*
X193309560Y-89944971D01*
X193109560Y-90030685D02*
X193226227Y-89730685D01*
X193226227Y-89730685D02*
X193342893Y-90030685D01*
X178003334Y-89140685D02*
X178236667Y-89140685D01*
X178236667Y-89140685D02*
X178086667Y-89440685D01*
X200586667Y-89230685D02*
X200586667Y-89430685D01*
X200503334Y-89116400D02*
X200420000Y-89330685D01*
X200420000Y-89330685D02*
X200636667Y-89330685D01*
X176166227Y-93640685D02*
X176166227Y-93340685D01*
X176166227Y-93340685D02*
X176299560Y-93340685D01*
X176299560Y-93340685D02*
X176332894Y-93354971D01*
X176332894Y-93354971D02*
X176349560Y-93369257D01*
X176349560Y-93369257D02*
X176366227Y-93397828D01*
X176366227Y-93397828D02*
X176366227Y-93440685D01*
X176366227Y-93440685D02*
X176349560Y-93469257D01*
X176349560Y-93469257D02*
X176332894Y-93483542D01*
X176332894Y-93483542D02*
X176299560Y-93497828D01*
X176299560Y-93497828D02*
X176166227Y-93497828D01*
X176699560Y-93354971D02*
X176666227Y-93340685D01*
X176666227Y-93340685D02*
X176616227Y-93340685D01*
X176616227Y-93340685D02*
X176566227Y-93354971D01*
X176566227Y-93354971D02*
X176532894Y-93383542D01*
X176532894Y-93383542D02*
X176516227Y-93412114D01*
X176516227Y-93412114D02*
X176499560Y-93469257D01*
X176499560Y-93469257D02*
X176499560Y-93512114D01*
X176499560Y-93512114D02*
X176516227Y-93569257D01*
X176516227Y-93569257D02*
X176532894Y-93597828D01*
X176532894Y-93597828D02*
X176566227Y-93626400D01*
X176566227Y-93626400D02*
X176616227Y-93640685D01*
X176616227Y-93640685D02*
X176649560Y-93640685D01*
X176649560Y-93640685D02*
X176699560Y-93626400D01*
X176699560Y-93626400D02*
X176716227Y-93612114D01*
X176716227Y-93612114D02*
X176716227Y-93512114D01*
X176716227Y-93512114D02*
X176649560Y-93512114D01*
X184603334Y-89140685D02*
X184820000Y-89140685D01*
X184820000Y-89140685D02*
X184703334Y-89254971D01*
X184703334Y-89254971D02*
X184753334Y-89254971D01*
X184753334Y-89254971D02*
X184786667Y-89269257D01*
X184786667Y-89269257D02*
X184803334Y-89283542D01*
X184803334Y-89283542D02*
X184820000Y-89312114D01*
X184820000Y-89312114D02*
X184820000Y-89383542D01*
X184820000Y-89383542D02*
X184803334Y-89412114D01*
X184803334Y-89412114D02*
X184786667Y-89426400D01*
X184786667Y-89426400D02*
X184753334Y-89440685D01*
X184753334Y-89440685D02*
X184653334Y-89440685D01*
X184653334Y-89440685D02*
X184620000Y-89426400D01*
X184620000Y-89426400D02*
X184603334Y-89412114D01*
X192809560Y-93616400D02*
X192859560Y-93630685D01*
X192859560Y-93630685D02*
X192942894Y-93630685D01*
X192942894Y-93630685D02*
X192976227Y-93616400D01*
X192976227Y-93616400D02*
X192992894Y-93602114D01*
X192992894Y-93602114D02*
X193009560Y-93573542D01*
X193009560Y-93573542D02*
X193009560Y-93544971D01*
X193009560Y-93544971D02*
X192992894Y-93516400D01*
X192992894Y-93516400D02*
X192976227Y-93502114D01*
X192976227Y-93502114D02*
X192942894Y-93487828D01*
X192942894Y-93487828D02*
X192876227Y-93473542D01*
X192876227Y-93473542D02*
X192842894Y-93459257D01*
X192842894Y-93459257D02*
X192826227Y-93444971D01*
X192826227Y-93444971D02*
X192809560Y-93416400D01*
X192809560Y-93416400D02*
X192809560Y-93387828D01*
X192809560Y-93387828D02*
X192826227Y-93359257D01*
X192826227Y-93359257D02*
X192842894Y-93344971D01*
X192842894Y-93344971D02*
X192876227Y-93330685D01*
X192876227Y-93330685D02*
X192959560Y-93330685D01*
X192959560Y-93330685D02*
X193009560Y-93344971D01*
X193342893Y-93344971D02*
X193309560Y-93330685D01*
X193309560Y-93330685D02*
X193259560Y-93330685D01*
X193259560Y-93330685D02*
X193209560Y-93344971D01*
X193209560Y-93344971D02*
X193176227Y-93373542D01*
X193176227Y-93373542D02*
X193159560Y-93402114D01*
X193159560Y-93402114D02*
X193142893Y-93459257D01*
X193142893Y-93459257D02*
X193142893Y-93502114D01*
X193142893Y-93502114D02*
X193159560Y-93559257D01*
X193159560Y-93559257D02*
X193176227Y-93587828D01*
X193176227Y-93587828D02*
X193209560Y-93616400D01*
X193209560Y-93616400D02*
X193259560Y-93630685D01*
X193259560Y-93630685D02*
X193292893Y-93630685D01*
X193292893Y-93630685D02*
X193342893Y-93616400D01*
X193342893Y-93616400D02*
X193359560Y-93602114D01*
X193359560Y-93602114D02*
X193359560Y-93502114D01*
X193359560Y-93502114D02*
X193292893Y-93502114D01*
X192809560Y-91816400D02*
X192859560Y-91830685D01*
X192859560Y-91830685D02*
X192942894Y-91830685D01*
X192942894Y-91830685D02*
X192976227Y-91816400D01*
X192976227Y-91816400D02*
X192992894Y-91802114D01*
X192992894Y-91802114D02*
X193009560Y-91773542D01*
X193009560Y-91773542D02*
X193009560Y-91744971D01*
X193009560Y-91744971D02*
X192992894Y-91716400D01*
X192992894Y-91716400D02*
X192976227Y-91702114D01*
X192976227Y-91702114D02*
X192942894Y-91687828D01*
X192942894Y-91687828D02*
X192876227Y-91673542D01*
X192876227Y-91673542D02*
X192842894Y-91659257D01*
X192842894Y-91659257D02*
X192826227Y-91644971D01*
X192826227Y-91644971D02*
X192809560Y-91616400D01*
X192809560Y-91616400D02*
X192809560Y-91587828D01*
X192809560Y-91587828D02*
X192826227Y-91559257D01*
X192826227Y-91559257D02*
X192842894Y-91544971D01*
X192842894Y-91544971D02*
X192876227Y-91530685D01*
X192876227Y-91530685D02*
X192959560Y-91530685D01*
X192959560Y-91530685D02*
X193009560Y-91544971D01*
X193159560Y-91830685D02*
X193159560Y-91530685D01*
X193159560Y-91530685D02*
X193242893Y-91530685D01*
X193242893Y-91530685D02*
X193292893Y-91544971D01*
X193292893Y-91544971D02*
X193326227Y-91573542D01*
X193326227Y-91573542D02*
X193342893Y-91602114D01*
X193342893Y-91602114D02*
X193359560Y-91659257D01*
X193359560Y-91659257D02*
X193359560Y-91702114D01*
X193359560Y-91702114D02*
X193342893Y-91759257D01*
X193342893Y-91759257D02*
X193326227Y-91787828D01*
X193326227Y-91787828D02*
X193292893Y-91816400D01*
X193292893Y-91816400D02*
X193242893Y-91830685D01*
X193242893Y-91830685D02*
X193159560Y-91830685D01*
X194663334Y-89130685D02*
X194896667Y-89130685D01*
X194896667Y-89130685D02*
X194746667Y-89430685D01*
X192809560Y-96016400D02*
X192859560Y-96030685D01*
X192859560Y-96030685D02*
X192942894Y-96030685D01*
X192942894Y-96030685D02*
X192976227Y-96016400D01*
X192976227Y-96016400D02*
X192992894Y-96002114D01*
X192992894Y-96002114D02*
X193009560Y-95973542D01*
X193009560Y-95973542D02*
X193009560Y-95944971D01*
X193009560Y-95944971D02*
X192992894Y-95916400D01*
X192992894Y-95916400D02*
X192976227Y-95902114D01*
X192976227Y-95902114D02*
X192942894Y-95887828D01*
X192942894Y-95887828D02*
X192876227Y-95873542D01*
X192876227Y-95873542D02*
X192842894Y-95859257D01*
X192842894Y-95859257D02*
X192826227Y-95844971D01*
X192826227Y-95844971D02*
X192809560Y-95816400D01*
X192809560Y-95816400D02*
X192809560Y-95787828D01*
X192809560Y-95787828D02*
X192826227Y-95759257D01*
X192826227Y-95759257D02*
X192842894Y-95744971D01*
X192842894Y-95744971D02*
X192876227Y-95730685D01*
X192876227Y-95730685D02*
X192959560Y-95730685D01*
X192959560Y-95730685D02*
X193009560Y-95744971D01*
X193326227Y-96030685D02*
X193159560Y-96030685D01*
X193159560Y-96030685D02*
X193159560Y-95730685D01*
X180626667Y-89140685D02*
X180560000Y-89140685D01*
X180560000Y-89140685D02*
X180526667Y-89154971D01*
X180526667Y-89154971D02*
X180510000Y-89169257D01*
X180510000Y-89169257D02*
X180476667Y-89212114D01*
X180476667Y-89212114D02*
X180460000Y-89269257D01*
X180460000Y-89269257D02*
X180460000Y-89383542D01*
X180460000Y-89383542D02*
X180476667Y-89412114D01*
X180476667Y-89412114D02*
X180493334Y-89426400D01*
X180493334Y-89426400D02*
X180526667Y-89440685D01*
X180526667Y-89440685D02*
X180593334Y-89440685D01*
X180593334Y-89440685D02*
X180626667Y-89426400D01*
X180626667Y-89426400D02*
X180643334Y-89412114D01*
X180643334Y-89412114D02*
X180660000Y-89383542D01*
X180660000Y-89383542D02*
X180660000Y-89312114D01*
X180660000Y-89312114D02*
X180643334Y-89283542D01*
X180643334Y-89283542D02*
X180626667Y-89269257D01*
X180626667Y-89269257D02*
X180593334Y-89254971D01*
X180593334Y-89254971D02*
X180526667Y-89254971D01*
X180526667Y-89254971D02*
X180493334Y-89269257D01*
X180493334Y-89269257D02*
X180476667Y-89283542D01*
X180476667Y-89283542D02*
X180460000Y-89312114D01*
X176166227Y-91840685D02*
X176166227Y-91540685D01*
X176166227Y-91540685D02*
X176299560Y-91540685D01*
X176299560Y-91540685D02*
X176332894Y-91554971D01*
X176332894Y-91554971D02*
X176349560Y-91569257D01*
X176349560Y-91569257D02*
X176366227Y-91597828D01*
X176366227Y-91597828D02*
X176366227Y-91640685D01*
X176366227Y-91640685D02*
X176349560Y-91669257D01*
X176349560Y-91669257D02*
X176332894Y-91683542D01*
X176332894Y-91683542D02*
X176299560Y-91697828D01*
X176299560Y-91697828D02*
X176166227Y-91697828D01*
X176516227Y-91840685D02*
X176516227Y-91540685D01*
X176516227Y-91540685D02*
X176599560Y-91540685D01*
X176599560Y-91540685D02*
X176649560Y-91554971D01*
X176649560Y-91554971D02*
X176682894Y-91583542D01*
X176682894Y-91583542D02*
X176699560Y-91612114D01*
X176699560Y-91612114D02*
X176716227Y-91669257D01*
X176716227Y-91669257D02*
X176716227Y-91712114D01*
X176716227Y-91712114D02*
X176699560Y-91769257D01*
X176699560Y-91769257D02*
X176682894Y-91797828D01*
X176682894Y-91797828D02*
X176649560Y-91826400D01*
X176649560Y-91826400D02*
X176599560Y-91840685D01*
X176599560Y-91840685D02*
X176516227Y-91840685D01*
X198163334Y-89130685D02*
X197996667Y-89130685D01*
X197996667Y-89130685D02*
X197980000Y-89273542D01*
X197980000Y-89273542D02*
X197996667Y-89259257D01*
X197996667Y-89259257D02*
X198030000Y-89244971D01*
X198030000Y-89244971D02*
X198113334Y-89244971D01*
X198113334Y-89244971D02*
X198146667Y-89259257D01*
X198146667Y-89259257D02*
X198163334Y-89273542D01*
X198163334Y-89273542D02*
X198180000Y-89302114D01*
X198180000Y-89302114D02*
X198180000Y-89373542D01*
X198180000Y-89373542D02*
X198163334Y-89402114D01*
X198163334Y-89402114D02*
X198146667Y-89416400D01*
X198146667Y-89416400D02*
X198113334Y-89430685D01*
X198113334Y-89430685D02*
X198030000Y-89430685D01*
X198030000Y-89430685D02*
X197996667Y-89416400D01*
X197996667Y-89416400D02*
X197980000Y-89402114D01*
X192809560Y-90616400D02*
X192859560Y-90630685D01*
X192859560Y-90630685D02*
X192942894Y-90630685D01*
X192942894Y-90630685D02*
X192976227Y-90616400D01*
X192976227Y-90616400D02*
X192992894Y-90602114D01*
X192992894Y-90602114D02*
X193009560Y-90573542D01*
X193009560Y-90573542D02*
X193009560Y-90544971D01*
X193009560Y-90544971D02*
X192992894Y-90516400D01*
X192992894Y-90516400D02*
X192976227Y-90502114D01*
X192976227Y-90502114D02*
X192942894Y-90487828D01*
X192942894Y-90487828D02*
X192876227Y-90473542D01*
X192876227Y-90473542D02*
X192842894Y-90459257D01*
X192842894Y-90459257D02*
X192826227Y-90444971D01*
X192826227Y-90444971D02*
X192809560Y-90416400D01*
X192809560Y-90416400D02*
X192809560Y-90387828D01*
X192809560Y-90387828D02*
X192826227Y-90359257D01*
X192826227Y-90359257D02*
X192842894Y-90344971D01*
X192842894Y-90344971D02*
X192876227Y-90330685D01*
X192876227Y-90330685D02*
X192959560Y-90330685D01*
X192959560Y-90330685D02*
X193009560Y-90344971D01*
X193276227Y-90473542D02*
X193326227Y-90487828D01*
X193326227Y-90487828D02*
X193342893Y-90502114D01*
X193342893Y-90502114D02*
X193359560Y-90530685D01*
X193359560Y-90530685D02*
X193359560Y-90573542D01*
X193359560Y-90573542D02*
X193342893Y-90602114D01*
X193342893Y-90602114D02*
X193326227Y-90616400D01*
X193326227Y-90616400D02*
X193292893Y-90630685D01*
X193292893Y-90630685D02*
X193159560Y-90630685D01*
X193159560Y-90630685D02*
X193159560Y-90330685D01*
X193159560Y-90330685D02*
X193276227Y-90330685D01*
X193276227Y-90330685D02*
X193309560Y-90344971D01*
X193309560Y-90344971D02*
X193326227Y-90359257D01*
X193326227Y-90359257D02*
X193342893Y-90387828D01*
X193342893Y-90387828D02*
X193342893Y-90416400D01*
X193342893Y-90416400D02*
X193326227Y-90444971D01*
X193326227Y-90444971D02*
X193309560Y-90459257D01*
X193309560Y-90459257D02*
X193276227Y-90473542D01*
X193276227Y-90473542D02*
X193159560Y-90473542D01*
D12*
%TO.C,REF\u002A\u002A*%
X140280000Y-80750000D02*
X140280000Y-82550000D01*
X140280000Y-80750000D02*
X144580000Y-80750000D01*
X144580000Y-82550000D02*
X140280000Y-82550000D01*
X144580000Y-82550000D02*
X144580000Y-80750000D01*
X151425000Y-51010000D02*
X149625000Y-51010000D01*
X151425000Y-51010000D02*
X151425000Y-55310000D01*
X149625000Y-55310000D02*
X149625000Y-51010000D01*
X149625000Y-55310000D02*
X151425000Y-55310000D01*
X151420000Y-55590000D02*
X149620000Y-55590000D01*
X151420000Y-55590000D02*
X151420000Y-59890000D01*
X149620000Y-59890000D02*
X149620000Y-55590000D01*
X149620000Y-59890000D02*
X151420000Y-59890000D01*
X146620000Y-55485000D02*
X144820000Y-55485000D01*
X146620000Y-55485000D02*
X146620000Y-59785000D01*
X144820000Y-59785000D02*
X144820000Y-55485000D01*
X144820000Y-59785000D02*
X146620000Y-59785000D01*
X146625000Y-50905000D02*
X144825000Y-50905000D01*
X146625000Y-50905000D02*
X146625000Y-55205000D01*
X144825000Y-55205000D02*
X144825000Y-50905000D01*
X144825000Y-55205000D02*
X146625000Y-55205000D01*
X134775000Y-67075000D02*
G75*
G02*
X132875000Y-67075000I-950000J0D01*
G01*
X132875000Y-67075000D02*
G75*
G02*
X134775000Y-67075000I950000J0D01*
G01*
X134875000Y-74775000D02*
G75*
G02*
X132975000Y-74775000I-950000J0D01*
G01*
X132975000Y-74775000D02*
G75*
G02*
X134875000Y-74775000I950000J0D01*
G01*
X134825000Y-78625000D02*
G75*
G02*
X132925000Y-78625000I-950000J0D01*
G01*
X132925000Y-78625000D02*
G75*
G02*
X134825000Y-78625000I950000J0D01*
G01*
X134825000Y-70675000D02*
G75*
G02*
X132925000Y-70675000I-950000J0D01*
G01*
X132925000Y-70675000D02*
G75*
G02*
X134825000Y-70675000I950000J0D01*
G01*
X136000000Y-57100000D02*
G75*
G02*
X131500000Y-57100000I-2250000J0D01*
G01*
X131500000Y-57100000D02*
G75*
G02*
X136000000Y-57100000I2250000J0D01*
G01*
X139850000Y-49300000D02*
G75*
G02*
X137950000Y-49300000I-950000J0D01*
G01*
X137950000Y-49300000D02*
G75*
G02*
X139850000Y-49300000I950000J0D01*
G01*
X136000000Y-49200000D02*
G75*
G02*
X131500000Y-49200000I-2250000J0D01*
G01*
X131500000Y-49200000D02*
G75*
G02*
X136000000Y-49200000I2250000J0D01*
G01*
D13*
%TO.C,J2*%
X140800000Y-26400000D02*
X140800000Y-27280000D01*
X140800000Y-31920000D02*
X140800000Y-42000000D01*
X140800000Y-42000000D02*
X143205000Y-42000000D01*
X227395000Y-42000000D02*
X229800000Y-42000000D01*
X229800000Y-26400000D02*
X229800000Y-27280000D01*
X229800000Y-42000000D02*
X229800000Y-34970000D01*
D14*
X140133000Y-35727000D02*
G75*
G02*
X139933000Y-35727000I-100000J0D01*
G01*
X139933000Y-35727000D02*
G75*
G02*
X140133000Y-35727000I100000J0D01*
G01*
%TO.C,R3*%
D10*
X142600000Y-45250000D02*
X141600000Y-45250000D01*
X141600000Y-47050000D01*
X142600000Y-47050000D01*
X142600000Y-45250000D01*
%TO.C,R7*%
X198800000Y-87000000D02*
X200600000Y-87000000D01*
X200600000Y-88000000D01*
X198800000Y-88000000D01*
X198800000Y-87000000D01*
%TO.C,R2*%
X152600000Y-45000000D02*
X154400000Y-45000000D01*
X154400000Y-46000000D01*
X152600000Y-46000000D01*
X152600000Y-45000000D01*
%TO.C,R5*%
X140850000Y-45250000D02*
X139850000Y-45250000D01*
X139850000Y-47050000D01*
X140850000Y-47050000D01*
X140850000Y-45250000D01*
%TO.C,J1*%
X192250000Y-87700000D02*
X206350000Y-87700000D01*
X206350000Y-97800000D01*
X192250000Y-97800000D01*
X192250000Y-87700000D01*
X175600000Y-87700000D02*
X206350000Y-87700000D01*
X206350000Y-97800000D01*
X175600000Y-97800000D01*
X175600000Y-87700000D01*
X175600000Y-87700000D02*
X189700000Y-87700000D01*
X189700000Y-97800000D01*
X175600000Y-97800000D01*
X175600000Y-87700000D01*
%TO.C,R1*%
X149600000Y-45000000D02*
X151400000Y-45000000D01*
X151400000Y-46000000D01*
X149600000Y-46000000D01*
X149600000Y-45000000D01*
%TO.C,R4*%
X156200000Y-45200000D02*
X155200000Y-45200000D01*
X155200000Y-47000000D01*
X156200000Y-47000000D01*
X156200000Y-45200000D01*
%TD*%
M02*
