%TF.GenerationSoftware,KiCad,Pcbnew,8.0.8*%
%TF.CreationDate,2025-08-06T16:05:48-04:00*%
%TF.ProjectId,pcie,70636965-2e6b-4696-9361-645f70636258,rev?*%
%TF.SameCoordinates,Original*%
%TF.FileFunction,Soldermask,Top*%
%TF.FilePolarity,Negative*%
%FSLAX46Y46*%
G04 Gerber Fmt 4.6, Leading zero omitted, Abs format (unit mm)*
G04 Created by KiCad (PCBNEW 8.0.8) date 2025-08-06 16:05:48*
%MOMM*%
%LPD*%
G01*
G04 APERTURE LIST*
G04 Aperture macros list*
%AMRoundRect*
0 Rectangle with rounded corners*
0 $1 Rounding radius*
0 $2 $3 $4 $5 $6 $7 $8 $9 X,Y pos of 4 corners*
0 Add a 4 corners polygon primitive as box body*
4,1,4,$2,$3,$4,$5,$6,$7,$8,$9,$2,$3,0*
0 Add four circle primitives for the rounded corners*
1,1,$1+$1,$2,$3*
1,1,$1+$1,$4,$5*
1,1,$1+$1,$6,$7*
1,1,$1+$1,$8,$9*
0 Add four rect primitives between the rounded corners*
20,1,$1+$1,$2,$3,$4,$5,0*
20,1,$1+$1,$4,$5,$6,$7,0*
20,1,$1+$1,$6,$7,$8,$9,0*
20,1,$1+$1,$8,$9,$2,$3,0*%
G04 Aperture macros list end*
%ADD10C,7.000000*%
%ADD11C,1.400000*%
%ADD12C,1.500000*%
%ADD13C,4.000000*%
%ADD14C,2.100000*%
%ADD15RoundRect,0.102000X0.275000X1.000000X-0.275000X1.000000X-0.275000X-1.000000X0.275000X-1.000000X0*%
%ADD16RoundRect,0.102000X2.100000X2.000000X-2.100000X2.000000X-2.100000X-2.000000X2.100000X-2.000000X0*%
%ADD17RoundRect,0.200000X-0.350000X0.200000X-0.350000X-0.200000X0.350000X-0.200000X0.350000X0.200000X0*%
%ADD18RoundRect,0.200000X-0.200000X-0.350000X0.200000X-0.350000X0.200000X0.350000X-0.200000X0.350000X0*%
%ADD19R,0.700000X0.400000*%
%ADD20C,1.700000*%
%ADD21C,3.000000*%
G04 APERTURE END LIST*
D10*
%TO.C,*%
X234540000Y-85100000D03*
%TD*%
%TO.C,*%
X240640000Y-30000000D03*
%TD*%
%TO.C,*%
X130000000Y-30000000D03*
%TD*%
%TO.C,REF\u002A\u002A*%
X150640000Y-94100000D03*
%TD*%
D11*
%TO.C,REF\u002A\u002A*%
X141180000Y-81650000D03*
X143720000Y-81650000D03*
%TD*%
%TO.C,REF\u002A\u002A*%
X150525000Y-51910000D03*
X150525000Y-54450000D03*
%TD*%
%TO.C,REF\u002A\u002A*%
X150520000Y-56490000D03*
X150520000Y-59030000D03*
%TD*%
%TO.C,REF\u002A\u002A*%
X145720000Y-56385000D03*
X145720000Y-58925000D03*
%TD*%
%TO.C,REF\u002A\u002A*%
X145725000Y-51805000D03*
X145725000Y-54345000D03*
%TD*%
D12*
%TO.C,REF\u002A\u002A*%
X133825000Y-67075000D03*
%TD*%
%TO.C,REF\u002A\u002A*%
X133925000Y-74775000D03*
%TD*%
%TO.C,REF\u002A\u002A*%
X133875000Y-78625000D03*
%TD*%
%TO.C,REF\u002A\u002A*%
X133875000Y-70675000D03*
%TD*%
D13*
%TO.C,REF\u002A\u002A*%
X133750000Y-57100000D03*
%TD*%
D12*
%TO.C,REF\u002A\u002A*%
X138900000Y-49300000D03*
%TD*%
D13*
%TO.C,REF\u002A\u002A*%
X133750000Y-49200000D03*
%TD*%
D14*
%TO.C,J2*%
X228600000Y-33600000D03*
X155450000Y-33600000D03*
D15*
X143800000Y-35600000D03*
X144800000Y-35600000D03*
X145800000Y-35600000D03*
X146800000Y-35600000D03*
X147800000Y-35600000D03*
X148800000Y-35600000D03*
X149800000Y-35600000D03*
X150800000Y-35600000D03*
X151800000Y-35600000D03*
X152800000Y-35600000D03*
X153800000Y-35600000D03*
X156800000Y-35600000D03*
X157800000Y-35600000D03*
X158800000Y-35600000D03*
X159800000Y-35600000D03*
X160800000Y-35600000D03*
X161800000Y-35600000D03*
X162800000Y-35600000D03*
X163800000Y-35600000D03*
X164800000Y-35600000D03*
X165800000Y-35600000D03*
X166800000Y-35600000D03*
X167800000Y-35600000D03*
X168800000Y-35600000D03*
X169800000Y-35600000D03*
X170800000Y-35600000D03*
X171800000Y-35600000D03*
X172800000Y-35600000D03*
X173800000Y-35600000D03*
X174800000Y-35600000D03*
X175800000Y-35600000D03*
X176800000Y-35600000D03*
X177800000Y-35600000D03*
X178800000Y-35600000D03*
X179800000Y-35600000D03*
X180800000Y-35600000D03*
X181800000Y-35600000D03*
X182800000Y-35600000D03*
X183800000Y-35600000D03*
X184800000Y-35600000D03*
X185800000Y-35600000D03*
X186800000Y-35600000D03*
X187800000Y-35600000D03*
X188800000Y-35600000D03*
X189800000Y-35600000D03*
X190800000Y-35600000D03*
X191800000Y-35600000D03*
X192800000Y-35600000D03*
X193800000Y-35600000D03*
X194800000Y-35600000D03*
X195800000Y-35600000D03*
X196800000Y-35600000D03*
X197800000Y-35600000D03*
X198800000Y-35600000D03*
X199800000Y-35600000D03*
X200800000Y-35600000D03*
X201800000Y-35600000D03*
X202800000Y-35600000D03*
X203800000Y-35600000D03*
X204800000Y-35600000D03*
X205800000Y-35600000D03*
X206800000Y-35600000D03*
X207800000Y-35600000D03*
X208800000Y-35600000D03*
X209800000Y-35600000D03*
X210800000Y-35600000D03*
X211800000Y-35600000D03*
X212800000Y-35600000D03*
X213800000Y-35600000D03*
X214800000Y-35600000D03*
X215800000Y-35600000D03*
X216800000Y-35600000D03*
X217800000Y-35600000D03*
X218800000Y-35600000D03*
X219800000Y-35600000D03*
X220800000Y-35600000D03*
X221800000Y-35600000D03*
X222800000Y-35600000D03*
X223800000Y-35600000D03*
X224800000Y-35600000D03*
X225800000Y-35600000D03*
X226800000Y-35600000D03*
X143800000Y-42100000D03*
X144800000Y-42100000D03*
X145800000Y-42100000D03*
X146800000Y-42100000D03*
X147800000Y-42100000D03*
X148800000Y-42100000D03*
X149800000Y-42100000D03*
X150800000Y-42100000D03*
X151800000Y-42100000D03*
X152800000Y-42100000D03*
X153800000Y-42100000D03*
X156800000Y-42100000D03*
X157800000Y-42100000D03*
X158800000Y-42100000D03*
X159800000Y-42100000D03*
X160800000Y-42100000D03*
X161800000Y-42100000D03*
X162800000Y-42100000D03*
X163800000Y-42100000D03*
X164800000Y-42100000D03*
X165800000Y-42100000D03*
X166800000Y-42100000D03*
X167800000Y-42100000D03*
X168800000Y-42100000D03*
X169800000Y-42100000D03*
X170800000Y-42100000D03*
X171800000Y-42100000D03*
X172800000Y-42100000D03*
X173800000Y-42100000D03*
X174800000Y-42100000D03*
X175800000Y-42100000D03*
X176800000Y-42100000D03*
X177800000Y-42100000D03*
X178800000Y-42100000D03*
X179800000Y-42100000D03*
X180800000Y-42100000D03*
X181800000Y-42100000D03*
X182800000Y-42100000D03*
X183800000Y-42100000D03*
X184800000Y-42100000D03*
X185800000Y-42100000D03*
X186800000Y-42100000D03*
X187800000Y-42100000D03*
X188800000Y-42100000D03*
X189800000Y-42100000D03*
X190800000Y-42100000D03*
X191800000Y-42100000D03*
X192800000Y-42100000D03*
X193800000Y-42100000D03*
X194800000Y-42100000D03*
X195800000Y-42100000D03*
X196800000Y-42100000D03*
X197800000Y-42100000D03*
X198800000Y-42100000D03*
X199800000Y-42100000D03*
X200800000Y-42100000D03*
X201800000Y-42100000D03*
X202800000Y-42100000D03*
X203800000Y-42100000D03*
X204800000Y-42100000D03*
X205800000Y-42100000D03*
X206800000Y-42100000D03*
X207800000Y-42100000D03*
X208800000Y-42100000D03*
X209800000Y-42100000D03*
X210800000Y-42100000D03*
X211800000Y-42100000D03*
X212800000Y-42100000D03*
X213800000Y-42100000D03*
X214800000Y-42100000D03*
X215800000Y-42100000D03*
X216800000Y-42100000D03*
X217800000Y-42100000D03*
X218800000Y-42100000D03*
X219800000Y-42100000D03*
X220800000Y-42100000D03*
X221800000Y-42100000D03*
X222800000Y-42100000D03*
X223800000Y-42100000D03*
X224800000Y-42100000D03*
X225800000Y-42100000D03*
X226800000Y-42100000D03*
D16*
X231400000Y-29600000D03*
X139200000Y-29600000D03*
%TD*%
D17*
%TO.C,R3*%
X142100000Y-45450000D03*
X142100000Y-46850000D03*
%TD*%
D18*
%TO.C,R7*%
X199000000Y-87500000D03*
X200400000Y-87500000D03*
%TD*%
%TO.C,R2*%
X152800000Y-45500000D03*
X154200000Y-45500000D03*
%TD*%
D17*
%TO.C,R5*%
X140350000Y-45450000D03*
X140350000Y-46850000D03*
%TD*%
D19*
%TO.C,J1*%
X193920000Y-95870000D03*
X194780000Y-95870000D03*
X197220000Y-95870000D03*
X198080000Y-95870000D03*
X200520000Y-95870000D03*
X201380000Y-95870000D03*
X203820000Y-95870000D03*
X204680000Y-95870000D03*
X193920000Y-95270000D03*
X194780000Y-95270000D03*
X197220000Y-95270000D03*
X198080000Y-95270000D03*
X200520000Y-95270000D03*
X201380000Y-95270000D03*
X203820000Y-95270000D03*
X204680000Y-95270000D03*
X193920000Y-94670000D03*
X194780000Y-94670000D03*
X197220000Y-94670000D03*
X201380000Y-94670000D03*
X203820000Y-94670000D03*
X204680000Y-94670000D03*
X193920000Y-94070000D03*
X194780000Y-94070000D03*
X197220000Y-94070000D03*
X201380000Y-94070000D03*
X203820000Y-94070000D03*
X204680000Y-94070000D03*
X193920000Y-93470000D03*
X194780000Y-93470000D03*
X197220000Y-93470000D03*
X201380000Y-93470000D03*
X203820000Y-93470000D03*
X204680000Y-93470000D03*
X193920000Y-92870000D03*
X194780000Y-92870000D03*
X197220000Y-92870000D03*
X201380000Y-92870000D03*
X203820000Y-92870000D03*
X204680000Y-92870000D03*
X193920000Y-92270000D03*
X194780000Y-92270000D03*
X197220000Y-92270000D03*
X201380000Y-92270000D03*
X203820000Y-92270000D03*
X204680000Y-92270000D03*
X193920000Y-91670000D03*
X194780000Y-91670000D03*
X197220000Y-91670000D03*
X201380000Y-91670000D03*
X203820000Y-91670000D03*
X204680000Y-91670000D03*
X193920000Y-91070000D03*
X194780000Y-91070000D03*
X197220000Y-91070000D03*
X201380000Y-91070000D03*
X203820000Y-91070000D03*
X204680000Y-91070000D03*
X193920000Y-90470000D03*
X194780000Y-90470000D03*
X197220000Y-90470000D03*
X198080000Y-90470000D03*
X200520000Y-90470000D03*
X201380000Y-90470000D03*
X203820000Y-90470000D03*
X204680000Y-90470000D03*
X193920000Y-89870000D03*
X194780000Y-89870000D03*
X197220000Y-89870000D03*
X198080000Y-89870000D03*
X200520000Y-89870000D03*
X201380000Y-89870000D03*
X203820000Y-89870000D03*
X204680000Y-89870000D03*
X177260000Y-95880000D03*
X178120000Y-95880000D03*
X180560000Y-95880000D03*
X181420000Y-95880000D03*
X183860000Y-95880000D03*
X184720000Y-95880000D03*
X187160000Y-95880000D03*
X188020000Y-95880000D03*
X177260000Y-95280000D03*
X178120000Y-95280000D03*
X180560000Y-95280000D03*
X181420000Y-95280000D03*
X183860000Y-95280000D03*
X184720000Y-95280000D03*
X187160000Y-95280000D03*
X188020000Y-95280000D03*
X177260000Y-94680000D03*
X178120000Y-94680000D03*
X180560000Y-94680000D03*
X184720000Y-94680000D03*
X187160000Y-94680000D03*
X188020000Y-94680000D03*
X177260000Y-94080000D03*
X178120000Y-94080000D03*
X180560000Y-94080000D03*
X184720000Y-94080000D03*
X187160000Y-94080000D03*
X188020000Y-94080000D03*
X177260000Y-93480000D03*
X178120000Y-93480000D03*
X180560000Y-93480000D03*
X184720000Y-93480000D03*
X187160000Y-93480000D03*
X188020000Y-93480000D03*
X177260000Y-92880000D03*
X178120000Y-92880000D03*
X180560000Y-92880000D03*
X184720000Y-92880000D03*
X187160000Y-92880000D03*
X188020000Y-92880000D03*
X177260000Y-92280000D03*
X178120000Y-92280000D03*
X180560000Y-92280000D03*
X184720000Y-92280000D03*
X187160000Y-92280000D03*
X188020000Y-92280000D03*
X177260000Y-91680000D03*
X178120000Y-91680000D03*
X180560000Y-91680000D03*
X184720000Y-91680000D03*
X187160000Y-91680000D03*
X188020000Y-91680000D03*
X177260000Y-91080000D03*
X178120000Y-91080000D03*
X180560000Y-91080000D03*
X184720000Y-91080000D03*
X187160000Y-91080000D03*
X188020000Y-91080000D03*
X177260000Y-90480000D03*
X178120000Y-90480000D03*
X180560000Y-90480000D03*
X181420000Y-90480000D03*
X183860000Y-90480000D03*
X184720000Y-90480000D03*
X187160000Y-90480000D03*
X188020000Y-90480000D03*
X177260000Y-89880000D03*
X178120000Y-89880000D03*
X180560000Y-89880000D03*
X181420000Y-89880000D03*
X183860000Y-89880000D03*
X184720000Y-89880000D03*
X187160000Y-89880000D03*
X188020000Y-89880000D03*
D20*
X205680000Y-88370000D03*
X199300000Y-96840000D03*
D21*
X199300000Y-92750000D03*
D20*
X192960000Y-88390000D03*
X189020000Y-97080000D03*
D21*
X182640000Y-92760000D03*
D20*
X182640000Y-88560000D03*
X176300000Y-97100000D03*
%TD*%
D18*
%TO.C,R1*%
X149800000Y-45500000D03*
X151200000Y-45500000D03*
%TD*%
D17*
%TO.C,R4*%
X155700000Y-45400000D03*
X155700000Y-46800000D03*
%TD*%
M02*
