%TF.GenerationSoftware,KiCad,Pcbnew,8.0.8*%
%TF.CreationDate,2025-08-06T16:05:48-04:00*%
%TF.ProjectId,pcie,70636965-2e6b-4696-9361-645f70636258,rev?*%
%TF.SameCoordinates,Original*%
%TF.FileFunction,Copper,L2,Inr*%
%TF.FilePolarity,Positive*%
%FSLAX46Y46*%
G04 Gerber Fmt 4.6, Leading zero omitted, Abs format (unit mm)*
G04 Created by KiCad (PCBNEW 8.0.8) date 2025-08-06 16:05:48*
%MOMM*%
%LPD*%
G01*
G04 APERTURE LIST*
%TA.AperFunction,ComponentPad*%
%ADD10C,7.000000*%
%TD*%
%TA.AperFunction,ComponentPad*%
%ADD11C,1.400000*%
%TD*%
%TA.AperFunction,ComponentPad*%
%ADD12C,1.500000*%
%TD*%
%TA.AperFunction,ComponentPad*%
%ADD13C,4.000000*%
%TD*%
%TA.AperFunction,ComponentPad*%
%ADD14C,1.700000*%
%TD*%
%TA.AperFunction,ComponentPad*%
%ADD15C,3.000000*%
%TD*%
%TA.AperFunction,ViaPad*%
%ADD16C,0.350000*%
%TD*%
%TA.AperFunction,ViaPad*%
%ADD17C,0.700000*%
%TD*%
%TA.AperFunction,ViaPad*%
%ADD18C,1.000000*%
%TD*%
G04 APERTURE END LIST*
D10*
%TO.N,GND*%
%TO.C,*%
X234540000Y-85100000D03*
%TD*%
%TO.N,GND*%
%TO.C,*%
X240640000Y-30000000D03*
%TD*%
%TO.N,GND*%
%TO.C,*%
X130000000Y-30000000D03*
%TD*%
%TO.N,GND*%
%TO.C,REF\u002A\u002A*%
X150640000Y-94100000D03*
%TD*%
D11*
%TO.N,unconnected-(J1-PWR_GOOD-PadPL1)*%
%TO.C,REF\u002A\u002A*%
X141180000Y-81650000D03*
%TO.N,unconnected-(J1-PWR_EN-PadPK2)*%
X143720000Y-81650000D03*
%TD*%
%TO.N,unconnected-(J1-12V_FAN-PadPL4)*%
%TO.C,REF\u002A\u002A*%
X150525000Y-51910000D03*
%TO.N,unconnected-(J1-FAN1_PWM-PadPK5)*%
X150525000Y-54450000D03*
%TD*%
%TO.N,unconnected-(J1-FAN1_SPEED-PadPJ2)*%
%TO.C,REF\u002A\u002A*%
X150520000Y-56490000D03*
%TO.N,GND*%
X150520000Y-59030000D03*
%TD*%
%TO.N,unconnected-(J1-FAN0_SPEED-PadPH2)*%
%TO.C,REF\u002A\u002A*%
X145720000Y-56385000D03*
%TO.N,GND*%
X145720000Y-58925000D03*
%TD*%
%TO.N,unconnected-(J1-12V_FAN-PadPL4)*%
%TO.C,REF\u002A\u002A*%
X145725000Y-51805000D03*
%TO.N,unconnected-(J1-FAN0_PWM-PadPL5)*%
X145725000Y-54345000D03*
%TD*%
D12*
%TO.N,Net-(J1-VADP_GPU-PadPA1)*%
%TO.C,REF\u002A\u002A*%
X133825000Y-67075000D03*
%TD*%
%TO.N,VIN*%
%TO.C,REF\u002A\u002A*%
X133925000Y-74775000D03*
%TD*%
%TO.N,+5V*%
%TO.C,REF\u002A\u002A*%
X133875000Y-78625000D03*
%TD*%
%TO.N,+3.3V ALW*%
%TO.C,REF\u002A\u002A*%
X133875000Y-70675000D03*
%TD*%
D13*
%TO.N,GND*%
%TO.C,REF\u002A\u002A*%
X133750000Y-57100000D03*
%TD*%
D12*
%TO.N,+3.3V*%
%TO.C,REF\u002A\u002A*%
X138900000Y-49300000D03*
%TD*%
D13*
%TO.N,+12V*%
%TO.C,REF\u002A\u002A*%
X133750000Y-49200000D03*
%TD*%
D14*
%TO.N,GND*%
%TO.C,J1*%
X205680000Y-88370000D03*
X199300000Y-96840000D03*
D15*
X199300000Y-92750000D03*
D14*
X192960000Y-88390000D03*
X189020000Y-97080000D03*
D15*
X182640000Y-92760000D03*
D14*
X182640000Y-88560000D03*
X176300000Y-97100000D03*
%TD*%
D16*
%TO.N,unconnected-(J1-PWR_EN-PadPK2)*%
X186000000Y-96825000D03*
%TO.N,unconnected-(J1-PWR_GOOD-PadPL1)*%
X185525000Y-97250000D03*
%TO.N,unconnected-(J1-FAN1_PWM-PadPK5)*%
X159000000Y-64500000D03*
%TO.N,unconnected-(J1-12V_FAN-PadPL4)*%
X177600000Y-83100000D03*
D17*
%TO.N,Net-(J1-VADP_GPU-PadPA1)*%
X183030000Y-84450000D03*
%TO.N,+3.3V ALW*%
X178330000Y-85950000D03*
%TO.N,+5V*%
X174560000Y-93660000D03*
D16*
%TO.N,unconnected-(J1-FAN0_PWM-PadPL5)*%
X182170000Y-95880000D03*
%TO.N,unconnected-(J1-FAN1_PWM-PadPK5)*%
X182180000Y-95280000D03*
%TO.N,unconnected-(J1-12V_FAN-PadPL4)*%
X183175000Y-95875000D03*
%TO.N,unconnected-(J1-FAN1_SPEED-PadPJ2)*%
X186480000Y-94680000D03*
%TO.N,unconnected-(J1-FAN0_SPEED-PadPH2)*%
X186045000Y-94073682D03*
%TO.N,GND*%
X203820000Y-90470000D03*
D18*
%TO.N,+12V*%
X144800000Y-39100000D03*
X145800000Y-39100000D03*
X145800000Y-38100000D03*
X144800000Y-38100000D03*
D16*
%TO.N,GND*%
X139200000Y-32500000D03*
X231400000Y-32500000D03*
%TO.N,PRSNT*%
X192900000Y-40200000D03*
X142950000Y-35600000D03*
%TO.N,PERST_RST*%
X153950000Y-40150000D03*
X176050000Y-57550000D03*
D17*
%TO.N,VIN*%
X177000000Y-87325000D03*
X178120000Y-87350000D03*
%TO.N,GND*%
X185900000Y-88350000D03*
X179000000Y-88300000D03*
X179650000Y-88300000D03*
D16*
X197950000Y-91050000D03*
X203750000Y-87100000D03*
%TO.N,REFCLK+*%
X203750000Y-86400000D03*
%TO.N,REFCLK-*%
X204300000Y-87100000D03*
%TO.N,GND*%
X194000000Y-38500000D03*
X194000000Y-40300003D03*
%TO.N,REFCLK-*%
X194000000Y-39000000D03*
%TO.N,REFCLK+*%
X194000000Y-39800000D03*
D18*
%TO.N,+3.3V*%
X152800000Y-39950000D03*
X150800000Y-39900000D03*
D16*
%TO.N,GND*%
X143100000Y-46850000D03*
X146800000Y-37450000D03*
X146800000Y-43950000D03*
X149800000Y-43950000D03*
X157800000Y-43950000D03*
X156800000Y-37450000D03*
X193200000Y-91070000D03*
X205420000Y-91070000D03*
X202850000Y-94700000D03*
X214600000Y-37400000D03*
X224000000Y-37400000D03*
X177150000Y-44000000D03*
X171150000Y-44000000D03*
X185600000Y-37400000D03*
X226600000Y-37400000D03*
X216600000Y-43900000D03*
X210600000Y-37400000D03*
X167600000Y-37400000D03*
X222000000Y-43900000D03*
X208600000Y-43900000D03*
X206850000Y-92350000D03*
X179000000Y-37400000D03*
X195891481Y-94307168D03*
X214000000Y-43900000D03*
X189150000Y-44000000D03*
X196800000Y-43950000D03*
X199800000Y-37450000D03*
X169400000Y-44000000D03*
X167150000Y-44000000D03*
X222600000Y-37400000D03*
X173400000Y-44000000D03*
X191000000Y-37400000D03*
X198800000Y-37450000D03*
X183400000Y-44000000D03*
X187000000Y-37400000D03*
X196550000Y-96400000D03*
X163150000Y-44000000D03*
X218600000Y-37400000D03*
X193800000Y-43950000D03*
X189600000Y-37400000D03*
X187400000Y-44000000D03*
X195800000Y-37450000D03*
X160000000Y-37400000D03*
X185150000Y-44000000D03*
X200800000Y-43950000D03*
X220600000Y-43900000D03*
X193600000Y-37400000D03*
X169000000Y-37400000D03*
X208000000Y-37400000D03*
X162600000Y-37400000D03*
X202000000Y-43900000D03*
X165400000Y-44000000D03*
X216000000Y-37400000D03*
X173000000Y-37400000D03*
X212600000Y-43900000D03*
X210000000Y-43900000D03*
X179400000Y-44000000D03*
X205500000Y-94668876D03*
X212000000Y-37400000D03*
X183000000Y-37400000D03*
X181600000Y-37400000D03*
X191650000Y-92900000D03*
X206600000Y-37400000D03*
X191150000Y-94650000D03*
X204000000Y-37400000D03*
X206000000Y-43900000D03*
X202800000Y-37450000D03*
X193200000Y-96350000D03*
X165000000Y-37400000D03*
X224600000Y-43900000D03*
X218000000Y-43900000D03*
X181150000Y-44000000D03*
X220000000Y-37400000D03*
X175600000Y-37400000D03*
X171600000Y-37400000D03*
X197800000Y-43950000D03*
X191350000Y-44100000D03*
X204600000Y-43900000D03*
%TO.N,H_RX5N*%
X202700000Y-94070000D03*
X184800000Y-37400000D03*
%TO.N,H_RX4N*%
X202150000Y-95850000D03*
X180800000Y-37400000D03*
%TO.N,H_RX7N*%
X207250000Y-93650000D03*
X192850000Y-37400000D03*
%TO.N,H_RX3P*%
X173800000Y-37400000D03*
X196550000Y-95900000D03*
%TO.N,H_RX7P*%
X206850000Y-93100000D03*
X191850000Y-37400000D03*
%TO.N,H_RX5P*%
X202700000Y-93400003D03*
X183800000Y-37400000D03*
%TO.N,H_RX4P*%
X202000000Y-95270000D03*
X179800000Y-37400000D03*
%TO.N,H_RX0P*%
X191125372Y-94026097D03*
X160800000Y-37400000D03*
%TO.N,H_RX6P*%
X205500000Y-95250000D03*
X187800000Y-37400000D03*
%TO.N,H_RX1N*%
X193200000Y-95300000D03*
X166800000Y-37400000D03*
%TO.N,H_RX3N*%
X174800000Y-37400000D03*
X196550000Y-95250000D03*
%TO.N,H_RX0N*%
X161800000Y-37400000D03*
X191653973Y-93494040D03*
%TO.N,H_RX2P*%
X195900000Y-93746101D03*
X169800000Y-37400000D03*
%TO.N,H_RX1P*%
X165800000Y-37400000D03*
X193200000Y-95850000D03*
%TO.N,H_RX6N*%
X188800000Y-37400000D03*
X205500000Y-95900000D03*
%TO.N,H_RX2N*%
X170800000Y-37400000D03*
X195900000Y-93154105D03*
%TO.N,GND*%
X200630000Y-91070000D03*
%TD*%
%TA.AperFunction,Conductor*%
%TO.N,GND*%
G36*
X243551179Y-26598535D02*
G01*
X243562794Y-26599679D01*
X243684521Y-26611668D01*
X243689122Y-26612582D01*
X243779788Y-26640086D01*
X243816224Y-26651139D01*
X243820570Y-26652940D01*
X243875236Y-26682159D01*
X243937697Y-26715544D01*
X243941605Y-26718156D01*
X244044265Y-26802407D01*
X244047592Y-26805734D01*
X244103088Y-26873356D01*
X244128517Y-26904342D01*
X244131843Y-26908394D01*
X244134457Y-26912306D01*
X244197059Y-27029429D01*
X244198860Y-27033775D01*
X244237415Y-27160870D01*
X244238332Y-27165485D01*
X244251465Y-27298822D01*
X244251581Y-27301174D01*
X244251581Y-27367042D01*
X244251633Y-27367840D01*
X244299497Y-88848102D01*
X244299202Y-88851875D01*
X244290330Y-88907895D01*
X244288009Y-88915037D01*
X244263125Y-88963874D01*
X244258712Y-88969949D01*
X244219949Y-89008712D01*
X244213874Y-89013125D01*
X244165037Y-89038009D01*
X244157896Y-89040329D01*
X244101864Y-89049204D01*
X244098109Y-89049500D01*
X232308093Y-89049500D01*
X232127074Y-89081418D01*
X231954338Y-89144289D01*
X231954338Y-89144290D01*
X231795153Y-89236195D01*
X231654351Y-89354342D01*
X231654342Y-89354351D01*
X231536195Y-89495153D01*
X231444290Y-89654338D01*
X231444289Y-89654338D01*
X231381418Y-89827074D01*
X231349500Y-90008092D01*
X231349500Y-97996841D01*
X231348682Y-98003053D01*
X231337834Y-98043537D01*
X231331623Y-98054296D01*
X231304296Y-98081623D01*
X231293537Y-98087834D01*
X231264739Y-98095550D01*
X231253051Y-98098682D01*
X231246842Y-98099500D01*
X223302364Y-98099500D01*
X223297682Y-98099039D01*
X223295887Y-98098682D01*
X223283817Y-98096281D01*
X223247471Y-98089051D01*
X223238819Y-98085467D01*
X223226214Y-98077045D01*
X223198254Y-98058362D01*
X223191637Y-98051745D01*
X223164531Y-98011179D01*
X223160948Y-98002528D01*
X223160445Y-98000000D01*
X223150961Y-97952317D01*
X223150500Y-97947635D01*
X223150500Y-91655521D01*
X223150500Y-91655519D01*
X223120940Y-91468882D01*
X223120937Y-91468874D01*
X223120937Y-91468871D01*
X223062549Y-91289175D01*
X223062547Y-91289168D01*
X222976760Y-91120801D01*
X222976756Y-91120794D01*
X222865693Y-90967931D01*
X222865692Y-90967930D01*
X222865690Y-90967927D01*
X222732073Y-90834310D01*
X222732069Y-90834307D01*
X222732068Y-90834306D01*
X222579205Y-90723243D01*
X222579198Y-90723239D01*
X222410834Y-90637454D01*
X222410824Y-90637450D01*
X222231128Y-90579062D01*
X222231122Y-90579061D01*
X222231120Y-90579060D01*
X222231118Y-90579060D01*
X222044481Y-90549500D01*
X222015892Y-90549500D01*
X214165892Y-90549500D01*
X214100000Y-90549500D01*
X214008093Y-90549500D01*
X213827074Y-90581418D01*
X213654338Y-90644289D01*
X213654338Y-90644290D01*
X213495153Y-90736195D01*
X213354351Y-90854342D01*
X213354342Y-90854351D01*
X213236195Y-90995153D01*
X213144290Y-91154338D01*
X213144289Y-91154338D01*
X213081418Y-91327074D01*
X213049500Y-91508092D01*
X213049500Y-92375500D01*
X213042471Y-92392471D01*
X213025500Y-92399500D01*
X210284301Y-92399500D01*
X209955000Y-92436602D01*
X209954992Y-92436604D01*
X209631909Y-92510346D01*
X209631898Y-92510349D01*
X209319113Y-92619797D01*
X209319112Y-92619798D01*
X209020540Y-92763582D01*
X209020530Y-92763588D01*
X208739942Y-92939894D01*
X208480849Y-93146514D01*
X208246514Y-93380849D01*
X208039894Y-93639942D01*
X207863588Y-93920530D01*
X207863582Y-93920540D01*
X207719798Y-94219112D01*
X207719797Y-94219113D01*
X207610349Y-94531898D01*
X207610346Y-94531909D01*
X207536604Y-94854992D01*
X207536602Y-94855000D01*
X207499500Y-95184301D01*
X207499500Y-97398653D01*
X207499349Y-97401340D01*
X207484771Y-97530713D01*
X207483575Y-97535953D01*
X207441023Y-97657561D01*
X207438691Y-97662403D01*
X207370148Y-97771489D01*
X207366798Y-97775691D01*
X207275691Y-97866798D01*
X207271489Y-97870148D01*
X207162403Y-97938691D01*
X207157561Y-97941023D01*
X207035953Y-97983575D01*
X207030713Y-97984771D01*
X206901340Y-97999349D01*
X206898653Y-97999500D01*
X174151347Y-97999500D01*
X174148660Y-97999349D01*
X174041538Y-97987278D01*
X174036298Y-97986082D01*
X173935826Y-97950926D01*
X173930984Y-97948594D01*
X173840859Y-97891965D01*
X173836657Y-97888615D01*
X173761384Y-97813342D01*
X173758034Y-97809140D01*
X173742305Y-97784108D01*
X173701405Y-97719015D01*
X173699073Y-97714173D01*
X173663917Y-97613701D01*
X173662721Y-97608461D01*
X173650651Y-97501340D01*
X173650500Y-97498653D01*
X173650500Y-97249997D01*
X185194479Y-97249997D01*
X185194479Y-97250002D01*
X185214410Y-97363040D01*
X185214411Y-97363043D01*
X185214412Y-97363045D01*
X185271806Y-97462455D01*
X185359739Y-97536240D01*
X185467606Y-97575500D01*
X185582394Y-97575500D01*
X185690261Y-97536240D01*
X185778194Y-97462455D01*
X185835588Y-97363045D01*
X185835589Y-97363040D01*
X185855521Y-97250002D01*
X185855521Y-97249998D01*
X185838019Y-97150744D01*
X185841994Y-97132810D01*
X185857486Y-97122941D01*
X185869859Y-97124022D01*
X185942606Y-97150500D01*
X185942607Y-97150500D01*
X186057394Y-97150500D01*
X186165261Y-97111240D01*
X186253194Y-97037455D01*
X186310588Y-96938045D01*
X186310589Y-96938040D01*
X186330521Y-96825002D01*
X186330521Y-96824997D01*
X186310589Y-96711959D01*
X186310588Y-96711958D01*
X186310588Y-96711955D01*
X186253194Y-96612545D01*
X186165261Y-96538760D01*
X186057394Y-96499500D01*
X185942606Y-96499500D01*
X185834740Y-96538760D01*
X185834739Y-96538760D01*
X185834738Y-96538761D01*
X185746805Y-96612545D01*
X185689412Y-96711955D01*
X185689410Y-96711959D01*
X185669479Y-96824997D01*
X185669479Y-96825002D01*
X185686980Y-96924255D01*
X185683005Y-96942189D01*
X185667513Y-96952058D01*
X185655137Y-96950976D01*
X185582394Y-96924500D01*
X185467606Y-96924500D01*
X185359740Y-96963760D01*
X185359739Y-96963760D01*
X185359738Y-96963761D01*
X185271805Y-97037545D01*
X185214412Y-97136955D01*
X185214410Y-97136959D01*
X185194479Y-97249997D01*
X173650500Y-97249997D01*
X173650500Y-95879997D01*
X181839479Y-95879997D01*
X181839479Y-95880002D01*
X181859410Y-95993040D01*
X181859411Y-95993043D01*
X181859412Y-95993045D01*
X181870959Y-96013045D01*
X181913918Y-96087454D01*
X181916806Y-96092455D01*
X182004739Y-96166240D01*
X182112606Y-96205500D01*
X182227394Y-96205500D01*
X182335261Y-96166240D01*
X182423194Y-96092455D01*
X182480588Y-95993045D01*
X182496994Y-95900002D01*
X182500521Y-95880002D01*
X182500521Y-95879997D01*
X182499639Y-95874997D01*
X182844479Y-95874997D01*
X182844479Y-95875002D01*
X182864410Y-95988040D01*
X182864411Y-95988043D01*
X182864412Y-95988045D01*
X182921806Y-96087455D01*
X183009739Y-96161240D01*
X183117606Y-96200500D01*
X183232394Y-96200500D01*
X183340261Y-96161240D01*
X183428194Y-96087455D01*
X183485588Y-95988045D01*
X183489996Y-95963045D01*
X183505521Y-95875002D01*
X183505521Y-95874997D01*
X183485589Y-95761959D01*
X183485588Y-95761958D01*
X183485588Y-95761955D01*
X183428194Y-95662545D01*
X183340261Y-95588760D01*
X183232394Y-95549500D01*
X183117606Y-95549500D01*
X183009740Y-95588760D01*
X183009739Y-95588760D01*
X183009738Y-95588761D01*
X182921805Y-95662545D01*
X182864412Y-95761955D01*
X182864410Y-95761959D01*
X182844479Y-95874997D01*
X182499639Y-95874997D01*
X182480589Y-95766959D01*
X182480588Y-95766958D01*
X182480588Y-95766955D01*
X182423194Y-95667545D01*
X182387442Y-95637545D01*
X182345773Y-95602580D01*
X182337291Y-95586286D01*
X182342815Y-95568768D01*
X182345773Y-95565810D01*
X182348215Y-95563761D01*
X182433194Y-95492455D01*
X182490588Y-95393045D01*
X182492351Y-95383045D01*
X182506995Y-95299997D01*
X192869479Y-95299997D01*
X192869479Y-95300002D01*
X192889410Y-95413040D01*
X192889411Y-95413043D01*
X192889412Y-95413045D01*
X192917938Y-95462454D01*
X192946805Y-95512454D01*
X192999433Y-95556615D01*
X193007915Y-95572909D01*
X193002391Y-95590427D01*
X192999433Y-95593385D01*
X192946805Y-95637545D01*
X192889412Y-95736955D01*
X192889410Y-95736959D01*
X192869479Y-95849997D01*
X192869479Y-95850002D01*
X192889410Y-95963040D01*
X192889411Y-95963043D01*
X192889412Y-95963045D01*
X192946806Y-96062455D01*
X193034739Y-96136240D01*
X193142606Y-96175500D01*
X193257394Y-96175500D01*
X193365261Y-96136240D01*
X193453194Y-96062455D01*
X193510588Y-95963045D01*
X193525232Y-95879997D01*
X193530521Y-95850002D01*
X193530521Y-95849997D01*
X193510589Y-95736959D01*
X193510588Y-95736958D01*
X193510588Y-95736955D01*
X193453194Y-95637545D01*
X193400565Y-95593384D01*
X193392084Y-95577092D01*
X193397608Y-95559573D01*
X193400566Y-95556615D01*
X193401014Y-95556239D01*
X193453194Y-95512455D01*
X193510588Y-95413045D01*
X193514115Y-95393044D01*
X193530521Y-95300002D01*
X193530521Y-95299997D01*
X193521704Y-95249997D01*
X196219479Y-95249997D01*
X196219479Y-95250002D01*
X196239410Y-95363040D01*
X196239411Y-95363043D01*
X196239412Y-95363045D01*
X196296806Y-95462455D01*
X196384739Y-95536240D01*
X196429269Y-95552447D01*
X196442811Y-95564857D01*
X196443613Y-95583209D01*
X196431203Y-95596751D01*
X196429274Y-95597550D01*
X196384740Y-95613760D01*
X196384739Y-95613760D01*
X196384738Y-95613761D01*
X196296805Y-95687545D01*
X196239412Y-95786955D01*
X196239410Y-95786959D01*
X196219479Y-95899997D01*
X196219479Y-95900002D01*
X196239410Y-96013040D01*
X196239411Y-96013043D01*
X196239412Y-96013045D01*
X196296806Y-96112455D01*
X196384739Y-96186240D01*
X196492606Y-96225500D01*
X196607394Y-96225500D01*
X196715261Y-96186240D01*
X196803194Y-96112455D01*
X196860588Y-96013045D01*
X196864115Y-95993044D01*
X196880521Y-95900002D01*
X196880521Y-95899997D01*
X196860589Y-95786959D01*
X196860588Y-95786958D01*
X196860588Y-95786955D01*
X196803194Y-95687545D01*
X196715261Y-95613760D01*
X196715259Y-95613759D01*
X196670732Y-95597553D01*
X196657189Y-95585143D01*
X196656387Y-95566792D01*
X196668797Y-95553249D01*
X196670732Y-95552447D01*
X196678829Y-95549500D01*
X196715261Y-95536240D01*
X196803194Y-95462455D01*
X196860588Y-95363045D01*
X196876994Y-95270002D01*
X196876995Y-95269997D01*
X201669479Y-95269997D01*
X201669479Y-95270002D01*
X201689410Y-95383040D01*
X201689411Y-95383043D01*
X201689412Y-95383045D01*
X201722547Y-95440438D01*
X201746698Y-95482269D01*
X201746806Y-95482455D01*
X201834739Y-95556240D01*
X201906548Y-95582376D01*
X201920090Y-95594785D01*
X201920892Y-95613136D01*
X201913767Y-95623312D01*
X201896806Y-95637545D01*
X201839412Y-95736955D01*
X201839410Y-95736959D01*
X201819479Y-95849997D01*
X201819479Y-95850002D01*
X201839410Y-95963040D01*
X201839411Y-95963043D01*
X201839412Y-95963045D01*
X201896806Y-96062455D01*
X201984739Y-96136240D01*
X202092606Y-96175500D01*
X202207394Y-96175500D01*
X202315261Y-96136240D01*
X202403194Y-96062455D01*
X202460588Y-95963045D01*
X202475232Y-95879997D01*
X202480521Y-95850002D01*
X202480521Y-95849997D01*
X202460589Y-95736959D01*
X202460588Y-95736958D01*
X202460588Y-95736955D01*
X202403194Y-95637545D01*
X202315261Y-95563760D01*
X202243450Y-95537623D01*
X202229909Y-95525214D01*
X202229107Y-95506862D01*
X202236231Y-95496688D01*
X202253194Y-95482455D01*
X202310588Y-95383045D01*
X202314115Y-95363044D01*
X202330521Y-95270002D01*
X202330521Y-95269997D01*
X202326994Y-95249997D01*
X205169479Y-95249997D01*
X205169479Y-95250002D01*
X205189410Y-95363040D01*
X205189411Y-95363043D01*
X205189412Y-95363045D01*
X205246806Y-95462455D01*
X205334739Y-95536240D01*
X205379269Y-95552447D01*
X205392811Y-95564857D01*
X205393613Y-95583209D01*
X205381203Y-95596751D01*
X205379274Y-95597550D01*
X205334740Y-95613760D01*
X205334739Y-95613760D01*
X205334738Y-95613761D01*
X205246805Y-95687545D01*
X205189412Y-95786955D01*
X205189410Y-95786959D01*
X205169479Y-95899997D01*
X205169479Y-95900002D01*
X205189410Y-96013040D01*
X205189411Y-96013043D01*
X205189412Y-96013045D01*
X205246806Y-96112455D01*
X205334739Y-96186240D01*
X205442606Y-96225500D01*
X205557394Y-96225500D01*
X205665261Y-96186240D01*
X205753194Y-96112455D01*
X205810588Y-96013045D01*
X205814115Y-95993044D01*
X205830521Y-95900002D01*
X205830521Y-95899997D01*
X205810589Y-95786959D01*
X205810588Y-95786958D01*
X205810588Y-95786955D01*
X205753194Y-95687545D01*
X205665261Y-95613760D01*
X205665259Y-95613759D01*
X205620732Y-95597553D01*
X205607189Y-95585143D01*
X205606387Y-95566792D01*
X205618797Y-95553249D01*
X205620732Y-95552447D01*
X205628829Y-95549500D01*
X205665261Y-95536240D01*
X205753194Y-95462455D01*
X205810588Y-95363045D01*
X205826994Y-95270002D01*
X205830521Y-95250002D01*
X205830521Y-95249997D01*
X205810589Y-95136959D01*
X205810588Y-95136958D01*
X205810588Y-95136955D01*
X205753194Y-95037545D01*
X205665261Y-94963760D01*
X205557394Y-94924500D01*
X205442606Y-94924500D01*
X205334740Y-94963760D01*
X205334739Y-94963760D01*
X205334738Y-94963761D01*
X205246805Y-95037545D01*
X205189412Y-95136955D01*
X205189410Y-95136959D01*
X205169479Y-95249997D01*
X202326994Y-95249997D01*
X202310589Y-95156959D01*
X202310588Y-95156958D01*
X202310588Y-95156955D01*
X202253194Y-95057545D01*
X202165261Y-94983760D01*
X202057394Y-94944500D01*
X201942606Y-94944500D01*
X201834740Y-94983760D01*
X201834739Y-94983760D01*
X201834738Y-94983761D01*
X201746805Y-95057545D01*
X201689412Y-95156955D01*
X201689410Y-95156959D01*
X201669479Y-95269997D01*
X196876995Y-95269997D01*
X196880521Y-95250002D01*
X196880521Y-95249997D01*
X196860589Y-95136959D01*
X196860588Y-95136958D01*
X196860588Y-95136955D01*
X196803194Y-95037545D01*
X196715261Y-94963760D01*
X196607394Y-94924500D01*
X196492606Y-94924500D01*
X196384740Y-94963760D01*
X196384739Y-94963760D01*
X196384738Y-94963761D01*
X196296805Y-95037545D01*
X196239412Y-95136955D01*
X196239410Y-95136959D01*
X196219479Y-95249997D01*
X193521704Y-95249997D01*
X193510589Y-95186959D01*
X193510588Y-95186958D01*
X193510588Y-95186955D01*
X193453194Y-95087545D01*
X193365261Y-95013760D01*
X193257394Y-94974500D01*
X193142606Y-94974500D01*
X193034740Y-95013760D01*
X193034739Y-95013760D01*
X193034738Y-95013761D01*
X192946805Y-95087545D01*
X192889412Y-95186955D01*
X192889410Y-95186959D01*
X192869479Y-95299997D01*
X182506995Y-95299997D01*
X182510521Y-95280002D01*
X182510521Y-95279997D01*
X182490589Y-95166959D01*
X182490588Y-95166958D01*
X182490588Y-95166955D01*
X182433194Y-95067545D01*
X182345261Y-94993760D01*
X182237394Y-94954500D01*
X182122606Y-94954500D01*
X182014740Y-94993760D01*
X182014739Y-94993760D01*
X182014738Y-94993761D01*
X181926805Y-95067545D01*
X181869412Y-95166955D01*
X181869410Y-95166959D01*
X181849479Y-95279997D01*
X181849479Y-95280002D01*
X181869410Y-95393040D01*
X181869411Y-95393043D01*
X181869412Y-95393045D01*
X181880959Y-95413045D01*
X181921032Y-95482455D01*
X181926806Y-95492455D01*
X182003268Y-95556615D01*
X182004227Y-95557419D01*
X182012709Y-95573712D01*
X182007185Y-95591231D01*
X182004227Y-95594189D01*
X181916805Y-95667545D01*
X181859412Y-95766955D01*
X181859410Y-95766959D01*
X181839479Y-95879997D01*
X173650500Y-95879997D01*
X173650500Y-95482275D01*
X173650500Y-95482269D01*
X173615434Y-95148644D01*
X173545688Y-94820513D01*
X173536761Y-94793040D01*
X173500031Y-94679997D01*
X186149479Y-94679997D01*
X186149479Y-94680002D01*
X186169410Y-94793040D01*
X186169411Y-94793043D01*
X186169412Y-94793045D01*
X186226806Y-94892455D01*
X186314739Y-94966240D01*
X186422606Y-95005500D01*
X186537394Y-95005500D01*
X186645261Y-94966240D01*
X186733194Y-94892455D01*
X186790588Y-94793045D01*
X186810521Y-94680000D01*
X186810521Y-94679997D01*
X186790589Y-94566959D01*
X186790588Y-94566958D01*
X186790588Y-94566955D01*
X186733194Y-94467545D01*
X186645261Y-94393760D01*
X186537394Y-94354500D01*
X186422606Y-94354500D01*
X186314740Y-94393760D01*
X186314739Y-94393760D01*
X186314738Y-94393761D01*
X186226805Y-94467545D01*
X186169412Y-94566955D01*
X186169410Y-94566959D01*
X186149479Y-94679997D01*
X173500031Y-94679997D01*
X173451915Y-94531910D01*
X173442024Y-94501469D01*
X173305580Y-94195009D01*
X173137849Y-93904491D01*
X172998322Y-93712448D01*
X172960216Y-93660000D01*
X174054353Y-93660000D01*
X174074835Y-93802457D01*
X174134623Y-93933373D01*
X174228872Y-94042143D01*
X174349947Y-94119953D01*
X174488039Y-94160500D01*
X174488040Y-94160500D01*
X174631960Y-94160500D01*
X174631961Y-94160500D01*
X174770053Y-94119953D01*
X174842057Y-94073679D01*
X185714479Y-94073679D01*
X185714479Y-94073684D01*
X185734410Y-94186722D01*
X185734411Y-94186725D01*
X185734412Y-94186727D01*
X185753110Y-94219113D01*
X185789679Y-94282454D01*
X185791806Y-94286137D01*
X185879739Y-94359922D01*
X185987606Y-94399182D01*
X186102394Y-94399182D01*
X186210261Y-94359922D01*
X186298194Y-94286137D01*
X186355588Y-94186727D01*
X186356237Y-94183045D01*
X186375521Y-94073684D01*
X186375521Y-94073679D01*
X186367130Y-94026094D01*
X190794851Y-94026094D01*
X190794851Y-94026099D01*
X190814782Y-94139137D01*
X190814783Y-94139140D01*
X190814784Y-94139142D01*
X190872178Y-94238552D01*
X190960111Y-94312337D01*
X191067978Y-94351597D01*
X191182766Y-94351597D01*
X191290633Y-94312337D01*
X191378566Y-94238552D01*
X191435960Y-94139142D01*
X191447502Y-94073684D01*
X191455893Y-94026099D01*
X191455893Y-94026094D01*
X191435961Y-93913056D01*
X191435960Y-93913055D01*
X191435960Y-93913052D01*
X191378566Y-93813642D01*
X191290633Y-93739857D01*
X191182766Y-93700597D01*
X191067978Y-93700597D01*
X190960112Y-93739857D01*
X190960111Y-93739857D01*
X190960110Y-93739858D01*
X190872177Y-93813642D01*
X190814784Y-93913052D01*
X190814782Y-93913056D01*
X190794851Y-94026094D01*
X186367130Y-94026094D01*
X186355589Y-93960641D01*
X186355588Y-93960640D01*
X186355588Y-93960637D01*
X186298194Y-93861227D01*
X186210261Y-93787442D01*
X186102394Y-93748182D01*
X185987606Y-93748182D01*
X185879740Y-93787442D01*
X185879739Y-93787442D01*
X185879738Y-93787443D01*
X185791805Y-93861227D01*
X185734412Y-93960637D01*
X185734410Y-93960641D01*
X185714479Y-94073679D01*
X174842057Y-94073679D01*
X174891128Y-94042143D01*
X174985377Y-93933373D01*
X175045165Y-93802457D01*
X175065647Y-93660000D01*
X175045165Y-93517543D01*
X175034430Y-93494037D01*
X191323452Y-93494037D01*
X191323452Y-93494042D01*
X191343383Y-93607080D01*
X191343384Y-93607083D01*
X191343385Y-93607085D01*
X191358405Y-93633100D01*
X191397373Y-93700597D01*
X191400779Y-93706495D01*
X191488712Y-93780280D01*
X191596579Y-93819540D01*
X191711367Y-93819540D01*
X191819234Y-93780280D01*
X191907167Y-93706495D01*
X191964561Y-93607085D01*
X191964562Y-93607080D01*
X191984494Y-93494042D01*
X191984494Y-93494037D01*
X191964562Y-93380999D01*
X191964561Y-93380998D01*
X191964561Y-93380995D01*
X191907167Y-93281585D01*
X191819234Y-93207800D01*
X191711367Y-93168540D01*
X191596579Y-93168540D01*
X191488713Y-93207800D01*
X191488712Y-93207800D01*
X191488711Y-93207801D01*
X191400778Y-93281585D01*
X191343385Y-93380995D01*
X191343383Y-93380999D01*
X191323452Y-93494037D01*
X175034430Y-93494037D01*
X174985377Y-93386627D01*
X174891128Y-93277857D01*
X174891127Y-93277856D01*
X174770055Y-93200048D01*
X174770050Y-93200046D01*
X174727485Y-93187548D01*
X174631961Y-93159500D01*
X174488039Y-93159500D01*
X174430639Y-93176353D01*
X174349949Y-93200046D01*
X174349944Y-93200048D01*
X174228872Y-93277856D01*
X174134622Y-93386628D01*
X174076264Y-93514413D01*
X174074835Y-93517543D01*
X174054353Y-93660000D01*
X172960216Y-93660000D01*
X172940672Y-93633100D01*
X172940661Y-93633087D01*
X172716214Y-93383813D01*
X172716210Y-93383809D01*
X172716201Y-93383799D01*
X172716190Y-93383789D01*
X172716186Y-93383785D01*
X172466912Y-93159338D01*
X172466899Y-93159327D01*
X172459707Y-93154102D01*
X195569479Y-93154102D01*
X195569479Y-93154107D01*
X195589410Y-93267145D01*
X195589411Y-93267148D01*
X195589412Y-93267150D01*
X195610516Y-93303703D01*
X195643148Y-93360225D01*
X195646806Y-93366560D01*
X195670258Y-93386239D01*
X195724458Y-93431718D01*
X195732940Y-93448011D01*
X195727416Y-93465530D01*
X195724458Y-93468488D01*
X195646805Y-93533646D01*
X195589412Y-93633056D01*
X195589410Y-93633060D01*
X195569479Y-93746098D01*
X195569479Y-93746103D01*
X195589410Y-93859141D01*
X195589411Y-93859144D01*
X195589412Y-93859146D01*
X195615587Y-93904483D01*
X195645881Y-93956955D01*
X195646806Y-93958556D01*
X195734739Y-94032341D01*
X195842606Y-94071601D01*
X195957394Y-94071601D01*
X196065261Y-94032341D01*
X196153194Y-93958556D01*
X196210588Y-93859146D01*
X196220584Y-93802457D01*
X196230521Y-93746103D01*
X196230521Y-93746098D01*
X196210589Y-93633060D01*
X196210588Y-93633059D01*
X196210588Y-93633056D01*
X196153194Y-93533646D01*
X196075540Y-93468486D01*
X196067059Y-93452195D01*
X196072583Y-93434676D01*
X196075534Y-93431724D01*
X196113341Y-93400000D01*
X202369479Y-93400000D01*
X202369479Y-93400005D01*
X202389410Y-93513043D01*
X202389411Y-93513046D01*
X202389412Y-93513048D01*
X202446806Y-93612458D01*
X202534739Y-93686243D01*
X202606740Y-93712449D01*
X202620282Y-93724858D01*
X202621084Y-93743209D01*
X202608674Y-93756752D01*
X202606740Y-93757554D01*
X202534740Y-93783760D01*
X202534739Y-93783760D01*
X202534738Y-93783761D01*
X202446805Y-93857545D01*
X202389412Y-93956955D01*
X202389410Y-93956959D01*
X202369479Y-94069997D01*
X202369479Y-94070002D01*
X202389410Y-94183040D01*
X202389411Y-94183043D01*
X202389412Y-94183045D01*
X202446806Y-94282455D01*
X202534739Y-94356240D01*
X202642606Y-94395500D01*
X202757394Y-94395500D01*
X202865261Y-94356240D01*
X202953194Y-94282455D01*
X203010588Y-94183045D01*
X203014563Y-94160500D01*
X203030521Y-94070002D01*
X203030521Y-94069997D01*
X203010589Y-93956959D01*
X203010588Y-93956958D01*
X203010588Y-93956955D01*
X202953194Y-93857545D01*
X202865261Y-93783760D01*
X202793258Y-93757553D01*
X202779717Y-93745144D01*
X202778915Y-93726792D01*
X202791325Y-93713250D01*
X202793240Y-93712455D01*
X202865261Y-93686243D01*
X202953194Y-93612458D01*
X203010588Y-93513048D01*
X203018967Y-93465530D01*
X203030521Y-93400005D01*
X203030521Y-93400000D01*
X203010589Y-93286962D01*
X203010588Y-93286961D01*
X203010588Y-93286958D01*
X202953194Y-93187548D01*
X202865261Y-93113763D01*
X202827439Y-93099997D01*
X206519479Y-93099997D01*
X206519479Y-93100002D01*
X206539410Y-93213040D01*
X206539411Y-93213043D01*
X206539412Y-93213045D01*
X206570646Y-93267145D01*
X206596427Y-93311800D01*
X206596806Y-93312455D01*
X206684739Y-93386240D01*
X206792606Y-93425500D01*
X206907393Y-93425500D01*
X206907394Y-93425500D01*
X206967437Y-93403646D01*
X206985786Y-93404448D01*
X206998196Y-93417990D01*
X206997394Y-93436342D01*
X206996428Y-93438199D01*
X206939412Y-93536955D01*
X206939410Y-93536959D01*
X206919479Y-93649997D01*
X206919479Y-93650002D01*
X206939410Y-93763040D01*
X206939411Y-93763043D01*
X206939412Y-93763045D01*
X206962168Y-93802459D01*
X206994895Y-93859146D01*
X206996806Y-93862455D01*
X207084739Y-93936240D01*
X207192606Y-93975500D01*
X207307394Y-93975500D01*
X207415261Y-93936240D01*
X207503194Y-93862455D01*
X207560588Y-93763045D01*
X207563209Y-93748182D01*
X207580521Y-93650002D01*
X207580521Y-93649997D01*
X207560589Y-93536959D01*
X207560588Y-93536958D01*
X207560588Y-93536955D01*
X207503194Y-93437545D01*
X207415261Y-93363760D01*
X207307394Y-93324500D01*
X207192606Y-93324500D01*
X207132564Y-93346353D01*
X207114213Y-93345551D01*
X207101803Y-93332008D01*
X207102605Y-93313657D01*
X207103560Y-93311820D01*
X207160588Y-93213045D01*
X207165084Y-93187548D01*
X207180521Y-93100002D01*
X207180521Y-93099997D01*
X207160589Y-92986959D01*
X207160588Y-92986958D01*
X207160588Y-92986955D01*
X207103194Y-92887545D01*
X207015261Y-92813760D01*
X206907394Y-92774500D01*
X206792606Y-92774500D01*
X206684740Y-92813760D01*
X206684739Y-92813760D01*
X206684738Y-92813761D01*
X206596805Y-92887545D01*
X206539412Y-92986955D01*
X206539410Y-92986959D01*
X206519479Y-93099997D01*
X202827439Y-93099997D01*
X202757394Y-93074503D01*
X202642606Y-93074503D01*
X202534740Y-93113763D01*
X202534739Y-93113763D01*
X202534738Y-93113764D01*
X202446805Y-93187548D01*
X202389412Y-93286958D01*
X202389410Y-93286962D01*
X202369479Y-93400000D01*
X196113341Y-93400000D01*
X196153194Y-93366560D01*
X196210588Y-93267150D01*
X196220128Y-93213045D01*
X196230521Y-93154107D01*
X196230521Y-93154102D01*
X196210589Y-93041064D01*
X196210588Y-93041063D01*
X196210588Y-93041060D01*
X196153194Y-92941650D01*
X196065261Y-92867865D01*
X195957394Y-92828605D01*
X195842606Y-92828605D01*
X195734740Y-92867865D01*
X195734739Y-92867865D01*
X195734738Y-92867866D01*
X195646805Y-92941650D01*
X195589412Y-93041060D01*
X195589410Y-93041064D01*
X195569479Y-93154102D01*
X172459707Y-93154102D01*
X172195516Y-92962156D01*
X172195515Y-92962155D01*
X172195509Y-92962151D01*
X171904991Y-92794420D01*
X171829588Y-92760849D01*
X171598534Y-92657977D01*
X171598529Y-92657975D01*
X171279502Y-92554316D01*
X171279493Y-92554313D01*
X170951352Y-92484565D01*
X170804343Y-92469114D01*
X170617731Y-92449500D01*
X170617724Y-92449500D01*
X168124500Y-92449500D01*
X168107529Y-92442471D01*
X168100500Y-92425500D01*
X168100500Y-91362466D01*
X168076627Y-91227074D01*
X168070101Y-91190062D01*
X168010225Y-91025555D01*
X167922692Y-90873945D01*
X167906251Y-90854351D01*
X167810167Y-90739841D01*
X167810158Y-90739832D01*
X167676054Y-90627307D01*
X167631013Y-90601303D01*
X167524445Y-90539775D01*
X167359938Y-90479899D01*
X167359937Y-90479898D01*
X167359935Y-90479898D01*
X167187533Y-90449500D01*
X167187532Y-90449500D01*
X167165892Y-90449500D01*
X156265892Y-90449500D01*
X156200000Y-90449500D01*
X156108093Y-90449500D01*
X155927074Y-90481418D01*
X155754338Y-90544289D01*
X155754338Y-90544290D01*
X155595153Y-90636195D01*
X155454351Y-90754342D01*
X155454342Y-90754351D01*
X155336195Y-90895153D01*
X155244290Y-91054338D01*
X155244289Y-91054338D01*
X155181418Y-91227074D01*
X155149500Y-91408092D01*
X155149500Y-97897635D01*
X155149039Y-97902317D01*
X155139051Y-97952528D01*
X155135467Y-97961180D01*
X155108364Y-98001743D01*
X155101743Y-98008364D01*
X155061180Y-98035467D01*
X155052528Y-98039051D01*
X155002318Y-98049039D01*
X154997636Y-98049500D01*
X138901891Y-98049500D01*
X138898138Y-98049205D01*
X138871469Y-98044981D01*
X138842103Y-98040330D01*
X138834962Y-98038009D01*
X138786125Y-98013125D01*
X138780050Y-98008712D01*
X138741287Y-97969949D01*
X138736874Y-97963874D01*
X138711989Y-97915035D01*
X138709669Y-97907895D01*
X138700795Y-97851862D01*
X138700500Y-97848108D01*
X138700500Y-89937476D01*
X138707529Y-89920505D01*
X138724500Y-89913476D01*
X138741471Y-89920505D01*
X138745284Y-89925474D01*
X138752213Y-89937476D01*
X138798184Y-90017101D01*
X138966437Y-90228082D01*
X138966439Y-90228085D01*
X139164252Y-90411629D01*
X139164255Y-90411631D01*
X139164259Y-90411635D01*
X139219797Y-90449500D01*
X139387227Y-90563652D01*
X139387228Y-90563653D01*
X139630352Y-90680735D01*
X139630356Y-90680736D01*
X139630359Y-90680738D01*
X139888228Y-90760280D01*
X140088360Y-90790445D01*
X140155070Y-90800500D01*
X140155071Y-90800500D01*
X140424930Y-90800500D01*
X140478297Y-90792456D01*
X140691772Y-90760280D01*
X140949641Y-90680738D01*
X141025328Y-90644289D01*
X141192772Y-90563653D01*
X141192773Y-90563652D01*
X141192773Y-90563651D01*
X141192775Y-90563651D01*
X141415741Y-90411635D01*
X141613561Y-90228085D01*
X141781815Y-90017102D01*
X141916743Y-89783398D01*
X142015334Y-89532195D01*
X142075383Y-89269103D01*
X142095549Y-89000000D01*
X227694451Y-89000000D01*
X227714616Y-89269102D01*
X227774666Y-89532195D01*
X227774666Y-89532196D01*
X227822604Y-89654338D01*
X227873257Y-89783398D01*
X227894111Y-89819518D01*
X228008184Y-90017101D01*
X228176437Y-90228082D01*
X228176439Y-90228085D01*
X228374252Y-90411629D01*
X228374255Y-90411631D01*
X228374259Y-90411635D01*
X228429797Y-90449500D01*
X228597227Y-90563652D01*
X228597228Y-90563653D01*
X228840352Y-90680735D01*
X228840356Y-90680736D01*
X228840359Y-90680738D01*
X229098228Y-90760280D01*
X229298360Y-90790445D01*
X229365070Y-90800500D01*
X229365071Y-90800500D01*
X229634930Y-90800500D01*
X229688297Y-90792456D01*
X229901772Y-90760280D01*
X230159641Y-90680738D01*
X230235328Y-90644289D01*
X230402772Y-90563653D01*
X230402773Y-90563652D01*
X230402773Y-90563651D01*
X230402775Y-90563651D01*
X230625741Y-90411635D01*
X230823561Y-90228085D01*
X230991815Y-90017102D01*
X231126743Y-89783398D01*
X231225334Y-89532195D01*
X231285383Y-89269103D01*
X231305549Y-89000000D01*
X231285383Y-88730897D01*
X231225334Y-88467805D01*
X231126743Y-88216602D01*
X230991815Y-87982898D01*
X230823561Y-87771915D01*
X230780697Y-87732143D01*
X230625747Y-87588370D01*
X230625738Y-87588363D01*
X230402773Y-87436347D01*
X230402772Y-87436346D01*
X230159647Y-87319264D01*
X230159642Y-87319262D01*
X230012962Y-87274017D01*
X229901772Y-87239720D01*
X229901770Y-87239719D01*
X229901768Y-87239719D01*
X229634930Y-87199500D01*
X229634929Y-87199500D01*
X229365071Y-87199500D01*
X229365070Y-87199500D01*
X229098231Y-87239719D01*
X228840357Y-87319262D01*
X228840352Y-87319264D01*
X228597228Y-87436346D01*
X228597227Y-87436347D01*
X228374261Y-87588363D01*
X228374252Y-87588370D01*
X228176439Y-87771914D01*
X228176437Y-87771917D01*
X228008184Y-87982898D01*
X227873256Y-88216603D01*
X227774666Y-88467803D01*
X227774666Y-88467804D01*
X227714616Y-88730897D01*
X227694451Y-89000000D01*
X142095549Y-89000000D01*
X142075383Y-88730897D01*
X142015334Y-88467805D01*
X141916743Y-88216602D01*
X141781815Y-87982898D01*
X141613561Y-87771915D01*
X141570697Y-87732143D01*
X141415747Y-87588370D01*
X141415738Y-87588363D01*
X141192773Y-87436347D01*
X141192772Y-87436346D01*
X140961558Y-87325000D01*
X176494353Y-87325000D01*
X176514835Y-87467457D01*
X176514836Y-87467459D01*
X176570051Y-87588363D01*
X176574623Y-87598373D01*
X176668872Y-87707143D01*
X176789947Y-87784953D01*
X176928039Y-87825500D01*
X176928040Y-87825500D01*
X177071960Y-87825500D01*
X177071961Y-87825500D01*
X177210053Y-87784953D01*
X177331128Y-87707143D01*
X177425377Y-87598373D01*
X177485165Y-87467457D01*
X177502053Y-87350000D01*
X177614353Y-87350000D01*
X177634835Y-87492457D01*
X177694623Y-87623373D01*
X177788872Y-87732143D01*
X177909947Y-87809953D01*
X178048039Y-87850500D01*
X178048040Y-87850500D01*
X178191960Y-87850500D01*
X178191961Y-87850500D01*
X178330053Y-87809953D01*
X178451128Y-87732143D01*
X178545377Y-87623373D01*
X178605165Y-87492457D01*
X178625647Y-87350000D01*
X178605165Y-87207543D01*
X178556050Y-87099997D01*
X203969479Y-87099997D01*
X203969479Y-87100002D01*
X203989410Y-87213040D01*
X203989411Y-87213043D01*
X203989412Y-87213045D01*
X204046806Y-87312455D01*
X204134739Y-87386240D01*
X204242606Y-87425500D01*
X204357394Y-87425500D01*
X204465261Y-87386240D01*
X204553194Y-87312455D01*
X204610588Y-87213045D01*
X204611559Y-87207540D01*
X204630521Y-87100002D01*
X204630521Y-87099997D01*
X204610589Y-86986959D01*
X204610588Y-86986958D01*
X204610588Y-86986955D01*
X204553194Y-86887545D01*
X204465261Y-86813760D01*
X204357394Y-86774500D01*
X204242606Y-86774500D01*
X204134740Y-86813760D01*
X204134739Y-86813760D01*
X204134738Y-86813761D01*
X204046805Y-86887545D01*
X203989412Y-86986955D01*
X203989410Y-86986959D01*
X203969479Y-87099997D01*
X178556050Y-87099997D01*
X178545377Y-87076627D01*
X178451128Y-86967857D01*
X178451127Y-86967856D01*
X178330055Y-86890048D01*
X178330050Y-86890046D01*
X178244913Y-86865048D01*
X178191961Y-86849500D01*
X178048039Y-86849500D01*
X177995094Y-86865046D01*
X177909949Y-86890046D01*
X177909944Y-86890048D01*
X177788872Y-86967856D01*
X177694622Y-87076628D01*
X177646252Y-87182543D01*
X177634835Y-87207543D01*
X177614353Y-87350000D01*
X177502053Y-87350000D01*
X177505647Y-87325000D01*
X177485165Y-87182543D01*
X177425377Y-87051627D01*
X177331128Y-86942857D01*
X177331127Y-86942856D01*
X177210055Y-86865048D01*
X177210050Y-86865046D01*
X177157104Y-86849500D01*
X177071961Y-86824500D01*
X176928039Y-86824500D01*
X176870639Y-86841353D01*
X176789949Y-86865046D01*
X176789944Y-86865048D01*
X176668872Y-86942856D01*
X176574622Y-87051628D01*
X176514836Y-87182540D01*
X176514835Y-87182543D01*
X176494353Y-87325000D01*
X140961558Y-87325000D01*
X140949647Y-87319264D01*
X140949642Y-87319262D01*
X140802962Y-87274017D01*
X140691772Y-87239720D01*
X140691770Y-87239719D01*
X140691768Y-87239719D01*
X140424930Y-87199500D01*
X140424929Y-87199500D01*
X140155071Y-87199500D01*
X140155070Y-87199500D01*
X139888231Y-87239719D01*
X139630357Y-87319262D01*
X139630352Y-87319264D01*
X139387228Y-87436346D01*
X139387227Y-87436347D01*
X139164261Y-87588363D01*
X139164252Y-87588370D01*
X138966439Y-87771914D01*
X138966437Y-87771917D01*
X138798184Y-87982898D01*
X138663256Y-88216603D01*
X138564666Y-88467803D01*
X138564666Y-88467804D01*
X138504616Y-88730897D01*
X138484451Y-89000000D01*
X138504616Y-89269103D01*
X138524286Y-89355282D01*
X138521209Y-89373391D01*
X138506228Y-89384020D01*
X138488119Y-89380943D01*
X138482503Y-89376049D01*
X138410167Y-89289841D01*
X138410158Y-89289832D01*
X138276054Y-89177307D01*
X138218865Y-89144289D01*
X138124445Y-89089775D01*
X137959938Y-89029899D01*
X137959937Y-89029898D01*
X137959935Y-89029898D01*
X137787533Y-88999500D01*
X137787532Y-88999500D01*
X137765892Y-88999500D01*
X126724500Y-88999500D01*
X126707529Y-88992471D01*
X126700500Y-88975500D01*
X126700500Y-88932542D01*
X126700488Y-88932387D01*
X126700006Y-85950000D01*
X177824353Y-85950000D01*
X177844835Y-86092457D01*
X177904623Y-86223373D01*
X177998872Y-86332143D01*
X178119947Y-86409953D01*
X178258039Y-86450500D01*
X178258040Y-86450500D01*
X178401960Y-86450500D01*
X178401961Y-86450500D01*
X178540053Y-86409953D01*
X178555545Y-86399997D01*
X203419479Y-86399997D01*
X203419479Y-86400002D01*
X203439410Y-86513040D01*
X203439411Y-86513043D01*
X203439412Y-86513045D01*
X203496806Y-86612455D01*
X203584739Y-86686240D01*
X203692606Y-86725500D01*
X203807394Y-86725500D01*
X203915261Y-86686240D01*
X204003194Y-86612455D01*
X204060588Y-86513045D01*
X204060589Y-86513040D01*
X204080521Y-86400002D01*
X204080521Y-86399997D01*
X204060589Y-86286959D01*
X204060588Y-86286958D01*
X204060588Y-86286955D01*
X204003194Y-86187545D01*
X203915261Y-86113760D01*
X203807394Y-86074500D01*
X203692606Y-86074500D01*
X203584740Y-86113760D01*
X203584739Y-86113760D01*
X203584738Y-86113761D01*
X203496805Y-86187545D01*
X203439412Y-86286955D01*
X203439410Y-86286959D01*
X203419479Y-86399997D01*
X178555545Y-86399997D01*
X178661128Y-86332143D01*
X178755377Y-86223373D01*
X178815165Y-86092457D01*
X178835647Y-85950000D01*
X178815165Y-85807543D01*
X178755377Y-85676627D01*
X178661128Y-85567857D01*
X178661127Y-85567856D01*
X178540055Y-85490048D01*
X178540050Y-85490046D01*
X178500193Y-85478343D01*
X178401961Y-85449500D01*
X178258039Y-85449500D01*
X178200639Y-85466353D01*
X178119949Y-85490046D01*
X178119944Y-85490048D01*
X177998872Y-85567856D01*
X177904622Y-85676628D01*
X177844836Y-85807540D01*
X177844835Y-85807543D01*
X177824353Y-85950000D01*
X126700006Y-85950000D01*
X126699763Y-84450000D01*
X182524353Y-84450000D01*
X182544835Y-84592457D01*
X182604623Y-84723373D01*
X182698872Y-84832143D01*
X182819947Y-84909953D01*
X182958039Y-84950500D01*
X182958040Y-84950500D01*
X183101960Y-84950500D01*
X183101961Y-84950500D01*
X183240053Y-84909953D01*
X183361128Y-84832143D01*
X183455377Y-84723373D01*
X183515165Y-84592457D01*
X183535647Y-84450000D01*
X183515165Y-84307543D01*
X183455377Y-84176627D01*
X183361128Y-84067857D01*
X183361127Y-84067856D01*
X183240055Y-83990048D01*
X183240050Y-83990046D01*
X183200193Y-83978343D01*
X183101961Y-83949500D01*
X182958039Y-83949500D01*
X182900639Y-83966353D01*
X182819949Y-83990046D01*
X182819944Y-83990048D01*
X182698872Y-84067856D01*
X182604622Y-84176628D01*
X182544836Y-84307540D01*
X182544835Y-84307543D01*
X182524353Y-84450000D01*
X126699763Y-84450000D01*
X126699545Y-83099997D01*
X177269479Y-83099997D01*
X177269479Y-83100002D01*
X177289410Y-83213040D01*
X177289411Y-83213043D01*
X177289412Y-83213045D01*
X177346806Y-83312455D01*
X177434739Y-83386240D01*
X177542606Y-83425500D01*
X177657394Y-83425500D01*
X177765261Y-83386240D01*
X177853194Y-83312455D01*
X177910588Y-83213045D01*
X177930521Y-83100000D01*
X177930521Y-83099997D01*
X177910589Y-82986959D01*
X177910588Y-82986958D01*
X177910588Y-82986955D01*
X177853194Y-82887545D01*
X177765261Y-82813760D01*
X177657394Y-82774500D01*
X177542606Y-82774500D01*
X177434740Y-82813760D01*
X177434739Y-82813760D01*
X177434738Y-82813761D01*
X177346805Y-82887545D01*
X177289412Y-82986955D01*
X177289410Y-82986959D01*
X177269479Y-83099997D01*
X126699545Y-83099997D01*
X126699310Y-81650000D01*
X140324815Y-81650000D01*
X140343503Y-81827807D01*
X140398746Y-81997826D01*
X140398751Y-81997837D01*
X140488141Y-82152666D01*
X140607765Y-82285522D01*
X140607768Y-82285525D01*
X140752407Y-82390612D01*
X140915729Y-82463327D01*
X140915728Y-82463327D01*
X140915733Y-82463329D01*
X141090609Y-82500500D01*
X141090611Y-82500500D01*
X141269389Y-82500500D01*
X141269391Y-82500500D01*
X141444267Y-82463329D01*
X141607593Y-82390612D01*
X141752230Y-82285526D01*
X141871859Y-82152665D01*
X141961250Y-81997835D01*
X142016497Y-81827803D01*
X142035185Y-81650000D01*
X142864815Y-81650000D01*
X142883503Y-81827807D01*
X142938746Y-81997826D01*
X142938751Y-81997837D01*
X143028141Y-82152666D01*
X143147765Y-82285522D01*
X143147768Y-82285525D01*
X143292407Y-82390612D01*
X143455729Y-82463327D01*
X143455728Y-82463327D01*
X143455733Y-82463329D01*
X143630609Y-82500500D01*
X143630611Y-82500500D01*
X143809389Y-82500500D01*
X143809391Y-82500500D01*
X143984267Y-82463329D01*
X144147593Y-82390612D01*
X144292230Y-82285526D01*
X144411859Y-82152665D01*
X144501250Y-81997835D01*
X144556497Y-81827803D01*
X144575185Y-81650000D01*
X144556497Y-81472197D01*
X144556496Y-81472194D01*
X144556496Y-81472192D01*
X144501253Y-81302173D01*
X144501251Y-81302169D01*
X144501250Y-81302165D01*
X144411859Y-81147335D01*
X144411858Y-81147333D01*
X144292234Y-81014477D01*
X144292231Y-81014474D01*
X144147592Y-80909387D01*
X143984270Y-80836672D01*
X143984271Y-80836672D01*
X143984267Y-80836671D01*
X143809391Y-80799500D01*
X143630609Y-80799500D01*
X143478231Y-80831888D01*
X143455728Y-80836672D01*
X143292410Y-80909387D01*
X143292400Y-80909393D01*
X143147768Y-81014474D01*
X143147765Y-81014477D01*
X143028141Y-81147333D01*
X142938751Y-81302162D01*
X142938746Y-81302173D01*
X142883503Y-81472192D01*
X142864815Y-81650000D01*
X142035185Y-81650000D01*
X142016497Y-81472197D01*
X142016496Y-81472194D01*
X142016496Y-81472192D01*
X141961253Y-81302173D01*
X141961251Y-81302169D01*
X141961250Y-81302165D01*
X141871859Y-81147335D01*
X141871858Y-81147333D01*
X141752234Y-81014477D01*
X141752231Y-81014474D01*
X141607592Y-80909387D01*
X141444270Y-80836672D01*
X141444271Y-80836672D01*
X141444267Y-80836671D01*
X141269391Y-80799500D01*
X141090609Y-80799500D01*
X140938231Y-80831888D01*
X140915728Y-80836672D01*
X140752410Y-80909387D01*
X140752400Y-80909393D01*
X140607768Y-81014474D01*
X140607765Y-81014477D01*
X140488141Y-81147333D01*
X140398751Y-81302162D01*
X140398746Y-81302173D01*
X140343503Y-81472192D01*
X140324815Y-81650000D01*
X126699310Y-81650000D01*
X126698821Y-78625000D01*
X132969540Y-78625000D01*
X132989326Y-78813260D01*
X133047817Y-78993275D01*
X133047820Y-78993283D01*
X133047821Y-78993284D01*
X133142467Y-79157216D01*
X133269129Y-79297888D01*
X133422270Y-79409151D01*
X133595193Y-79486142D01*
X133595192Y-79486142D01*
X133595197Y-79486144D01*
X133780354Y-79525500D01*
X133780356Y-79525500D01*
X133969644Y-79525500D01*
X133969646Y-79525500D01*
X134154803Y-79486144D01*
X134327730Y-79409151D01*
X134480871Y-79297888D01*
X134607533Y-79157216D01*
X134702179Y-78993284D01*
X134760674Y-78813256D01*
X134780460Y-78625000D01*
X134760674Y-78436744D01*
X134760673Y-78436741D01*
X134760673Y-78436739D01*
X134702182Y-78256724D01*
X134702180Y-78256720D01*
X134702179Y-78256716D01*
X134607533Y-78092784D01*
X134480871Y-77952112D01*
X134327730Y-77840849D01*
X134241266Y-77802352D01*
X134154806Y-77763857D01*
X134154807Y-77763857D01*
X134154803Y-77763856D01*
X133969646Y-77724500D01*
X133780354Y-77724500D01*
X133619016Y-77758793D01*
X133595192Y-77763857D01*
X133422272Y-77840848D01*
X133422262Y-77840854D01*
X133269129Y-77952112D01*
X133142466Y-78092785D01*
X133047822Y-78256713D01*
X133047817Y-78256724D01*
X132989326Y-78436739D01*
X132969540Y-78625000D01*
X126698821Y-78625000D01*
X126698199Y-74775000D01*
X133019540Y-74775000D01*
X133039326Y-74963260D01*
X133097817Y-75143275D01*
X133097820Y-75143283D01*
X133097821Y-75143284D01*
X133192467Y-75307216D01*
X133319129Y-75447888D01*
X133472270Y-75559151D01*
X133645193Y-75636142D01*
X133645192Y-75636142D01*
X133645197Y-75636144D01*
X133830354Y-75675500D01*
X133830356Y-75675500D01*
X134019644Y-75675500D01*
X134019646Y-75675500D01*
X134204803Y-75636144D01*
X134377730Y-75559151D01*
X134530871Y-75447888D01*
X134657533Y-75307216D01*
X134752179Y-75143284D01*
X134810674Y-74963256D01*
X134830460Y-74775000D01*
X134810674Y-74586744D01*
X134810673Y-74586741D01*
X134810673Y-74586739D01*
X134752182Y-74406724D01*
X134752180Y-74406720D01*
X134752179Y-74406716D01*
X134657533Y-74242784D01*
X134530871Y-74102112D01*
X134377730Y-73990849D01*
X134291266Y-73952352D01*
X134204806Y-73913857D01*
X134204807Y-73913857D01*
X134204803Y-73913856D01*
X134019646Y-73874500D01*
X133830354Y-73874500D01*
X133669016Y-73908793D01*
X133645192Y-73913857D01*
X133472272Y-73990848D01*
X133472262Y-73990854D01*
X133319129Y-74102112D01*
X133192466Y-74242785D01*
X133097822Y-74406713D01*
X133097817Y-74406724D01*
X133039326Y-74586739D01*
X133019540Y-74775000D01*
X126698199Y-74775000D01*
X126697536Y-70675000D01*
X132969540Y-70675000D01*
X132989326Y-70863260D01*
X133047817Y-71043275D01*
X133047820Y-71043283D01*
X133047821Y-71043284D01*
X133142467Y-71207216D01*
X133269129Y-71347888D01*
X133422270Y-71459151D01*
X133595193Y-71536142D01*
X133595192Y-71536142D01*
X133595197Y-71536144D01*
X133780354Y-71575500D01*
X133780356Y-71575500D01*
X133969644Y-71575500D01*
X133969646Y-71575500D01*
X134154803Y-71536144D01*
X134327730Y-71459151D01*
X134480871Y-71347888D01*
X134607533Y-71207216D01*
X134702179Y-71043284D01*
X134760674Y-70863256D01*
X134780460Y-70675000D01*
X134760674Y-70486744D01*
X134760673Y-70486741D01*
X134760673Y-70486739D01*
X134702182Y-70306724D01*
X134702180Y-70306720D01*
X134702179Y-70306716D01*
X134607533Y-70142784D01*
X134480871Y-70002112D01*
X134327730Y-69890849D01*
X134241266Y-69852352D01*
X134154806Y-69813857D01*
X134154807Y-69813857D01*
X134154803Y-69813856D01*
X133969646Y-69774500D01*
X133780354Y-69774500D01*
X133619016Y-69808793D01*
X133595192Y-69813857D01*
X133422272Y-69890848D01*
X133422262Y-69890854D01*
X133269129Y-70002112D01*
X133142466Y-70142785D01*
X133047822Y-70306713D01*
X133047817Y-70306724D01*
X132989326Y-70486739D01*
X132969540Y-70675000D01*
X126697536Y-70675000D01*
X126696954Y-67075000D01*
X132919540Y-67075000D01*
X132939326Y-67263260D01*
X132997817Y-67443275D01*
X132997820Y-67443283D01*
X132997821Y-67443284D01*
X133092467Y-67607216D01*
X133219129Y-67747888D01*
X133372270Y-67859151D01*
X133545193Y-67936142D01*
X133545192Y-67936142D01*
X133545197Y-67936144D01*
X133730354Y-67975500D01*
X133730356Y-67975500D01*
X133919644Y-67975500D01*
X133919646Y-67975500D01*
X134104803Y-67936144D01*
X134277730Y-67859151D01*
X134430871Y-67747888D01*
X134557533Y-67607216D01*
X134652179Y-67443284D01*
X134710674Y-67263256D01*
X134730460Y-67075000D01*
X134710674Y-66886744D01*
X134710673Y-66886741D01*
X134710673Y-66886739D01*
X134652182Y-66706724D01*
X134652180Y-66706720D01*
X134652179Y-66706716D01*
X134557533Y-66542784D01*
X134430871Y-66402112D01*
X134277730Y-66290849D01*
X134191266Y-66252352D01*
X134104806Y-66213857D01*
X134104807Y-66213857D01*
X134104803Y-66213856D01*
X133919646Y-66174500D01*
X133730354Y-66174500D01*
X133569016Y-66208793D01*
X133545192Y-66213857D01*
X133372272Y-66290848D01*
X133372262Y-66290854D01*
X133219129Y-66402112D01*
X133092466Y-66542785D01*
X132997822Y-66706713D01*
X132997817Y-66706724D01*
X132939326Y-66886739D01*
X132919540Y-67075000D01*
X126696954Y-67075000D01*
X126696538Y-64499997D01*
X158669479Y-64499997D01*
X158669479Y-64500002D01*
X158689410Y-64613040D01*
X158689411Y-64613043D01*
X158689412Y-64613045D01*
X158746806Y-64712455D01*
X158834739Y-64786240D01*
X158942606Y-64825500D01*
X159057394Y-64825500D01*
X159165261Y-64786240D01*
X159253194Y-64712455D01*
X159310588Y-64613045D01*
X159330521Y-64500000D01*
X159330521Y-64499997D01*
X159310589Y-64386959D01*
X159310588Y-64386958D01*
X159310588Y-64386955D01*
X159253194Y-64287545D01*
X159165261Y-64213760D01*
X159057394Y-64174500D01*
X158942606Y-64174500D01*
X158834740Y-64213760D01*
X158834739Y-64213760D01*
X158834738Y-64213761D01*
X158746805Y-64287545D01*
X158689412Y-64386955D01*
X158689410Y-64386959D01*
X158669479Y-64499997D01*
X126696538Y-64499997D01*
X126695414Y-57549997D01*
X175719479Y-57549997D01*
X175719479Y-57550002D01*
X175739410Y-57663040D01*
X175739411Y-57663043D01*
X175739412Y-57663045D01*
X175796806Y-57762455D01*
X175884739Y-57836240D01*
X175992606Y-57875500D01*
X176107394Y-57875500D01*
X176215261Y-57836240D01*
X176303194Y-57762455D01*
X176360588Y-57663045D01*
X176380521Y-57550000D01*
X176380521Y-57549997D01*
X176360589Y-57436959D01*
X176360588Y-57436958D01*
X176360588Y-57436955D01*
X176303194Y-57337545D01*
X176215261Y-57263760D01*
X176107394Y-57224500D01*
X175992606Y-57224500D01*
X175884740Y-57263760D01*
X175884739Y-57263760D01*
X175884738Y-57263761D01*
X175796805Y-57337545D01*
X175739412Y-57436955D01*
X175739410Y-57436959D01*
X175719479Y-57549997D01*
X126695414Y-57549997D01*
X126695226Y-56385000D01*
X144864815Y-56385000D01*
X144883503Y-56562807D01*
X144938746Y-56732826D01*
X144938751Y-56732837D01*
X145028141Y-56887666D01*
X145147765Y-57020522D01*
X145147768Y-57020525D01*
X145292407Y-57125612D01*
X145455729Y-57198327D01*
X145455728Y-57198327D01*
X145455733Y-57198329D01*
X145630609Y-57235500D01*
X145630611Y-57235500D01*
X145809389Y-57235500D01*
X145809391Y-57235500D01*
X145984267Y-57198329D01*
X146147593Y-57125612D01*
X146292230Y-57020526D01*
X146317316Y-56992666D01*
X146411858Y-56887666D01*
X146440628Y-56837835D01*
X146501250Y-56732835D01*
X146556497Y-56562803D01*
X146564149Y-56490000D01*
X149664815Y-56490000D01*
X149683503Y-56667807D01*
X149738746Y-56837826D01*
X149738751Y-56837837D01*
X149828141Y-56992666D01*
X149947765Y-57125522D01*
X149947768Y-57125525D01*
X149947888Y-57125612D01*
X150092407Y-57230612D01*
X150166861Y-57263761D01*
X150255729Y-57303327D01*
X150255728Y-57303327D01*
X150255733Y-57303329D01*
X150430609Y-57340500D01*
X150430611Y-57340500D01*
X150609389Y-57340500D01*
X150609391Y-57340500D01*
X150784267Y-57303329D01*
X150947593Y-57230612D01*
X151092230Y-57125526D01*
X151211859Y-56992665D01*
X151301250Y-56837835D01*
X151356497Y-56667803D01*
X151375185Y-56490000D01*
X151356497Y-56312197D01*
X151356496Y-56312194D01*
X151356496Y-56312192D01*
X151301253Y-56142173D01*
X151301251Y-56142169D01*
X151301250Y-56142165D01*
X151211859Y-55987335D01*
X151211858Y-55987333D01*
X151092234Y-55854477D01*
X151092231Y-55854474D01*
X150947592Y-55749387D01*
X150784270Y-55676672D01*
X150784271Y-55676672D01*
X150784267Y-55676671D01*
X150609391Y-55639500D01*
X150430609Y-55639500D01*
X150278231Y-55671888D01*
X150255728Y-55676672D01*
X150092410Y-55749387D01*
X150092400Y-55749393D01*
X149947768Y-55854474D01*
X149947765Y-55854477D01*
X149828141Y-55987333D01*
X149738751Y-56142162D01*
X149738746Y-56142173D01*
X149683503Y-56312192D01*
X149664815Y-56490000D01*
X146564149Y-56490000D01*
X146575185Y-56385000D01*
X146556497Y-56207197D01*
X146556496Y-56207194D01*
X146556496Y-56207192D01*
X146501253Y-56037173D01*
X146501251Y-56037169D01*
X146501250Y-56037165D01*
X146411859Y-55882335D01*
X146411858Y-55882333D01*
X146292234Y-55749477D01*
X146292231Y-55749474D01*
X146147592Y-55644387D01*
X145984270Y-55571672D01*
X145984271Y-55571672D01*
X145984267Y-55571671D01*
X145809391Y-55534500D01*
X145630609Y-55534500D01*
X145478231Y-55566888D01*
X145455728Y-55571672D01*
X145292410Y-55644387D01*
X145292400Y-55644393D01*
X145147768Y-55749474D01*
X145147765Y-55749477D01*
X145028141Y-55882333D01*
X144938751Y-56037162D01*
X144938746Y-56037173D01*
X144883503Y-56207192D01*
X144864815Y-56385000D01*
X126695226Y-56385000D01*
X126694896Y-54345000D01*
X144869815Y-54345000D01*
X144888503Y-54522807D01*
X144943746Y-54692826D01*
X144943751Y-54692837D01*
X145033141Y-54847666D01*
X145152765Y-54980522D01*
X145152768Y-54980525D01*
X145297407Y-55085612D01*
X145460729Y-55158327D01*
X145460728Y-55158327D01*
X145460733Y-55158329D01*
X145635609Y-55195500D01*
X145635611Y-55195500D01*
X145814389Y-55195500D01*
X145814391Y-55195500D01*
X145989267Y-55158329D01*
X146152593Y-55085612D01*
X146297230Y-54980526D01*
X146322316Y-54952666D01*
X146416858Y-54847666D01*
X146445628Y-54797835D01*
X146506250Y-54692835D01*
X146561497Y-54522803D01*
X146569149Y-54450000D01*
X149669815Y-54450000D01*
X149688503Y-54627807D01*
X149743746Y-54797826D01*
X149743751Y-54797837D01*
X149833141Y-54952666D01*
X149952765Y-55085522D01*
X149952768Y-55085525D01*
X150097407Y-55190612D01*
X150260729Y-55263327D01*
X150260728Y-55263327D01*
X150260733Y-55263329D01*
X150435609Y-55300500D01*
X150435611Y-55300500D01*
X150614389Y-55300500D01*
X150614391Y-55300500D01*
X150789267Y-55263329D01*
X150952593Y-55190612D01*
X151097230Y-55085526D01*
X151216859Y-54952665D01*
X151306250Y-54797835D01*
X151361497Y-54627803D01*
X151380185Y-54450000D01*
X151361497Y-54272197D01*
X151361496Y-54272194D01*
X151361496Y-54272192D01*
X151306253Y-54102173D01*
X151306251Y-54102169D01*
X151306250Y-54102165D01*
X151216859Y-53947335D01*
X151216858Y-53947333D01*
X151097234Y-53814477D01*
X151097231Y-53814474D01*
X150952592Y-53709387D01*
X150789270Y-53636672D01*
X150789271Y-53636672D01*
X150789267Y-53636671D01*
X150614391Y-53599500D01*
X150435609Y-53599500D01*
X150283231Y-53631888D01*
X150260728Y-53636672D01*
X150097410Y-53709387D01*
X150097400Y-53709393D01*
X149952768Y-53814474D01*
X149952765Y-53814477D01*
X149833141Y-53947333D01*
X149743751Y-54102162D01*
X149743746Y-54102173D01*
X149688503Y-54272192D01*
X149669815Y-54450000D01*
X146569149Y-54450000D01*
X146580185Y-54345000D01*
X146561497Y-54167197D01*
X146561496Y-54167194D01*
X146561496Y-54167192D01*
X146506253Y-53997173D01*
X146506251Y-53997169D01*
X146506250Y-53997165D01*
X146416859Y-53842335D01*
X146416858Y-53842333D01*
X146297234Y-53709477D01*
X146297231Y-53709474D01*
X146152592Y-53604387D01*
X145989270Y-53531672D01*
X145989271Y-53531672D01*
X145989267Y-53531671D01*
X145814391Y-53494500D01*
X145635609Y-53494500D01*
X145483231Y-53526888D01*
X145460728Y-53531672D01*
X145297410Y-53604387D01*
X145297400Y-53604393D01*
X145152768Y-53709474D01*
X145152765Y-53709477D01*
X145033141Y-53842333D01*
X144943751Y-53997162D01*
X144943746Y-53997173D01*
X144888503Y-54167192D01*
X144869815Y-54345000D01*
X126694896Y-54345000D01*
X126694485Y-51805000D01*
X144869815Y-51805000D01*
X144888503Y-51982807D01*
X144943746Y-52152826D01*
X144943751Y-52152837D01*
X145033141Y-52307666D01*
X145152765Y-52440522D01*
X145152768Y-52440525D01*
X145297407Y-52545612D01*
X145460729Y-52618327D01*
X145460728Y-52618327D01*
X145460733Y-52618329D01*
X145635609Y-52655500D01*
X145635611Y-52655500D01*
X145814389Y-52655500D01*
X145814391Y-52655500D01*
X145989267Y-52618329D01*
X146152593Y-52545612D01*
X146297230Y-52440526D01*
X146322316Y-52412666D01*
X146416858Y-52307666D01*
X146445628Y-52257835D01*
X146506250Y-52152835D01*
X146561497Y-51982803D01*
X146569149Y-51910000D01*
X149669815Y-51910000D01*
X149688503Y-52087807D01*
X149743746Y-52257826D01*
X149743751Y-52257837D01*
X149833141Y-52412666D01*
X149952765Y-52545522D01*
X149952768Y-52545525D01*
X150097407Y-52650612D01*
X150260729Y-52723327D01*
X150260728Y-52723327D01*
X150260733Y-52723329D01*
X150435609Y-52760500D01*
X150435611Y-52760500D01*
X150614389Y-52760500D01*
X150614391Y-52760500D01*
X150789267Y-52723329D01*
X150952593Y-52650612D01*
X151097230Y-52545526D01*
X151216859Y-52412665D01*
X151306250Y-52257835D01*
X151361497Y-52087803D01*
X151380185Y-51910000D01*
X151361497Y-51732197D01*
X151361496Y-51732194D01*
X151361496Y-51732192D01*
X151306253Y-51562173D01*
X151306251Y-51562169D01*
X151306250Y-51562165D01*
X151216859Y-51407335D01*
X151216858Y-51407333D01*
X151097234Y-51274477D01*
X151097231Y-51274474D01*
X150952592Y-51169387D01*
X150789270Y-51096672D01*
X150789271Y-51096672D01*
X150789267Y-51096671D01*
X150614391Y-51059500D01*
X150435609Y-51059500D01*
X150283231Y-51091888D01*
X150260728Y-51096672D01*
X150097410Y-51169387D01*
X150097400Y-51169393D01*
X149952768Y-51274474D01*
X149952765Y-51274477D01*
X149833141Y-51407333D01*
X149743751Y-51562162D01*
X149743746Y-51562173D01*
X149688503Y-51732192D01*
X149669815Y-51910000D01*
X146569149Y-51910000D01*
X146580185Y-51805000D01*
X146561497Y-51627197D01*
X146561496Y-51627194D01*
X146561496Y-51627192D01*
X146506253Y-51457173D01*
X146506251Y-51457169D01*
X146506250Y-51457165D01*
X146421539Y-51310441D01*
X146416858Y-51302333D01*
X146297234Y-51169477D01*
X146297231Y-51169474D01*
X146152592Y-51064387D01*
X145989270Y-50991672D01*
X145989271Y-50991672D01*
X145989267Y-50991671D01*
X145814391Y-50954500D01*
X145635609Y-50954500D01*
X145483231Y-50986888D01*
X145460728Y-50991672D01*
X145297410Y-51064387D01*
X145297400Y-51064393D01*
X145152768Y-51169474D01*
X145152765Y-51169477D01*
X145033141Y-51302333D01*
X144943751Y-51457162D01*
X144943746Y-51457173D01*
X144888503Y-51627192D01*
X144869815Y-51805000D01*
X126694485Y-51805000D01*
X126694064Y-49199999D01*
X131594475Y-49199999D01*
X131594475Y-49200000D01*
X131614552Y-49493510D01*
X131614552Y-49493514D01*
X131674408Y-49781553D01*
X131674411Y-49781564D01*
X131772925Y-50058758D01*
X131772927Y-50058763D01*
X131772928Y-50058764D01*
X131786083Y-50084151D01*
X131908278Y-50319976D01*
X131908280Y-50319980D01*
X132077933Y-50560323D01*
X132077941Y-50560333D01*
X132148144Y-50635502D01*
X132278740Y-50775335D01*
X132278743Y-50775337D01*
X132278746Y-50775341D01*
X132410863Y-50882826D01*
X132506951Y-50960999D01*
X132506956Y-50961002D01*
X132758309Y-51113854D01*
X132758311Y-51113855D01*
X132758318Y-51113859D01*
X133028159Y-51231067D01*
X133311445Y-51310440D01*
X133311450Y-51310440D01*
X133311451Y-51310441D01*
X133551125Y-51343383D01*
X133602902Y-51350500D01*
X133602903Y-51350500D01*
X133897097Y-51350500D01*
X133897098Y-51350500D01*
X134188555Y-51310440D01*
X134471841Y-51231067D01*
X134741682Y-51113859D01*
X134993049Y-50960999D01*
X135221260Y-50775335D01*
X135422065Y-50560326D01*
X135591722Y-50319976D01*
X135727072Y-50058764D01*
X135825592Y-49781554D01*
X135885448Y-49493511D01*
X135898685Y-49300000D01*
X137994540Y-49300000D01*
X138014326Y-49488260D01*
X138072817Y-49668275D01*
X138072820Y-49668283D01*
X138072821Y-49668284D01*
X138167467Y-49832216D01*
X138294129Y-49972888D01*
X138447270Y-50084151D01*
X138620193Y-50161142D01*
X138620192Y-50161142D01*
X138620197Y-50161144D01*
X138805354Y-50200500D01*
X138805356Y-50200500D01*
X138994644Y-50200500D01*
X138994646Y-50200500D01*
X139179803Y-50161144D01*
X139352730Y-50084151D01*
X139505871Y-49972888D01*
X139632533Y-49832216D01*
X139727179Y-49668284D01*
X139785674Y-49488256D01*
X139805460Y-49300000D01*
X139785674Y-49111744D01*
X139785673Y-49111741D01*
X139785673Y-49111739D01*
X139727182Y-48931724D01*
X139727180Y-48931720D01*
X139727179Y-48931716D01*
X139632533Y-48767784D01*
X139505871Y-48627112D01*
X139352730Y-48515849D01*
X139266266Y-48477352D01*
X139179806Y-48438857D01*
X139179807Y-48438857D01*
X139179803Y-48438856D01*
X138994646Y-48399500D01*
X138805354Y-48399500D01*
X138644016Y-48433793D01*
X138620192Y-48438857D01*
X138447272Y-48515848D01*
X138447262Y-48515854D01*
X138294129Y-48627112D01*
X138167466Y-48767785D01*
X138072822Y-48931713D01*
X138072817Y-48931724D01*
X138014326Y-49111739D01*
X137994540Y-49300000D01*
X135898685Y-49300000D01*
X135905525Y-49200000D01*
X135885448Y-48906489D01*
X135825592Y-48618446D01*
X135727072Y-48341236D01*
X135591722Y-48080024D01*
X135591720Y-48080021D01*
X135591719Y-48080019D01*
X135422066Y-47839676D01*
X135422065Y-47839674D01*
X135221260Y-47624665D01*
X135221256Y-47624662D01*
X135221253Y-47624658D01*
X135067115Y-47499258D01*
X134993049Y-47439001D01*
X134993045Y-47438998D01*
X134993043Y-47438997D01*
X134741690Y-47286145D01*
X134741684Y-47286142D01*
X134741682Y-47286141D01*
X134641658Y-47242694D01*
X134471845Y-47168934D01*
X134471836Y-47168931D01*
X134188551Y-47089559D01*
X134188548Y-47089558D01*
X133897104Y-47049500D01*
X133897098Y-47049500D01*
X133602902Y-47049500D01*
X133602895Y-47049500D01*
X133311451Y-47089558D01*
X133311448Y-47089559D01*
X133028163Y-47168931D01*
X133028154Y-47168934D01*
X132758318Y-47286141D01*
X132758309Y-47286145D01*
X132506956Y-47438997D01*
X132506952Y-47439000D01*
X132278746Y-47624658D01*
X132278741Y-47624664D01*
X132077941Y-47839666D01*
X132077933Y-47839676D01*
X131908280Y-48080019D01*
X131908278Y-48080023D01*
X131772925Y-48341241D01*
X131674411Y-48618435D01*
X131674408Y-48618446D01*
X131614552Y-48906485D01*
X131614552Y-48906489D01*
X131594475Y-49199999D01*
X126694064Y-49199999D01*
X126692560Y-39899999D01*
X150144722Y-39899999D01*
X150144722Y-39900000D01*
X150163763Y-40056819D01*
X150219776Y-40204517D01*
X150219779Y-40204522D01*
X150219780Y-40204523D01*
X150294686Y-40313044D01*
X150309520Y-40334534D01*
X150424325Y-40436240D01*
X150427760Y-40439283D01*
X150567635Y-40512696D01*
X150721015Y-40550500D01*
X150721016Y-40550500D01*
X150878984Y-40550500D01*
X150878985Y-40550500D01*
X151032365Y-40512696D01*
X151172240Y-40439283D01*
X151258963Y-40362454D01*
X151290479Y-40334534D01*
X151290479Y-40334532D01*
X151290483Y-40334530D01*
X151380220Y-40204523D01*
X151380221Y-40204519D01*
X151380223Y-40204517D01*
X151417274Y-40106819D01*
X151436237Y-40056818D01*
X151449207Y-39949999D01*
X152144722Y-39949999D01*
X152144722Y-39950000D01*
X152163763Y-40106819D01*
X152219776Y-40254517D01*
X152219779Y-40254522D01*
X152219780Y-40254523D01*
X152275007Y-40334534D01*
X152309520Y-40384534D01*
X152424325Y-40486240D01*
X152427760Y-40489283D01*
X152567635Y-40562696D01*
X152721015Y-40600500D01*
X152721016Y-40600500D01*
X152878984Y-40600500D01*
X152878985Y-40600500D01*
X153032365Y-40562696D01*
X153172240Y-40489283D01*
X153258963Y-40412454D01*
X153290479Y-40384534D01*
X153290479Y-40384532D01*
X153290483Y-40384530D01*
X153380220Y-40254523D01*
X153380221Y-40254519D01*
X153380223Y-40254517D01*
X153410389Y-40174972D01*
X153419861Y-40149997D01*
X153619479Y-40149997D01*
X153619479Y-40150002D01*
X153639410Y-40263040D01*
X153639411Y-40263043D01*
X153639412Y-40263045D01*
X153668279Y-40313044D01*
X153680683Y-40334530D01*
X153696806Y-40362455D01*
X153784739Y-40436240D01*
X153892606Y-40475500D01*
X154007394Y-40475500D01*
X154115261Y-40436240D01*
X154203194Y-40362455D01*
X154260588Y-40263045D01*
X154271705Y-40199997D01*
X192569479Y-40199997D01*
X192569479Y-40200002D01*
X192589410Y-40313040D01*
X192589411Y-40313043D01*
X192589412Y-40313045D01*
X192601819Y-40334534D01*
X192630683Y-40384530D01*
X192646806Y-40412455D01*
X192734739Y-40486240D01*
X192842606Y-40525500D01*
X192957394Y-40525500D01*
X193065261Y-40486240D01*
X193153194Y-40412455D01*
X193210588Y-40313045D01*
X193210589Y-40313040D01*
X193230521Y-40200002D01*
X193230521Y-40199997D01*
X193210589Y-40086959D01*
X193210588Y-40086958D01*
X193210588Y-40086955D01*
X193153194Y-39987545D01*
X193065261Y-39913760D01*
X192957394Y-39874500D01*
X192842606Y-39874500D01*
X192734740Y-39913760D01*
X192734739Y-39913760D01*
X192734738Y-39913761D01*
X192646805Y-39987545D01*
X192589412Y-40086955D01*
X192589410Y-40086959D01*
X192569479Y-40199997D01*
X154271705Y-40199997D01*
X154280521Y-40150000D01*
X154280521Y-40149997D01*
X154260589Y-40036959D01*
X154260588Y-40036958D01*
X154260588Y-40036955D01*
X154203194Y-39937545D01*
X154115261Y-39863760D01*
X154007394Y-39824500D01*
X153892606Y-39824500D01*
X153784740Y-39863760D01*
X153784739Y-39863760D01*
X153784738Y-39863761D01*
X153696805Y-39937545D01*
X153639412Y-40036955D01*
X153639410Y-40036959D01*
X153619479Y-40149997D01*
X153419861Y-40149997D01*
X153436237Y-40106818D01*
X153455278Y-39950000D01*
X153437064Y-39799997D01*
X193669479Y-39799997D01*
X193669479Y-39800002D01*
X193689410Y-39913040D01*
X193689411Y-39913043D01*
X193689412Y-39913045D01*
X193746806Y-40012455D01*
X193834739Y-40086240D01*
X193942606Y-40125500D01*
X194057394Y-40125500D01*
X194165261Y-40086240D01*
X194253194Y-40012455D01*
X194310588Y-39913045D01*
X194312888Y-39900000D01*
X194330521Y-39800002D01*
X194330521Y-39799997D01*
X194310589Y-39686959D01*
X194310588Y-39686958D01*
X194310588Y-39686955D01*
X194253194Y-39587545D01*
X194165261Y-39513760D01*
X194057394Y-39474500D01*
X193942606Y-39474500D01*
X193834740Y-39513760D01*
X193834739Y-39513760D01*
X193834738Y-39513761D01*
X193746805Y-39587545D01*
X193689412Y-39686955D01*
X193689410Y-39686959D01*
X193669479Y-39799997D01*
X153437064Y-39799997D01*
X153436237Y-39793182D01*
X153405713Y-39712696D01*
X153380223Y-39645482D01*
X153380220Y-39645477D01*
X153290483Y-39515470D01*
X153290481Y-39515468D01*
X153290479Y-39515465D01*
X153172244Y-39410720D01*
X153172238Y-39410716D01*
X153032366Y-39337304D01*
X152955675Y-39318402D01*
X152878985Y-39299500D01*
X152721015Y-39299500D01*
X152669888Y-39312101D01*
X152567633Y-39337304D01*
X152427761Y-39410716D01*
X152427755Y-39410720D01*
X152309520Y-39515465D01*
X152219776Y-39645482D01*
X152163763Y-39793180D01*
X152144722Y-39949999D01*
X151449207Y-39949999D01*
X151455278Y-39900000D01*
X151436237Y-39743182D01*
X151424675Y-39712695D01*
X151380223Y-39595482D01*
X151374745Y-39587545D01*
X151290483Y-39465470D01*
X151290481Y-39465468D01*
X151290479Y-39465465D01*
X151172244Y-39360720D01*
X151172238Y-39360716D01*
X151032366Y-39287304D01*
X150955675Y-39268402D01*
X150878985Y-39249500D01*
X150721015Y-39249500D01*
X150691320Y-39256819D01*
X150567633Y-39287304D01*
X150427761Y-39360716D01*
X150427755Y-39360720D01*
X150309520Y-39465465D01*
X150219776Y-39595482D01*
X150163763Y-39743180D01*
X150144722Y-39899999D01*
X126692560Y-39899999D01*
X126692269Y-38099999D01*
X144144722Y-38099999D01*
X144144722Y-38100000D01*
X144163763Y-38256819D01*
X144219776Y-38404517D01*
X144219779Y-38404522D01*
X144219780Y-38404523D01*
X144309516Y-38534529D01*
X144309520Y-38534534D01*
X144363140Y-38582036D01*
X144371181Y-38598551D01*
X144365189Y-38615915D01*
X144363140Y-38617964D01*
X144309520Y-38665465D01*
X144219776Y-38795482D01*
X144163763Y-38943180D01*
X144144722Y-39099999D01*
X144144722Y-39100000D01*
X144163763Y-39256819D01*
X144219776Y-39404517D01*
X144219779Y-39404522D01*
X144219780Y-39404523D01*
X144309293Y-39534206D01*
X144309520Y-39534534D01*
X144427755Y-39639279D01*
X144427760Y-39639283D01*
X144567635Y-39712696D01*
X144721015Y-39750500D01*
X144721016Y-39750500D01*
X144878984Y-39750500D01*
X144878985Y-39750500D01*
X145032365Y-39712696D01*
X145172240Y-39639283D01*
X145284085Y-39540197D01*
X145301449Y-39534206D01*
X145315915Y-39540198D01*
X145378312Y-39595477D01*
X145427760Y-39639283D01*
X145567635Y-39712696D01*
X145721015Y-39750500D01*
X145721016Y-39750500D01*
X145878984Y-39750500D01*
X145878985Y-39750500D01*
X146032365Y-39712696D01*
X146172240Y-39639283D01*
X146231361Y-39586906D01*
X146290479Y-39534534D01*
X146290479Y-39534532D01*
X146290483Y-39534530D01*
X146380220Y-39404523D01*
X146380221Y-39404519D01*
X146380223Y-39404517D01*
X146424675Y-39287304D01*
X146436237Y-39256818D01*
X146455278Y-39100000D01*
X146443136Y-38999997D01*
X193669479Y-38999997D01*
X193669479Y-39000002D01*
X193689410Y-39113040D01*
X193689411Y-39113043D01*
X193689412Y-39113045D01*
X193746806Y-39212455D01*
X193834739Y-39286240D01*
X193942606Y-39325500D01*
X194057394Y-39325500D01*
X194165261Y-39286240D01*
X194253194Y-39212455D01*
X194310588Y-39113045D01*
X194312888Y-39100000D01*
X194330521Y-39000002D01*
X194330521Y-38999997D01*
X194310589Y-38886959D01*
X194310588Y-38886958D01*
X194310588Y-38886955D01*
X194253194Y-38787545D01*
X194165261Y-38713760D01*
X194057394Y-38674500D01*
X193942606Y-38674500D01*
X193834740Y-38713760D01*
X193834739Y-38713760D01*
X193834738Y-38713761D01*
X193746805Y-38787545D01*
X193689412Y-38886955D01*
X193689410Y-38886959D01*
X193669479Y-38999997D01*
X146443136Y-38999997D01*
X146436237Y-38943182D01*
X146426180Y-38916665D01*
X146380223Y-38795482D01*
X146380220Y-38795477D01*
X146290483Y-38665470D01*
X146236856Y-38617962D01*
X146228817Y-38601450D01*
X146234808Y-38584085D01*
X146236844Y-38582048D01*
X146290483Y-38534530D01*
X146380220Y-38404523D01*
X146380221Y-38404519D01*
X146380223Y-38404517D01*
X146410389Y-38324972D01*
X146436237Y-38256818D01*
X146455278Y-38100000D01*
X146436237Y-37943182D01*
X146426180Y-37916665D01*
X146380223Y-37795482D01*
X146380220Y-37795477D01*
X146290483Y-37665470D01*
X146290481Y-37665468D01*
X146290479Y-37665465D01*
X146172244Y-37560720D01*
X146172238Y-37560716D01*
X146032366Y-37487304D01*
X145955675Y-37468402D01*
X145878985Y-37449500D01*
X145721015Y-37449500D01*
X145669888Y-37462101D01*
X145567633Y-37487304D01*
X145427761Y-37560716D01*
X145427755Y-37560720D01*
X145315915Y-37659801D01*
X145298551Y-37665793D01*
X145284085Y-37659801D01*
X145172244Y-37560720D01*
X145172238Y-37560716D01*
X145032366Y-37487304D01*
X144955675Y-37468402D01*
X144878985Y-37449500D01*
X144721015Y-37449500D01*
X144669888Y-37462101D01*
X144567633Y-37487304D01*
X144427761Y-37560716D01*
X144427755Y-37560720D01*
X144309520Y-37665465D01*
X144219776Y-37795482D01*
X144163763Y-37943180D01*
X144144722Y-38099999D01*
X126692269Y-38099999D01*
X126692156Y-37399997D01*
X160469479Y-37399997D01*
X160469479Y-37400002D01*
X160489410Y-37513040D01*
X160489411Y-37513043D01*
X160489412Y-37513045D01*
X160546806Y-37612455D01*
X160634739Y-37686240D01*
X160742606Y-37725500D01*
X160857394Y-37725500D01*
X160965261Y-37686240D01*
X161053194Y-37612455D01*
X161110588Y-37513045D01*
X161130521Y-37400000D01*
X161130521Y-37399997D01*
X161469479Y-37399997D01*
X161469479Y-37400002D01*
X161489410Y-37513040D01*
X161489411Y-37513043D01*
X161489412Y-37513045D01*
X161546806Y-37612455D01*
X161634739Y-37686240D01*
X161742606Y-37725500D01*
X161857394Y-37725500D01*
X161965261Y-37686240D01*
X162053194Y-37612455D01*
X162110588Y-37513045D01*
X162130521Y-37400000D01*
X162130521Y-37399997D01*
X165469479Y-37399997D01*
X165469479Y-37400002D01*
X165489410Y-37513040D01*
X165489411Y-37513043D01*
X165489412Y-37513045D01*
X165546806Y-37612455D01*
X165634739Y-37686240D01*
X165742606Y-37725500D01*
X165857394Y-37725500D01*
X165965261Y-37686240D01*
X166053194Y-37612455D01*
X166110588Y-37513045D01*
X166130521Y-37400000D01*
X166130521Y-37399997D01*
X166469479Y-37399997D01*
X166469479Y-37400002D01*
X166489410Y-37513040D01*
X166489411Y-37513043D01*
X166489412Y-37513045D01*
X166546806Y-37612455D01*
X166634739Y-37686240D01*
X166742606Y-37725500D01*
X166857394Y-37725500D01*
X166965261Y-37686240D01*
X167053194Y-37612455D01*
X167110588Y-37513045D01*
X167130521Y-37400000D01*
X167130521Y-37399997D01*
X169469479Y-37399997D01*
X169469479Y-37400002D01*
X169489410Y-37513040D01*
X169489411Y-37513043D01*
X169489412Y-37513045D01*
X169546806Y-37612455D01*
X169634739Y-37686240D01*
X169742606Y-37725500D01*
X169857394Y-37725500D01*
X169965261Y-37686240D01*
X170053194Y-37612455D01*
X170110588Y-37513045D01*
X170130521Y-37400000D01*
X170130521Y-37399997D01*
X170469479Y-37399997D01*
X170469479Y-37400002D01*
X170489410Y-37513040D01*
X170489411Y-37513043D01*
X170489412Y-37513045D01*
X170546806Y-37612455D01*
X170634739Y-37686240D01*
X170742606Y-37725500D01*
X170857394Y-37725500D01*
X170965261Y-37686240D01*
X171053194Y-37612455D01*
X171110588Y-37513045D01*
X171130521Y-37400000D01*
X171130521Y-37399997D01*
X173469479Y-37399997D01*
X173469479Y-37400002D01*
X173489410Y-37513040D01*
X173489411Y-37513043D01*
X173489412Y-37513045D01*
X173546806Y-37612455D01*
X173634739Y-37686240D01*
X173742606Y-37725500D01*
X173857394Y-37725500D01*
X173965261Y-37686240D01*
X174053194Y-37612455D01*
X174110588Y-37513045D01*
X174130521Y-37400000D01*
X174130521Y-37399997D01*
X174469479Y-37399997D01*
X174469479Y-37400002D01*
X174489410Y-37513040D01*
X174489411Y-37513043D01*
X174489412Y-37513045D01*
X174546806Y-37612455D01*
X174634739Y-37686240D01*
X174742606Y-37725500D01*
X174857394Y-37725500D01*
X174965261Y-37686240D01*
X175053194Y-37612455D01*
X175110588Y-37513045D01*
X175130521Y-37400000D01*
X175130521Y-37399997D01*
X179469479Y-37399997D01*
X179469479Y-37400002D01*
X179489410Y-37513040D01*
X179489411Y-37513043D01*
X179489412Y-37513045D01*
X179546806Y-37612455D01*
X179634739Y-37686240D01*
X179742606Y-37725500D01*
X179857394Y-37725500D01*
X179965261Y-37686240D01*
X180053194Y-37612455D01*
X180110588Y-37513045D01*
X180130521Y-37400000D01*
X180130521Y-37399997D01*
X180469479Y-37399997D01*
X180469479Y-37400002D01*
X180489410Y-37513040D01*
X180489411Y-37513043D01*
X180489412Y-37513045D01*
X180546806Y-37612455D01*
X180634739Y-37686240D01*
X180742606Y-37725500D01*
X180857394Y-37725500D01*
X180965261Y-37686240D01*
X181053194Y-37612455D01*
X181110588Y-37513045D01*
X181130521Y-37400000D01*
X181130521Y-37399997D01*
X183469479Y-37399997D01*
X183469479Y-37400002D01*
X183489410Y-37513040D01*
X183489411Y-37513043D01*
X183489412Y-37513045D01*
X183546806Y-37612455D01*
X183634739Y-37686240D01*
X183742606Y-37725500D01*
X183857394Y-37725500D01*
X183965261Y-37686240D01*
X184053194Y-37612455D01*
X184110588Y-37513045D01*
X184130521Y-37400000D01*
X184130521Y-37399997D01*
X184469479Y-37399997D01*
X184469479Y-37400002D01*
X184489410Y-37513040D01*
X184489411Y-37513043D01*
X184489412Y-37513045D01*
X184546806Y-37612455D01*
X184634739Y-37686240D01*
X184742606Y-37725500D01*
X184857394Y-37725500D01*
X184965261Y-37686240D01*
X185053194Y-37612455D01*
X185110588Y-37513045D01*
X185130521Y-37400000D01*
X185130521Y-37399997D01*
X187469479Y-37399997D01*
X187469479Y-37400002D01*
X187489410Y-37513040D01*
X187489411Y-37513043D01*
X187489412Y-37513045D01*
X187546806Y-37612455D01*
X187634739Y-37686240D01*
X187742606Y-37725500D01*
X187857394Y-37725500D01*
X187965261Y-37686240D01*
X188053194Y-37612455D01*
X188110588Y-37513045D01*
X188130521Y-37400000D01*
X188130521Y-37399997D01*
X188469479Y-37399997D01*
X188469479Y-37400002D01*
X188489410Y-37513040D01*
X188489411Y-37513043D01*
X188489412Y-37513045D01*
X188546806Y-37612455D01*
X188634739Y-37686240D01*
X188742606Y-37725500D01*
X188857394Y-37725500D01*
X188965261Y-37686240D01*
X189053194Y-37612455D01*
X189110588Y-37513045D01*
X189130521Y-37400000D01*
X189130521Y-37399997D01*
X191519479Y-37399997D01*
X191519479Y-37400002D01*
X191539410Y-37513040D01*
X191539411Y-37513043D01*
X191539412Y-37513045D01*
X191596806Y-37612455D01*
X191684739Y-37686240D01*
X191792606Y-37725500D01*
X191907394Y-37725500D01*
X192015261Y-37686240D01*
X192103194Y-37612455D01*
X192160588Y-37513045D01*
X192180521Y-37400000D01*
X192180521Y-37399997D01*
X192519479Y-37399997D01*
X192519479Y-37400002D01*
X192539410Y-37513040D01*
X192539411Y-37513043D01*
X192539412Y-37513045D01*
X192596806Y-37612455D01*
X192684739Y-37686240D01*
X192792606Y-37725500D01*
X192907394Y-37725500D01*
X193015261Y-37686240D01*
X193103194Y-37612455D01*
X193160588Y-37513045D01*
X193180521Y-37400000D01*
X193180521Y-37399997D01*
X193160589Y-37286959D01*
X193160588Y-37286958D01*
X193160588Y-37286955D01*
X193103194Y-37187545D01*
X193015261Y-37113760D01*
X192907394Y-37074500D01*
X192792606Y-37074500D01*
X192684740Y-37113760D01*
X192684739Y-37113760D01*
X192684738Y-37113761D01*
X192596805Y-37187545D01*
X192539412Y-37286955D01*
X192539410Y-37286959D01*
X192519479Y-37399997D01*
X192180521Y-37399997D01*
X192160589Y-37286959D01*
X192160588Y-37286958D01*
X192160588Y-37286955D01*
X192103194Y-37187545D01*
X192015261Y-37113760D01*
X191907394Y-37074500D01*
X191792606Y-37074500D01*
X191684740Y-37113760D01*
X191684739Y-37113760D01*
X191684738Y-37113761D01*
X191596805Y-37187545D01*
X191539412Y-37286955D01*
X191539410Y-37286959D01*
X191519479Y-37399997D01*
X189130521Y-37399997D01*
X189110589Y-37286959D01*
X189110588Y-37286958D01*
X189110588Y-37286955D01*
X189053194Y-37187545D01*
X188965261Y-37113760D01*
X188857394Y-37074500D01*
X188742606Y-37074500D01*
X188634740Y-37113760D01*
X188634739Y-37113760D01*
X188634738Y-37113761D01*
X188546805Y-37187545D01*
X188489412Y-37286955D01*
X188489410Y-37286959D01*
X188469479Y-37399997D01*
X188130521Y-37399997D01*
X188110589Y-37286959D01*
X188110588Y-37286958D01*
X188110588Y-37286955D01*
X188053194Y-37187545D01*
X187965261Y-37113760D01*
X187857394Y-37074500D01*
X187742606Y-37074500D01*
X187634740Y-37113760D01*
X187634739Y-37113760D01*
X187634738Y-37113761D01*
X187546805Y-37187545D01*
X187489412Y-37286955D01*
X187489410Y-37286959D01*
X187469479Y-37399997D01*
X185130521Y-37399997D01*
X185110589Y-37286959D01*
X185110588Y-37286958D01*
X185110588Y-37286955D01*
X185053194Y-37187545D01*
X184965261Y-37113760D01*
X184857394Y-37074500D01*
X184742606Y-37074500D01*
X184634740Y-37113760D01*
X184634739Y-37113760D01*
X184634738Y-37113761D01*
X184546805Y-37187545D01*
X184489412Y-37286955D01*
X184489410Y-37286959D01*
X184469479Y-37399997D01*
X184130521Y-37399997D01*
X184110589Y-37286959D01*
X184110588Y-37286958D01*
X184110588Y-37286955D01*
X184053194Y-37187545D01*
X183965261Y-37113760D01*
X183857394Y-37074500D01*
X183742606Y-37074500D01*
X183634740Y-37113760D01*
X183634739Y-37113760D01*
X183634738Y-37113761D01*
X183546805Y-37187545D01*
X183489412Y-37286955D01*
X183489410Y-37286959D01*
X183469479Y-37399997D01*
X181130521Y-37399997D01*
X181110589Y-37286959D01*
X181110588Y-37286958D01*
X181110588Y-37286955D01*
X181053194Y-37187545D01*
X180965261Y-37113760D01*
X180857394Y-37074500D01*
X180742606Y-37074500D01*
X180634740Y-37113760D01*
X180634739Y-37113760D01*
X180634738Y-37113761D01*
X180546805Y-37187545D01*
X180489412Y-37286955D01*
X180489410Y-37286959D01*
X180469479Y-37399997D01*
X180130521Y-37399997D01*
X180110589Y-37286959D01*
X180110588Y-37286958D01*
X180110588Y-37286955D01*
X180053194Y-37187545D01*
X179965261Y-37113760D01*
X179857394Y-37074500D01*
X179742606Y-37074500D01*
X179634740Y-37113760D01*
X179634739Y-37113760D01*
X179634738Y-37113761D01*
X179546805Y-37187545D01*
X179489412Y-37286955D01*
X179489410Y-37286959D01*
X179469479Y-37399997D01*
X175130521Y-37399997D01*
X175110589Y-37286959D01*
X175110588Y-37286958D01*
X175110588Y-37286955D01*
X175053194Y-37187545D01*
X174965261Y-37113760D01*
X174857394Y-37074500D01*
X174742606Y-37074500D01*
X174634740Y-37113760D01*
X174634739Y-37113760D01*
X174634738Y-37113761D01*
X174546805Y-37187545D01*
X174489412Y-37286955D01*
X174489410Y-37286959D01*
X174469479Y-37399997D01*
X174130521Y-37399997D01*
X174110589Y-37286959D01*
X174110588Y-37286958D01*
X174110588Y-37286955D01*
X174053194Y-37187545D01*
X173965261Y-37113760D01*
X173857394Y-37074500D01*
X173742606Y-37074500D01*
X173634740Y-37113760D01*
X173634739Y-37113760D01*
X173634738Y-37113761D01*
X173546805Y-37187545D01*
X173489412Y-37286955D01*
X173489410Y-37286959D01*
X173469479Y-37399997D01*
X171130521Y-37399997D01*
X171110589Y-37286959D01*
X171110588Y-37286958D01*
X171110588Y-37286955D01*
X171053194Y-37187545D01*
X170965261Y-37113760D01*
X170857394Y-37074500D01*
X170742606Y-37074500D01*
X170634740Y-37113760D01*
X170634739Y-37113760D01*
X170634738Y-37113761D01*
X170546805Y-37187545D01*
X170489412Y-37286955D01*
X170489410Y-37286959D01*
X170469479Y-37399997D01*
X170130521Y-37399997D01*
X170110589Y-37286959D01*
X170110588Y-37286958D01*
X170110588Y-37286955D01*
X170053194Y-37187545D01*
X169965261Y-37113760D01*
X169857394Y-37074500D01*
X169742606Y-37074500D01*
X169634740Y-37113760D01*
X169634739Y-37113760D01*
X169634738Y-37113761D01*
X169546805Y-37187545D01*
X169489412Y-37286955D01*
X169489410Y-37286959D01*
X169469479Y-37399997D01*
X167130521Y-37399997D01*
X167110589Y-37286959D01*
X167110588Y-37286958D01*
X167110588Y-37286955D01*
X167053194Y-37187545D01*
X166965261Y-37113760D01*
X166857394Y-37074500D01*
X166742606Y-37074500D01*
X166634740Y-37113760D01*
X166634739Y-37113760D01*
X166634738Y-37113761D01*
X166546805Y-37187545D01*
X166489412Y-37286955D01*
X166489410Y-37286959D01*
X166469479Y-37399997D01*
X166130521Y-37399997D01*
X166110589Y-37286959D01*
X166110588Y-37286958D01*
X166110588Y-37286955D01*
X166053194Y-37187545D01*
X165965261Y-37113760D01*
X165857394Y-37074500D01*
X165742606Y-37074500D01*
X165634740Y-37113760D01*
X165634739Y-37113760D01*
X165634738Y-37113761D01*
X165546805Y-37187545D01*
X165489412Y-37286955D01*
X165489410Y-37286959D01*
X165469479Y-37399997D01*
X162130521Y-37399997D01*
X162110589Y-37286959D01*
X162110588Y-37286958D01*
X162110588Y-37286955D01*
X162053194Y-37187545D01*
X161965261Y-37113760D01*
X161857394Y-37074500D01*
X161742606Y-37074500D01*
X161634740Y-37113760D01*
X161634739Y-37113760D01*
X161634738Y-37113761D01*
X161546805Y-37187545D01*
X161489412Y-37286955D01*
X161489410Y-37286959D01*
X161469479Y-37399997D01*
X161130521Y-37399997D01*
X161110589Y-37286959D01*
X161110588Y-37286958D01*
X161110588Y-37286955D01*
X161053194Y-37187545D01*
X160965261Y-37113760D01*
X160857394Y-37074500D01*
X160742606Y-37074500D01*
X160634740Y-37113760D01*
X160634739Y-37113760D01*
X160634738Y-37113761D01*
X160546805Y-37187545D01*
X160489412Y-37286955D01*
X160489410Y-37286959D01*
X160469479Y-37399997D01*
X126692156Y-37399997D01*
X126691865Y-35599997D01*
X142619479Y-35599997D01*
X142619479Y-35600002D01*
X142639410Y-35713040D01*
X142639411Y-35713043D01*
X142639412Y-35713045D01*
X142696806Y-35812455D01*
X142784739Y-35886240D01*
X142892606Y-35925500D01*
X143007394Y-35925500D01*
X143115261Y-35886240D01*
X143203194Y-35812455D01*
X143260588Y-35713045D01*
X143280521Y-35600000D01*
X143280521Y-35599997D01*
X143260589Y-35486959D01*
X143260588Y-35486958D01*
X143260588Y-35486955D01*
X143203194Y-35387545D01*
X143115261Y-35313760D01*
X143007394Y-35274500D01*
X142892606Y-35274500D01*
X142784740Y-35313760D01*
X142784739Y-35313760D01*
X142784738Y-35313761D01*
X142696805Y-35387545D01*
X142639412Y-35486955D01*
X142639410Y-35486959D01*
X142619479Y-35599997D01*
X126691865Y-35599997D01*
X126691526Y-33505521D01*
X154249500Y-33505521D01*
X154249500Y-33694478D01*
X154279061Y-33881122D01*
X154279062Y-33881128D01*
X154337450Y-34060824D01*
X154337454Y-34060834D01*
X154423239Y-34229198D01*
X154423243Y-34229205D01*
X154534306Y-34382068D01*
X154534310Y-34382073D01*
X154667927Y-34515690D01*
X154667930Y-34515692D01*
X154667931Y-34515693D01*
X154820794Y-34626756D01*
X154820801Y-34626760D01*
X154989168Y-34712547D01*
X155047292Y-34731432D01*
X155168871Y-34770937D01*
X155168874Y-34770937D01*
X155168882Y-34770940D01*
X155355519Y-34800500D01*
X155355522Y-34800500D01*
X155544478Y-34800500D01*
X155544481Y-34800500D01*
X155731118Y-34770940D01*
X155731126Y-34770937D01*
X155731128Y-34770937D01*
X155783901Y-34753789D01*
X155910832Y-34712547D01*
X156079199Y-34626760D01*
X156232073Y-34515690D01*
X156365690Y-34382073D01*
X156476760Y-34229199D01*
X156562547Y-34060832D01*
X156620940Y-33881118D01*
X156650500Y-33694481D01*
X156650500Y-33505521D01*
X227399500Y-33505521D01*
X227399500Y-33694478D01*
X227429061Y-33881122D01*
X227429062Y-33881128D01*
X227487450Y-34060824D01*
X227487454Y-34060834D01*
X227573239Y-34229198D01*
X227573243Y-34229205D01*
X227684306Y-34382068D01*
X227684310Y-34382073D01*
X227817927Y-34515690D01*
X227817930Y-34515692D01*
X227817931Y-34515693D01*
X227970794Y-34626756D01*
X227970801Y-34626760D01*
X228139168Y-34712547D01*
X228197292Y-34731432D01*
X228318871Y-34770937D01*
X228318874Y-34770937D01*
X228318882Y-34770940D01*
X228505519Y-34800500D01*
X228505522Y-34800500D01*
X228694478Y-34800500D01*
X228694481Y-34800500D01*
X228881118Y-34770940D01*
X228881126Y-34770937D01*
X228881128Y-34770937D01*
X228933901Y-34753789D01*
X229060832Y-34712547D01*
X229229199Y-34626760D01*
X229382073Y-34515690D01*
X229515690Y-34382073D01*
X229626760Y-34229199D01*
X229712547Y-34060832D01*
X229770940Y-33881118D01*
X229800500Y-33694481D01*
X229800500Y-33505519D01*
X229770940Y-33318882D01*
X229770937Y-33318874D01*
X229770937Y-33318871D01*
X229712549Y-33139175D01*
X229712547Y-33139168D01*
X229626760Y-32970801D01*
X229626756Y-32970794D01*
X229515693Y-32817931D01*
X229515692Y-32817930D01*
X229515690Y-32817927D01*
X229382073Y-32684310D01*
X229382069Y-32684307D01*
X229382068Y-32684306D01*
X229229205Y-32573243D01*
X229229198Y-32573239D01*
X229060834Y-32487454D01*
X229060824Y-32487450D01*
X228881128Y-32429062D01*
X228881122Y-32429061D01*
X228881120Y-32429060D01*
X228881118Y-32429060D01*
X228694481Y-32399500D01*
X228505519Y-32399500D01*
X228318882Y-32429060D01*
X228318880Y-32429060D01*
X228318877Y-32429061D01*
X228318871Y-32429062D01*
X228139175Y-32487450D01*
X228139165Y-32487454D01*
X227970801Y-32573239D01*
X227970794Y-32573243D01*
X227817931Y-32684306D01*
X227684306Y-32817931D01*
X227573243Y-32970794D01*
X227573239Y-32970801D01*
X227487454Y-33139165D01*
X227487450Y-33139175D01*
X227429062Y-33318871D01*
X227429061Y-33318877D01*
X227399500Y-33505521D01*
X156650500Y-33505521D01*
X156650500Y-33505519D01*
X156620940Y-33318882D01*
X156620937Y-33318874D01*
X156620937Y-33318871D01*
X156562549Y-33139175D01*
X156562547Y-33139168D01*
X156476760Y-32970801D01*
X156476756Y-32970794D01*
X156365693Y-32817931D01*
X156365692Y-32817930D01*
X156365690Y-32817927D01*
X156232073Y-32684310D01*
X156232069Y-32684307D01*
X156232068Y-32684306D01*
X156079205Y-32573243D01*
X156079198Y-32573239D01*
X155910834Y-32487454D01*
X155910824Y-32487450D01*
X155731128Y-32429062D01*
X155731122Y-32429061D01*
X155731120Y-32429060D01*
X155731118Y-32429060D01*
X155544481Y-32399500D01*
X155355519Y-32399500D01*
X155168882Y-32429060D01*
X155168880Y-32429060D01*
X155168877Y-32429061D01*
X155168871Y-32429062D01*
X154989175Y-32487450D01*
X154989165Y-32487454D01*
X154820801Y-32573239D01*
X154820794Y-32573243D01*
X154667931Y-32684306D01*
X154534306Y-32817931D01*
X154423243Y-32970794D01*
X154423239Y-32970801D01*
X154337454Y-33139165D01*
X154337450Y-33139175D01*
X154279062Y-33318871D01*
X154279061Y-33318877D01*
X154249500Y-33505521D01*
X126691526Y-33505521D01*
X126690515Y-27251873D01*
X126691332Y-27245666D01*
X126699311Y-27215892D01*
X126699311Y-27151389D01*
X126699471Y-27148621D01*
X126713642Y-27026572D01*
X126714908Y-27021197D01*
X126756195Y-26906957D01*
X126758657Y-26902017D01*
X126825029Y-26800265D01*
X126828555Y-26796025D01*
X126916472Y-26712195D01*
X126920880Y-26708872D01*
X127025660Y-26647422D01*
X127030719Y-26645193D01*
X127146795Y-26609387D01*
X127152226Y-26608379D01*
X127267079Y-26600555D01*
X127268710Y-26600500D01*
X127287485Y-26600500D01*
X127288627Y-26600527D01*
X127342008Y-26603069D01*
X127342008Y-26603068D01*
X127342011Y-26603069D01*
X127351296Y-26601048D01*
X127356399Y-26600500D01*
X129934108Y-26600500D01*
X133784113Y-26600500D01*
X133784117Y-26600501D01*
X133836845Y-26600500D01*
X133915892Y-26600500D01*
X133918172Y-26600500D01*
X133918185Y-26600497D01*
X243548827Y-26598419D01*
X243551179Y-26598535D01*
G37*
%TD.AperFunction*%
%TD*%
%TA.AperFunction,NonConductor*%
G36*
X145315914Y-38540198D02*
G01*
X145363140Y-38582036D01*
X145371181Y-38598551D01*
X145365189Y-38615915D01*
X145363140Y-38617965D01*
X145315914Y-38659802D01*
X145298549Y-38665793D01*
X145284085Y-38659802D01*
X145236856Y-38617962D01*
X145228817Y-38601450D01*
X145234808Y-38584085D01*
X145236853Y-38582040D01*
X145284085Y-38540197D01*
X145301448Y-38534206D01*
X145315914Y-38540198D01*
G37*
%TD.AperFunction*%
M02*
