%TF.GenerationSoftware,KiCad,Pcbnew,8.0.8*%
%TF.CreationDate,2025-08-06T16:05:48-04:00*%
%TF.ProjectId,pcie,70636965-2e6b-4696-9361-645f70636258,rev?*%
%TF.SameCoordinates,Original*%
%TF.FileFunction,Copper,L4,Bot*%
%TF.FilePolarity,Positive*%
%FSLAX46Y46*%
G04 Gerber Fmt 4.6, Leading zero omitted, Abs format (unit mm)*
G04 Created by KiCad (PCBNEW 8.0.8) date 2025-08-06 16:05:48*
%MOMM*%
%LPD*%
G01*
G04 APERTURE LIST*
%TA.AperFunction,ComponentPad*%
%ADD10C,7.000000*%
%TD*%
%TA.AperFunction,ComponentPad*%
%ADD11C,1.400000*%
%TD*%
%TA.AperFunction,ComponentPad*%
%ADD12C,1.500000*%
%TD*%
%TA.AperFunction,ComponentPad*%
%ADD13C,4.000000*%
%TD*%
%TA.AperFunction,ComponentPad*%
%ADD14C,1.700000*%
%TD*%
%TA.AperFunction,ComponentPad*%
%ADD15C,3.000000*%
%TD*%
%TA.AperFunction,ViaPad*%
%ADD16C,0.350000*%
%TD*%
%TA.AperFunction,ViaPad*%
%ADD17C,0.700000*%
%TD*%
%TA.AperFunction,ViaPad*%
%ADD18C,1.000000*%
%TD*%
%TA.AperFunction,Conductor*%
%ADD19C,0.500000*%
%TD*%
%TA.AperFunction,Conductor*%
%ADD20C,0.150000*%
%TD*%
%TA.AperFunction,Conductor*%
%ADD21C,2.500000*%
%TD*%
G04 APERTURE END LIST*
D10*
%TO.P,,1*%
%TO.N,GND*%
X234540000Y-85100000D03*
%TD*%
%TO.P,,1*%
%TO.N,GND*%
X240640000Y-30000000D03*
%TD*%
%TO.P,,1*%
%TO.N,GND*%
X130000000Y-30000000D03*
%TD*%
%TO.P,REF\u002A\u002A,1*%
%TO.N,GND*%
X150640000Y-94100000D03*
%TD*%
D11*
%TO.P,REF\u002A\u002A,1*%
%TO.N,unconnected-(J1-PWR_GOOD-PadPL1)*%
X141180000Y-81650000D03*
%TO.P,REF\u002A\u002A,2*%
%TO.N,unconnected-(J1-PWR_EN-PadPK2)*%
X143720000Y-81650000D03*
%TD*%
%TO.P,REF\u002A\u002A,1*%
%TO.N,unconnected-(J1-12V_FAN-PadPL4)*%
X150525000Y-51910000D03*
%TO.P,REF\u002A\u002A,2*%
%TO.N,unconnected-(J1-FAN1_PWM-PadPK5)*%
X150525000Y-54450000D03*
%TD*%
%TO.P,REF\u002A\u002A,1*%
%TO.N,unconnected-(J1-FAN1_SPEED-PadPJ2)*%
X150520000Y-56490000D03*
%TO.P,REF\u002A\u002A,2*%
%TO.N,GND*%
X150520000Y-59030000D03*
%TD*%
%TO.P,REF\u002A\u002A,1*%
%TO.N,unconnected-(J1-FAN0_SPEED-PadPH2)*%
X145720000Y-56385000D03*
%TO.P,REF\u002A\u002A,2*%
%TO.N,GND*%
X145720000Y-58925000D03*
%TD*%
%TO.P,REF\u002A\u002A,1*%
%TO.N,unconnected-(J1-12V_FAN-PadPL4)*%
X145725000Y-51805000D03*
%TO.P,REF\u002A\u002A,2*%
%TO.N,unconnected-(J1-FAN0_PWM-PadPL5)*%
X145725000Y-54345000D03*
%TD*%
D12*
%TO.P,REF\u002A\u002A,1*%
%TO.N,Net-(J1-VADP_GPU-PadPA1)*%
X133825000Y-67075000D03*
%TD*%
%TO.P,REF\u002A\u002A,1*%
%TO.N,VIN*%
X133925000Y-74775000D03*
%TD*%
%TO.P,REF\u002A\u002A,1*%
%TO.N,+5V*%
X133875000Y-78625000D03*
%TD*%
%TO.P,REF\u002A\u002A,1*%
%TO.N,+3.3V ALW*%
X133875000Y-70675000D03*
%TD*%
D13*
%TO.P,REF\u002A\u002A,1*%
%TO.N,GND*%
X133750000Y-57100000D03*
%TD*%
D12*
%TO.P,REF\u002A\u002A,1*%
%TO.N,+3.3V*%
X138900000Y-49300000D03*
%TD*%
D13*
%TO.P,REF\u002A\u002A,1*%
%TO.N,+12V*%
X133750000Y-49200000D03*
%TD*%
D14*
%TO.P,J1,GND,GND*%
%TO.N,GND*%
X205680000Y-88370000D03*
X199300000Y-96840000D03*
D15*
X199300000Y-92750000D03*
D14*
X192960000Y-88390000D03*
X189020000Y-97080000D03*
D15*
X182640000Y-92760000D03*
D14*
X182640000Y-88560000D03*
X176300000Y-97100000D03*
%TD*%
D16*
%TO.N,unconnected-(J1-PWR_EN-PadPK2)*%
X186000000Y-96825000D03*
%TO.N,unconnected-(J1-PWR_GOOD-PadPL1)*%
X185525000Y-97250000D03*
%TO.N,unconnected-(J1-FAN1_PWM-PadPK5)*%
X159000000Y-64500000D03*
%TO.N,unconnected-(J1-12V_FAN-PadPL4)*%
X177600000Y-83100000D03*
D17*
%TO.N,Net-(J1-VADP_GPU-PadPA1)*%
X183030000Y-84450000D03*
%TO.N,+3.3V ALW*%
X178330000Y-85950000D03*
%TO.N,+5V*%
X174560000Y-93660000D03*
D16*
%TO.N,unconnected-(J1-FAN0_PWM-PadPL5)*%
X182170000Y-95880000D03*
%TO.N,unconnected-(J1-FAN1_PWM-PadPK5)*%
X182180000Y-95280000D03*
%TO.N,unconnected-(J1-12V_FAN-PadPL4)*%
X183175000Y-95875000D03*
%TO.N,unconnected-(J1-FAN1_SPEED-PadPJ2)*%
X186480000Y-94680000D03*
%TO.N,unconnected-(J1-FAN0_SPEED-PadPH2)*%
X186045000Y-94073682D03*
%TO.N,GND*%
X203820000Y-90470000D03*
D18*
%TO.N,+12V*%
X144800000Y-39100000D03*
X145800000Y-39100000D03*
X145800000Y-38100000D03*
X144800000Y-38100000D03*
D16*
%TO.N,GND*%
X139200000Y-32500000D03*
X231400000Y-32500000D03*
%TO.N,PRSNT*%
X192900000Y-40200000D03*
X142950000Y-35600000D03*
%TO.N,PERST_RST*%
X153950000Y-40150000D03*
X176050000Y-57550000D03*
D17*
%TO.N,VIN*%
X177000000Y-87325000D03*
X178120000Y-87350000D03*
%TO.N,GND*%
X185900000Y-88350000D03*
X179000000Y-88300000D03*
X179650000Y-88300000D03*
D16*
X197950000Y-91050000D03*
X203750000Y-87100000D03*
%TO.N,REFCLK+*%
X203750000Y-86400000D03*
%TO.N,REFCLK-*%
X204300000Y-87100000D03*
%TO.N,GND*%
X194000000Y-38500000D03*
X194000000Y-40300003D03*
%TO.N,REFCLK-*%
X194000000Y-39000000D03*
%TO.N,REFCLK+*%
X194000000Y-39800000D03*
D18*
%TO.N,+3.3V*%
X152800000Y-39950000D03*
X150800000Y-39900000D03*
D16*
%TO.N,GND*%
X143100000Y-46850000D03*
X146800000Y-37450000D03*
X146800000Y-43950000D03*
X149800000Y-43950000D03*
X157800000Y-43950000D03*
X156800000Y-37450000D03*
X193200000Y-91070000D03*
X205420000Y-91070000D03*
X202850000Y-94700000D03*
X214600000Y-37400000D03*
X224000000Y-37400000D03*
X177150000Y-44000000D03*
X171150000Y-44000000D03*
X185600000Y-37400000D03*
X226600000Y-37400000D03*
X216600000Y-43900000D03*
X210600000Y-37400000D03*
X167600000Y-37400000D03*
X222000000Y-43900000D03*
X208600000Y-43900000D03*
X206850000Y-92350000D03*
X179000000Y-37400000D03*
X195891481Y-94307168D03*
X214000000Y-43900000D03*
X189150000Y-44000000D03*
X196800000Y-43950000D03*
X199800000Y-37450000D03*
X169400000Y-44000000D03*
X167150000Y-44000000D03*
X222600000Y-37400000D03*
X173400000Y-44000000D03*
X191000000Y-37400000D03*
X198800000Y-37450000D03*
X183400000Y-44000000D03*
X187000000Y-37400000D03*
X196550000Y-96400000D03*
X163150000Y-44000000D03*
X218600000Y-37400000D03*
X193800000Y-43950000D03*
X189600000Y-37400000D03*
X187400000Y-44000000D03*
X195800000Y-37450000D03*
X160000000Y-37400000D03*
X185150000Y-44000000D03*
X200800000Y-43950000D03*
X220600000Y-43900000D03*
X193600000Y-37400000D03*
X169000000Y-37400000D03*
X208000000Y-37400000D03*
X162600000Y-37400000D03*
X202000000Y-43900000D03*
X165400000Y-44000000D03*
X216000000Y-37400000D03*
X173000000Y-37400000D03*
X212600000Y-43900000D03*
X210000000Y-43900000D03*
X179400000Y-44000000D03*
X205500000Y-94668876D03*
X212000000Y-37400000D03*
X183000000Y-37400000D03*
X181600000Y-37400000D03*
X191650000Y-92900000D03*
X206600000Y-37400000D03*
X191150000Y-94650000D03*
X204000000Y-37400000D03*
X206000000Y-43900000D03*
X202800000Y-37450000D03*
X193200000Y-96350000D03*
X165000000Y-37400000D03*
X224600000Y-43900000D03*
X218000000Y-43900000D03*
X181150000Y-44000000D03*
X220000000Y-37400000D03*
X175600000Y-37400000D03*
X171600000Y-37400000D03*
X197800000Y-43950000D03*
X191350000Y-44100000D03*
X204600000Y-43900000D03*
%TO.N,H_RX5N*%
X202700000Y-94070000D03*
X184800000Y-37400000D03*
%TO.N,H_RX4N*%
X202150000Y-95850000D03*
X180800000Y-37400000D03*
%TO.N,H_RX7N*%
X207250000Y-93650000D03*
X192850000Y-37400000D03*
%TO.N,H_RX3P*%
X173800000Y-37400000D03*
X196550000Y-95900000D03*
%TO.N,H_RX7P*%
X206850000Y-93100000D03*
X191850000Y-37400000D03*
%TO.N,H_RX5P*%
X202700000Y-93400003D03*
X183800000Y-37400000D03*
%TO.N,H_RX4P*%
X202000000Y-95270000D03*
X179800000Y-37400000D03*
%TO.N,H_RX0P*%
X191125372Y-94026097D03*
X160800000Y-37400000D03*
%TO.N,H_RX6P*%
X205500000Y-95250000D03*
X187800000Y-37400000D03*
%TO.N,H_RX1N*%
X193200000Y-95300000D03*
X166800000Y-37400000D03*
%TO.N,H_RX3N*%
X174800000Y-37400000D03*
X196550000Y-95250000D03*
%TO.N,H_RX0N*%
X161800000Y-37400000D03*
X191653973Y-93494040D03*
%TO.N,H_RX2P*%
X195900000Y-93746101D03*
X169800000Y-37400000D03*
%TO.N,H_RX1P*%
X165800000Y-37400000D03*
X193200000Y-95850000D03*
%TO.N,H_RX6N*%
X188800000Y-37400000D03*
X205500000Y-95900000D03*
%TO.N,H_RX2N*%
X170800000Y-37400000D03*
X195900000Y-93154105D03*
%TO.N,GND*%
X200630000Y-91070000D03*
%TD*%
D19*
%TO.N,VIN*%
X157975000Y-74775000D02*
X133925000Y-74775000D01*
X177000000Y-87325000D02*
X170525000Y-87325000D01*
X170525000Y-87325000D02*
X157975000Y-74775000D01*
%TO.N,Net-(J1-VADP_GPU-PadPA1)*%
X155295000Y-67075000D02*
X149015000Y-67075000D01*
X183030000Y-84450000D02*
X172670000Y-84450000D01*
X172670000Y-84450000D02*
X155295000Y-67075000D01*
%TO.N,+3.3V ALW*%
X157250000Y-70675000D02*
X150145000Y-70675000D01*
X172525000Y-85950000D02*
X157250000Y-70675000D01*
X178330000Y-85950000D02*
X172525000Y-85950000D01*
%TO.N,+5V*%
X159555000Y-78655000D02*
X153275000Y-78655000D01*
X174560000Y-93660000D02*
X159555000Y-78655000D01*
D20*
%TO.N,unconnected-(J1-12V_FAN-PadPL4)*%
X177575000Y-83075000D02*
X177575000Y-78960000D01*
X177600000Y-83100000D02*
X177575000Y-83075000D01*
X177575000Y-78960000D02*
X150525000Y-51910000D01*
X150060000Y-51805000D02*
X145725000Y-51805000D01*
X150165000Y-51910000D02*
X150060000Y-51805000D01*
X150525000Y-51910000D02*
X150165000Y-51910000D01*
D19*
%TO.N,Net-(J1-VADP_GPU-PadPA1)*%
X149015000Y-67075000D02*
X133825000Y-67075000D01*
X183060661Y-84450000D02*
X183030000Y-84450000D01*
%TO.N,+3.3V ALW*%
X150145000Y-70675000D02*
X133875000Y-70675000D01*
X178360661Y-85950000D02*
X178330000Y-85950000D01*
%TO.N,+5V*%
X153275000Y-78655000D02*
X133905000Y-78655000D01*
%TO.N,+3.3V*%
X138950000Y-44650000D02*
X138950000Y-50050000D01*
X149200000Y-40600000D02*
X143000000Y-40600000D01*
X143000000Y-40600000D02*
X138950000Y-44650000D01*
X149850000Y-39950000D02*
X149200000Y-40600000D01*
X152800000Y-39950000D02*
X149850000Y-39950000D01*
D21*
%TO.N,+12V*%
X133750000Y-44700000D02*
X133750000Y-49200000D01*
X145550000Y-38550000D02*
X139900000Y-38550000D01*
X139900000Y-38550000D02*
X133750000Y-44700000D01*
D20*
%TO.N,PRSNT*%
X192900000Y-39800000D02*
X192900000Y-40200000D01*
X190950000Y-37850000D02*
X192900000Y-39800000D01*
X145900000Y-35600000D02*
X148150000Y-37850000D01*
X148150000Y-37850000D02*
X190950000Y-37850000D01*
X142950000Y-35600000D02*
X145900000Y-35600000D01*
%TO.N,PERST_RST*%
X175650000Y-40300000D02*
X176050000Y-40700000D01*
X176050000Y-40700000D02*
X176050000Y-57550000D01*
X153950000Y-40150000D02*
X154100000Y-40300000D01*
X154100000Y-40300000D02*
X175650000Y-40300000D01*
%TO.N,REFCLK+*%
X194700000Y-39550000D02*
X194250000Y-39550000D01*
X195400000Y-40250000D02*
X194700000Y-39550000D01*
X195400000Y-58350000D02*
X195400000Y-40250000D01*
X209350000Y-72300000D02*
X195400000Y-58350000D01*
X194250000Y-39550000D02*
X194000000Y-39800000D01*
X208625736Y-81900000D02*
X209350000Y-81175736D01*
X209350000Y-81175736D02*
X209350000Y-72300000D01*
X204450000Y-81900000D02*
X208625736Y-81900000D01*
X203850000Y-82500000D02*
X204450000Y-81900000D01*
X203750000Y-86400000D02*
X203850000Y-86300000D01*
X203850000Y-86300000D02*
X203850000Y-82500000D01*
%TO.N,REFCLK-*%
X204150000Y-86950000D02*
X204300000Y-87100000D01*
X204150000Y-82624264D02*
X204150000Y-86950000D01*
X204574264Y-82200000D02*
X204150000Y-82624264D01*
X208750000Y-82200000D02*
X204574264Y-82200000D01*
X209650000Y-81300000D02*
X208750000Y-82200000D01*
X195700000Y-40125736D02*
X195700000Y-58200000D01*
X195700000Y-58200000D02*
X209650000Y-72150000D01*
X194824264Y-39250000D02*
X195700000Y-40125736D01*
X209650000Y-72150000D02*
X209650000Y-81300000D01*
X194250000Y-39250000D02*
X194824264Y-39250000D01*
X194000000Y-39000000D02*
X194250000Y-39250000D01*
%TD*%
M02*
